<?xml version="1.0" encoding="UTF-8" standalone="no"?>
<!-- Created with Inkscape (http://www.inkscape.org/) -->

<svg
   xmlns:dc="http://purl.org/dc/elements/1.1/"
   xmlns:cc="http://creativecommons.org/ns#"
   xmlns:rdf="http://www.w3.org/1999/02/22-rdf-syntax-ns#"
   xmlns:svg="http://www.w3.org/2000/svg"
   xmlns="http://www.w3.org/2000/svg"
   xmlns:xlink="http://www.w3.org/1999/xlink"
   xmlns:sodipodi="http://sodipodi.sourceforge.net/DTD/sodipodi-0.dtd"
   xmlns:inkscape="http://www.inkscape.org/namespaces/inkscape"
   width="3.75in"
   height="2.25in"
   viewBox="0 0 95.250004 57.150002"
   version="1.1"
   id="svg8"
   inkscape:version="0.92.3 (2405546, 2018-03-11)"
   sodipodi:docname="cartao-visita-verde.svg"
   inkscape:export-filename="/home/leanfj/Dropbox/lfwi/cartao-visita-verde.png"
   inkscape:export-xdpi="300"
   inkscape:export-ydpi="300">
  <defs
     id="defs2">
    <symbol
       id="envelope"
       viewBox="0 0 512 512">
      <path
         style="stroke-width:0.26458332"
         inkscape:connector-curvature="0"
         d="m 132.90021,50.4825 c 1.03187,-0.820208 2.56646,-0.05292 2.56646,1.243542 v 54.107288 c 0,7.01146 -5.68855,12.7 -12.7,12.7 H 12.7 c -7.0114583,0 -12.7,-5.68854 -12.7,-12.7 V 51.7525 C 0,50.429583 1.508125,49.68875 2.5664583,50.508958 8.493125,55.112708 16.35125,60.96 43.33875,80.565625 c 5.582708,4.074583 15.001875,12.647083 24.394583,12.594167 9.445625,0.07937 19.05,-8.678334 24.421042,-12.594167 C 119.14187,60.96 126.97354,55.08625 132.90021,50.4825 Z M 67.733333,84.666667 c 6.138334,0.105833 14.975417,-7.725834 19.420417,-10.95375 35.11021,-25.479375 37.7825,-27.701875 45.87875,-34.051875 1.53458,-1.190625 2.43417,-3.042709 2.43417,-5.000625 v -5.027084 c 0,-7.011458 -5.68855,-12.7 -12.7,-12.7 H 12.7 c -7.0114583,0 -12.7,5.688542 -12.7,12.7 v 5.027084 c 0,1.957916 0.89958333,3.783541 2.4341667,5.000625 8.0962503,6.323541 10.7685413,8.5725 45.8787503,34.051875 4.445,3.227916 13.282083,11.059583 19.420416,10.95375 z"
         id="path5512" />
    </symbol>
    <symbol
       id="phone-square"
       viewBox="0 0 448 512">
      <path
         style="stroke-width:0.26458332"
         inkscape:connector-curvature="0"
         d="M 105.83333,8.4666667 H 12.7 C 5.6858958,8.4666667 0,14.152562 0,21.166667 V 114.3 c 0,7.0141 5.6858958,12.7 12.7,12.7 h 93.13333 c 7.01411,0 12.7,-5.6859 12.7,-12.7 V 21.166667 c 0,-7.014105 -5.68589,-12.7000003 -12.7,-12.7000003 z M 24.870833,110.06667 c -1.860814,0 -3.454664,-1.28932 -3.86715,-3.07631 L 17.035462,89.79244 a 3.96875,3.96875 0 0 1 2.303728,-4.54025 l 18.520304,-7.937236 a 3.96875,3.96875 0 0 1 4.634971,1.134798 l 8.201289,10.02374 C 63.645521,82.397865 74.057669,71.842312 80.00656,59.16295 L 69.982556,50.96166 a 3.9690146,3.9690146 0 0 1 -1.134798,-4.63497 l 7.9375,-18.520305 a 3.96875,3.96875 0 0 1 4.54025,-2.303727 l 17.197917,3.968221 A 3.9679562,3.9679562 0 0 1 101.6,33.3375 c 0,42.410592 -34.381281,76.72917 -76.729167,76.72917 z"
         id="path6418" />
    </symbol>
    <symbol
       id="desktop"
       viewBox="0 0 576 512">
      <path
         style="stroke-width:0.26458332"
         inkscape:connector-curvature="0"
         d="M 139.7,0 H 12.7 C 5.6885417,0 0,5.6885417 0,12.7 v 84.666667 c 0,7.011453 5.6885417,12.700003 12.7,12.700003 h 50.8 l -4.233333,12.7 h -19.05 c -3.518959,0 -6.35,2.83104 -6.35,6.35 0,3.51895 2.831041,6.35 6.35,6.35 h 71.966663 c 3.51896,0 6.35,-2.83105 6.35,-6.35 0,-3.51896 -2.83104,-6.35 -6.35,-6.35 H 93.133333 L 88.9,110.06667 h 50.8 c 7.01146,0 12.7,-5.68855 12.7,-12.700003 V 12.7 C 152.4,5.6885417 146.71146,0 139.7,0 Z m -4.23333,93.133333 H 16.933333 v -76.2 H 135.46667 Z"
         id="path5386" />
    </symbol>
  </defs>
  <sodipodi:namedview
     id="base"
     pagecolor="#ffffff"
     bordercolor="#666666"
     borderopacity="1.0"
     inkscape:pageopacity="0.0"
     inkscape:pageshadow="2"
     inkscape:zoom="1"
     inkscape:cx="73.890961"
     inkscape:cy="73.3107"
     inkscape:document-units="mm"
     inkscape:current-layer="layer1"
     showgrid="false"
     units="in"
     borderlayer="true"
     inkscape:showpageshadow="false"
     inkscape:window-width="1366"
     inkscape:window-height="709"
     inkscape:window-x="0"
     inkscape:window-y="32"
     inkscape:window-maximized="1"
     inkscape:object-nodes="false"
     showguides="true"
     inkscape:guide-bbox="true"
     inkscape:measure-start="67.2187,70.25"
     inkscape:measure-end="67.2812,70.2812" />
  <metadata
     id="metadata5">
    <rdf:RDF>
      <cc:Work
         rdf:about="">
        <dc:format>image/svg+xml</dc:format>
        <dc:type
           rdf:resource="http://purl.org/dc/dcmitype/StillImage" />
        <dc:title />
      </cc:Work>
    </rdf:RDF>
  </metadata>
  <g
     inkscape:label="Layer 1"
     inkscape:groupmode="layer"
     id="layer1"
     transform="translate(0,-239.84988)">
    <g
       style="fill:#1a1a1a;fill-opacity:1"
       id="layer2-3"
       inkscape:label="Camada 2"
       transform="matrix(0.18993331,0,0,0.18993331,5.2636708,250.42029)" />
    <g
       inkscape:label="Camada 1"
       id="layer1-5"
       style="display:inline;fill:#1a1a1a;fill-opacity:1"
       transform="matrix(0.18993331,0,0,0.18993331,5.2636708,250.42029)" />
    <g
       id="g19035"
       inkscape:export-xdpi="300"
       inkscape:export-ydpi="300">
      <path
         inkscape:connector-curvature="0"
         id="path896"
         d="m 34.24959,267.81407 c 14.039124,7.94507 14.039124,7.94507 14.039124,7.94507 l 5.260283,-11.11002 H 38.856 Z"
         style="fill:#165044;fill-opacity:1;stroke:none;stroke-width:0.35170895px;stroke-linecap:butt;stroke-linejoin:miter;stroke-opacity:1" />
      <path
         sodipodi:nodetypes="ccccc"
         inkscape:connector-curvature="0"
         id="path875"
         d="m 49.516533,239.84988 -15.313792,57.15 h 61.047264 v -57.15 z"
         style="opacity:1;fill:#1a1a1a;fill-opacity:1;stroke:none;stroke-width:5.22968817;stroke-linecap:square;stroke-miterlimit:4;stroke-dasharray:none;stroke-opacity:1;paint-order:markers fill stroke" />
      <path
         id="path880"
         d="M 0,239.84988 V 295.1447 L 14.816666,239.84988 Z"
         style="opacity:1;fill:#1a1a1a;fill-opacity:1;stroke:none;stroke-width:5.22968817;stroke-linecap:square;stroke-miterlimit:4;stroke-dasharray:none;stroke-opacity:1;paint-order:markers fill stroke"
         inkscape:connector-curvature="0" />
      <path
         id="rect885"
         d="m 37.859186,254.34357 -3.609596,13.4705 h 61.000409 v -13.4705 z"
         style="opacity:1;fill:#37c8ab;fill-opacity:1;stroke:none;stroke-width:0.46569031;stroke-linecap:square;stroke-miterlimit:4;stroke-dasharray:none;stroke-opacity:1;paint-order:markers fill stroke"
         inkscape:connector-curvature="0" />
      <g
         transform="translate(-0.26474229,0.34428102)"
         style="fill:#f9f9f9"
         id="g957">
        <g
           id="text900"
           style="font-style:normal;font-variant:normal;font-weight:normal;font-stretch:normal;font-size:6.10823393px;line-height:1.25;font-family:'DejaVu Sans';-inkscape-font-specification:'DejaVu Sans';letter-spacing:0.65752852px;word-spacing:0px;fill:#f9f9f9;fill-opacity:1;stroke:none;stroke-width:0.57264692"
           aria-label="WEB">
          <path
             id="path11294"
             style="font-style:normal;font-variant:normal;font-weight:800;font-stretch:normal;font-family:'Open Sans';-inkscape-font-specification:'Open Sans Ultra-Bold';letter-spacing:0.65752852px;word-spacing:0.58538067px;fill:#f9f9f9;stroke-width:0.57264692"
             d="M 52.911157,260.60687 H 51.518312 L 51.100757,258.707 q -0.02983,-0.1193 -0.09544,-0.47423 -0.06263,-0.35492 -0.09246,-0.59352 -0.02386,0.19386 -0.07755,0.48317 -0.05369,0.28632 -0.107372,0.52791 -0.0507,0.24158 -0.432467,1.95654 h -1.39284 L 47.82295,256.2464 h 1.136347 l 0.474223,2.1862 q 0.161057,0.72476 0.220707,1.15425 0.03877,-0.30422 0.137197,-0.82617 0.101406,-0.52194 0.1879,-0.86493 l 0.384747,-1.64935 h 1.091608 l 0.372817,1.64935 q 0.09544,0.39667 0.193865,0.91564 0.09842,0.51896 0.131232,0.77546 0.03877,-0.33107 0.21176,-1.14828 l 0.483171,-2.19217 h 1.136346 z"
             inkscape:connector-curvature="0" />
          <path
             id="path11296"
             style="font-style:normal;font-variant:normal;font-weight:800;font-stretch:normal;font-family:'Open Sans';-inkscape-font-specification:'Open Sans Ultra-Bold';letter-spacing:0.65752852px;word-spacing:0.58538067px;fill:#f9f9f9;stroke-width:0.57264692"
             d="m 57.794939,260.60687 h -2.588841 v -4.36047 h 2.588841 v 0.94547 H 56.3842 v 0.68598 h 1.30635 v 0.94547 H 56.3842 v 0.82318 h 1.410739 z"
             inkscape:connector-curvature="0" />
          <path
             id="path11298"
             style="font-style:normal;font-variant:normal;font-weight:800;font-stretch:normal;font-family:'Open Sans';-inkscape-font-specification:'Open Sans Ultra-Bold';letter-spacing:0.65752852px;word-spacing:0.58538067px;fill:#f9f9f9;stroke-width:0.57264692"
             d="m 59.215997,256.2464 h 1.521094 q 0.888796,0 1.318281,0.26545 0.432468,0.26246 0.432468,0.8202 0,0.36685 -0.1879,0.62633 -0.1879,0.25948 -0.495101,0.33404 v 0.0298 q 0.405625,0.10737 0.587559,0.3579 0.181935,0.25054 0.181935,0.6502 0,0.59352 -0.44738,0.93651 -0.444398,0.34001 -1.213893,0.34001 h -1.697063 z m 1.178102,1.67321 h 0.354922 q 0.253516,0 0.390712,-0.10439 0.140179,-0.10439 0.140179,-0.31018 0,-0.36686 -0.554751,-0.36686 h -0.331062 z m 0,0.86195 v 0.91564 h 0.414573 q 0.551769,0 0.551769,-0.46528 0,-0.21772 -0.149127,-0.33404 -0.146144,-0.11632 -0.426503,-0.11632 z"
             inkscape:connector-curvature="0" />
        </g>
        <g
           id="text908"
           style="font-style:normal;font-variant:normal;font-weight:normal;font-stretch:normal;font-size:3.96837974px;line-height:1.25;font-family:Comfortaa;-inkscape-font-specification:Comfortaa;letter-spacing:0.54768753px;word-spacing:0px;fill:#f9f9f9;fill-opacity:1;stroke:none;stroke-width:0.37203562"
           aria-label="INNOVATIONS">
          <path
             id="path11301"
             style="letter-spacing:0.54768753px;fill:#f9f9f9;stroke-width:0.37203562"
             d="m 47.977718,265.18298 q -0.06349,0 -0.111115,-0.0437 -0.04365,-0.0476 -0.04365,-0.11111 v -2.78977 q 0,-0.0675 0.04365,-0.11112 0.04762,-0.0436 0.111115,-0.0436 0.06746,0 0.111115,0.0436 0.04365,0.0437 0.04365,0.11112 v 2.78977 q 0,0.0635 -0.04365,0.11111 -0.04365,0.0437 -0.111115,0.0437 z"
             inkscape:connector-curvature="0" />
          <path
             id="path11303"
             style="letter-spacing:0.54768753px;fill:#f9f9f9;stroke-width:0.37203562"
             d="m 49.626011,265.18298 q -0.06746,0 -0.111115,-0.0437 -0.04365,-0.0436 -0.04365,-0.11111 v -2.78977 q 0,-0.0675 0.04365,-0.11112 0.04365,-0.0436 0.111115,-0.0436 0.07143,0 0.119051,0.0556 l 1.896886,2.49214 v -2.39293 q 0,-0.0675 0.04365,-0.11112 0.04762,-0.0436 0.111115,-0.0436 0.06746,0 0.111114,0.0436 0.04365,0.0437 0.04365,0.11112 v 2.78977 q 0,0.0635 -0.04365,0.11111 -0.04365,0.0437 -0.111114,0.0437 -0.07937,0 -0.115083,-0.0516 l -1.900854,-2.49214 v 2.38897 q 0,0.0635 -0.04365,0.11111 -0.04365,0.0437 -0.111114,0.0437 z"
             inkscape:connector-curvature="0" />
          <path
             id="path11305"
             style="letter-spacing:0.54768753px;fill:#f9f9f9;stroke-width:0.37203562"
             d="m 53.444511,265.18298 q -0.06746,0 -0.111114,-0.0437 -0.04365,-0.0436 -0.04365,-0.11111 v -2.78977 q 0,-0.0675 0.04365,-0.11112 0.04365,-0.0436 0.111114,-0.0436 0.07143,0 0.119052,0.0556 l 1.896885,2.49214 v -2.39293 q 0,-0.0675 0.04365,-0.11112 0.04762,-0.0436 0.111114,-0.0436 0.06746,0 0.111115,0.0436 0.04365,0.0437 0.04365,0.11112 v 2.78977 q 0,0.0635 -0.04365,0.11111 -0.04365,0.0437 -0.111115,0.0437 -0.07937,0 -0.115083,-0.0516 l -1.900854,-2.49214 v 2.38897 q 0,0.0635 -0.04365,0.11111 -0.04365,0.0437 -0.111115,0.0437 z"
             inkscape:connector-curvature="0" />
          <path
             id="path11307"
             style="letter-spacing:0.54768753px;fill:#f9f9f9;stroke-width:0.37203562"
             d="m 58.54083,265.22267 q -0.452396,0 -0.813518,-0.20636 -0.361123,-0.20635 -0.567478,-0.56748 -0.202388,-0.36509 -0.202388,-0.81748 0,-0.4524 0.202388,-0.81352 0.206355,-0.36112 0.567478,-0.56748 0.361122,-0.20635 0.813518,-0.20635 0.448427,0 0.809549,0.20635 0.365091,0.20636 0.567479,0.56748 0.206355,0.36112 0.206355,0.81352 0,0.45239 -0.206355,0.81748 -0.202388,0.36113 -0.567479,0.56748 -0.361122,0.20636 -0.809549,0.20636 z m 0,-0.29366 q 0.361122,0 0.650814,-0.17064 0.29366,-0.17064 0.460332,-0.4643 0.166672,-0.29763 0.166672,-0.66272 0,-0.36113 -0.166672,-0.65479 -0.166672,-0.29762 -0.460332,-0.46826 -0.289692,-0.17064 -0.650814,-0.17064 -0.365091,0 -0.658751,0.17064 -0.289692,0.17064 -0.456364,0.46826 -0.166672,0.29366 -0.166672,0.65479 0,0.36509 0.166672,0.66272 0.166672,0.29366 0.456364,0.4643 0.29366,0.17064 0.658751,0.17064 z"
             inkscape:connector-curvature="0" />
          <path
             id="path11309"
             style="letter-spacing:0.54768753px;fill:#f9f9f9;stroke-width:0.37203562"
             d="m 63.436002,262.08368 q 0.06349,0 0.09921,0.0397 0.03968,0.0397 0.03968,0.0992 0,0.0397 -0.01984,0.0873 l -1.182577,2.77389 q -0.04365,0.0992 -0.138893,0.0992 -0.05159,0 -0.08731,-0.0198 -0.03175,-0.0238 -0.05556,-0.0794 l -1.178609,-2.75802 q -0.02381,-0.0595 -0.02381,-0.10318 0,-0.0635 0.03968,-0.0992 0.04365,-0.0397 0.111114,-0.0397 0.103178,0 0.142862,0.0992 l 1.051621,2.51595 1.047652,-2.50801 q 0.02381,-0.0595 0.05953,-0.0833 0.03572,-0.0238 0.09524,-0.0238 z"
             inkscape:connector-curvature="0" />
          <path
             id="path11311"
             style="letter-spacing:0.54768753px;fill:#f9f9f9;stroke-width:0.37203562"
             d="m 66.621173,264.96472 q 0.01587,0.0278 0.01587,0.0635 0,0.0635 -0.04762,0.11111 -0.04365,0.0437 -0.107146,0.0437 -0.103178,0 -0.14683,-0.0952 l -0.265882,-0.64288 h -1.535762 l -0.265882,0.64288 q -0.03175,0.0952 -0.142862,0.0952 -0.06746,0 -0.111114,-0.0437 -0.03968,-0.0476 -0.03968,-0.11111 0,-0.0397 0.0119,-0.0675 l 1.166704,-2.76992 q 0.04365,-0.10715 0.150798,-0.10715 0.107146,0 0.14683,0.10715 z m -1.976253,-0.78574 h 1.317502 l -0.658751,-1.59132 z"
             inkscape:connector-curvature="0" />
          <path
             id="path11313"
             style="letter-spacing:0.54768753px;fill:#f9f9f9;stroke-width:0.37203562"
             d="m 69.40895,262.08368 q 0.06349,0 0.103178,0.0397 0.03968,0.0397 0.03968,0.10318 0,0.0595 -0.03968,0.0992 -0.03968,0.0397 -0.103178,0.0397 h -0.944474 v 2.66279 q 0,0.0635 -0.04365,0.11111 -0.04365,0.0437 -0.111115,0.0437 -0.06349,0 -0.111115,-0.0437 -0.04365,-0.0476 -0.04365,-0.11111 v -2.66279 H 67.21444 q -0.06349,0 -0.103178,-0.0397 -0.03968,-0.0397 -0.03968,-0.0992 0,-0.0635 0.03968,-0.10318 0.03968,-0.0397 0.103178,-0.0397 z"
             inkscape:connector-curvature="0" />
          <path
             id="path11315"
             style="letter-spacing:0.54768753px;fill:#f9f9f9;stroke-width:0.37203562"
             d="m 70.70784,265.18298 q -0.0635,0 -0.111115,-0.0437 -0.04365,-0.0476 -0.04365,-0.11111 v -2.78977 q 0,-0.0675 0.04365,-0.11112 0.04762,-0.0436 0.111115,-0.0436 0.06746,0 0.111114,0.0436 0.04365,0.0437 0.04365,0.11112 v 2.78977 q 0,0.0635 -0.04365,0.11111 -0.04365,0.0437 -0.111114,0.0437 z"
             inkscape:connector-curvature="0" />
          <path
             id="path11317"
             style="letter-spacing:0.54768753px;fill:#f9f9f9;stroke-width:0.37203562"
             d="m 73.63395,265.22267 q -0.452395,0 -0.813518,-0.20636 -0.361122,-0.20635 -0.567478,-0.56748 -0.202387,-0.36509 -0.202387,-0.81748 0,-0.4524 0.202387,-0.81352 0.206356,-0.36112 0.567478,-0.56748 0.361123,-0.20635 0.813518,-0.20635 0.448427,0 0.80955,0.20635 0.365091,0.20636 0.567478,0.56748 0.206356,0.36112 0.206356,0.81352 0,0.45239 -0.206356,0.81748 -0.202387,0.36113 -0.567478,0.56748 -0.361123,0.20636 -0.80955,0.20636 z m 0,-0.29366 q 0.361123,0 0.650815,-0.17064 0.29366,-0.17064 0.460332,-0.4643 0.166672,-0.29763 0.166672,-0.66272 0,-0.36113 -0.166672,-0.65479 -0.166672,-0.29762 -0.460332,-0.46826 -0.289692,-0.17064 -0.650815,-0.17064 -0.365091,0 -0.658751,0.17064 -0.289691,0.17064 -0.456363,0.46826 -0.166672,0.29366 -0.166672,0.65479 0,0.36509 0.166672,0.66272 0.166672,0.29366 0.456363,0.4643 0.29366,0.17064 0.658751,0.17064 z"
             inkscape:connector-curvature="0" />
          <path
             id="path11319"
             style="letter-spacing:0.54768753px;fill:#f9f9f9;stroke-width:0.37203562"
             d="m 76.56217,265.18298 q -0.06746,0 -0.111115,-0.0437 -0.04365,-0.0436 -0.04365,-0.11111 v -2.78977 q 0,-0.0675 0.04365,-0.11112 0.04365,-0.0436 0.111115,-0.0436 0.07143,0 0.119051,0.0556 l 1.896885,2.49214 v -2.39293 q 0,-0.0675 0.04365,-0.11112 0.04762,-0.0436 0.111114,-0.0436 0.06746,0 0.111115,0.0436 0.04365,0.0437 0.04365,0.11112 v 2.78977 q 0,0.0635 -0.04365,0.11111 -0.04365,0.0437 -0.111115,0.0437 -0.07937,0 -0.115083,-0.0516 l -1.900854,-2.49214 v 2.38897 q 0,0.0635 -0.04365,0.11111 -0.04365,0.0437 -0.111114,0.0437 z"
             inkscape:connector-curvature="0" />
          <path
             id="path11321"
             style="letter-spacing:0.54768753px;fill:#f9f9f9;stroke-width:0.37203562"
             d="m 81.178313,265.22267 q -0.376997,0 -0.670657,-0.15874 -0.289691,-0.1627 -0.41668,-0.43652 -0.01587,-0.0278 -0.01587,-0.0635 0,-0.0556 0.03968,-0.0913 0.04365,-0.0397 0.115083,-0.0397 0.04762,0 0.0873,0.0278 0.04365,0.0238 0.06349,0.0714 0.09127,0.17858 0.301597,0.28969 0.214293,0.10715 0.496048,0.10715 0.325407,0 0.523826,-0.15477 0.198419,-0.15873 0.198419,-0.44049 0,-0.25001 -0.186514,-0.42065 -0.182546,-0.17064 -0.551605,-0.21826 -0.460332,-0.0556 -0.726213,-0.28572 -0.261914,-0.23414 -0.261914,-0.57145 0,-0.2381 0.126989,-0.41668 0.130956,-0.18254 0.357154,-0.27779 0.230166,-0.0992 0.519858,-0.0992 0.313502,0 0.551604,0.13889 0.238103,0.13889 0.373028,0.36112 0.02778,0.0437 0.02778,0.0952 0,0.0754 -0.07143,0.11905 -0.03175,0.0159 -0.07143,0.0159 -0.04365,0 -0.08334,-0.0198 -0.03572,-0.0238 -0.05953,-0.0635 -0.222229,-0.34922 -0.670656,-0.35318 -0.321439,0 -0.507952,0.13492 -0.186514,0.13492 -0.186514,0.38493 0,0.4643 0.750023,0.56351 0.49208,0.0714 0.734151,0.3016 0.242071,0.23017 0.242071,0.60716 0,0.27779 -0.134925,0.48018 -0.134925,0.20238 -0.369059,0.30953 -0.234135,0.10318 -0.523826,0.10318 z"
             inkscape:connector-curvature="0" />
        </g>
      </g>
      <g
         id="text961"
         style="font-style:normal;font-variant:normal;font-weight:normal;font-stretch:normal;font-size:2.5952878px;line-height:1.79999995;font-family:Comfortaa;-inkscape-font-specification:Comfortaa;letter-spacing:0.01058333px;word-spacing:0px;fill:#f9f9f9;fill-opacity:1;stroke:none;stroke-width:0.24330822"
         aria-label="+55 21 98273-9265 contato@lfinnovations.com.br lfinnovations.com.br">
        <path
           id="path11333"
           style="font-style:normal;font-variant:normal;font-weight:bold;font-stretch:normal;line-height:1.79999995;font-family:'Open Sans';-inkscape-font-specification:'Open Sans Bold';letter-spacing:0.01058333px;fill:#f9f9f9;stroke-width:0.24330822"
           d="m 50.185835,280.6962 h -0.490418 v -0.27753 h 0.490418 v -0.49422 h 0.277523 v 0.49422 h 0.490418 v 0.27753 h -0.490418 v 0.48788 h -0.277523 z"
           inkscape:connector-curvature="0" />
        <path
           id="path11335"
           style="font-style:normal;font-variant:normal;font-weight:bold;font-stretch:normal;line-height:1.79999995;font-family:'Open Sans';-inkscape-font-specification:'Open Sans Bold';letter-spacing:0.01058333px;fill:#f9f9f9;stroke-width:0.24330822"
           d="m 51.852688,280.28815 q 0.268653,0 0.427057,0.1508 0.159671,0.1508 0.159671,0.41312 0,0.31047 -0.191352,0.47774 -0.191352,0.16728 -0.547443,0.16728 -0.309205,0 -0.499289,-0.10012 v -0.33835 q 0.100111,0.0532 0.23317,0.0874 0.133059,0.033 0.252179,0.033 0.358626,0 0.358626,-0.294 0,-0.28005 -0.371298,-0.28005 -0.06716,0 -0.148266,0.0139 -0.0811,0.0127 -0.131792,0.0279 l -0.155869,-0.0836 0.0697,-0.94409 h 1.004914 v 0.33201 h -0.661494 l -0.03422,0.3637 0.04435,-0.009 q 0.0773,-0.0177 0.191352,-0.0177 z"
           inkscape:connector-curvature="0" />
        <path
           id="path11337"
           style="font-style:normal;font-variant:normal;font-weight:bold;font-stretch:normal;line-height:1.79999995;font-family:'Open Sans';-inkscape-font-specification:'Open Sans Bold';letter-spacing:0.01058333px;fill:#f9f9f9;stroke-width:0.24330822"
           d="m 53.343397,280.28815 q 0.268652,0 0.427056,0.1508 0.159671,0.1508 0.159671,0.41312 0,0.31047 -0.191352,0.47774 -0.191351,0.16728 -0.547443,0.16728 -0.309204,0 -0.499289,-0.10012 v -0.33835 q 0.100111,0.0532 0.233171,0.0874 0.133059,0.033 0.252178,0.033 0.358627,0 0.358627,-0.294 0,-0.28005 -0.371299,-0.28005 -0.06716,0 -0.148266,0.0139 -0.0811,0.0127 -0.131792,0.0279 l -0.155869,-0.0836 0.0697,-0.94409 h 1.004913 v 0.33201 h -0.661494 l -0.03422,0.3637 0.04435,-0.009 q 0.0773,-0.0177 0.191352,-0.0177 z"
           inkscape:connector-curvature="0" />
        <path
           id="path11339"
           style="font-style:normal;font-variant:normal;font-weight:bold;font-stretch:normal;line-height:1.79999995;font-family:'Open Sans';-inkscape-font-specification:'Open Sans Bold';letter-spacing:0.01058333px;fill:#f9f9f9;stroke-width:0.24330822"
           d="m 56.139798,281.47174 h -1.29511 v -0.27245 l 0.465074,-0.47015 q 0.206559,-0.21162 0.26992,-0.29273 0.06336,-0.0824 0.09124,-0.15206 0.02788,-0.0697 0.02788,-0.14447 0,-0.11151 -0.06209,-0.16601 -0.06083,-0.0545 -0.163472,-0.0545 -0.107715,0 -0.209093,0.0494 -0.101379,0.0494 -0.211628,0.14066 l -0.212894,-0.25218 q 0.13686,-0.11659 0.226834,-0.16474 0.08997,-0.0482 0.19642,-0.0735 0.106448,-0.0266 0.23824,-0.0266 0.17361,0 0.30667,0.0634 0.133059,0.0634 0.206558,0.17741 0.0735,0.11405 0.0735,0.26105 0,0.12799 -0.04562,0.24078 -0.04435,0.11151 -0.139395,0.22936 -0.09378,0.11786 -0.332015,0.33582 l -0.238239,0.2243 v 0.0177 h 0.807226 z"
           inkscape:connector-curvature="0" />
        <path
           id="path11341"
           style="font-style:normal;font-variant:normal;font-weight:bold;font-stretch:normal;line-height:1.79999995;font-family:'Open Sans';-inkscape-font-specification:'Open Sans Bold';letter-spacing:0.01058333px;fill:#f9f9f9;stroke-width:0.24330822"
           d="m 57.303561,281.47174 h -0.391574 v -1.07208 l 0.0038,-0.17614 0.0063,-0.19262 q -0.09758,0.0976 -0.135593,0.12799 l -0.212895,0.17108 -0.188817,-0.23571 0.596865,-0.47521 h 0.321877 z"
           inkscape:connector-curvature="0" />
        <path
           id="path11343"
           style="font-style:normal;font-variant:normal;font-weight:bold;font-stretch:normal;line-height:1.79999995;font-family:'Open Sans';-inkscape-font-specification:'Open Sans Bold';letter-spacing:0.01058333px;fill:#f9f9f9;stroke-width:0.24330822"
           d="m 59.798361,280.4098 q 0,0.54745 -0.230636,0.81737 -0.230636,0.26992 -0.698244,0.26992 -0.164739,0 -0.249644,-0.0178 v -0.31427 q 0.106447,0.0266 0.223033,0.0266 0.19642,0 0.323143,-0.057 0.126723,-0.0583 0.193887,-0.18122 0.06716,-0.12419 0.0773,-0.34088 h -0.01521 q -0.0735,0.11912 -0.169809,0.16727 -0.09631,0.0482 -0.240774,0.0482 -0.242041,0 -0.381436,-0.1546 -0.139395,-0.15587 -0.139395,-0.43213 0,-0.2978 0.168541,-0.47014 0.169809,-0.17361 0.461272,-0.17361 0.205291,0 0.358626,0.0963 0.154602,0.0963 0.236972,0.28005 0.08237,0.18249 0.08237,0.43593 z m -0.670365,-0.49802 q -0.121654,0 -0.190084,0.0836 -0.06843,0.0836 -0.06843,0.24077 0,0.13433 0.06209,0.2129 0.06209,0.0786 0.188817,0.0786 0.11912,0 0.204024,-0.0773 0.08491,-0.0786 0.08491,-0.17994 0,-0.1508 -0.07984,-0.25472 -0.07857,-0.10391 -0.20149,-0.10391 z"
           inkscape:connector-curvature="0" />
        <path
           id="path11345"
           style="font-style:normal;font-variant:normal;font-weight:bold;font-stretch:normal;line-height:1.79999995;font-family:'Open Sans';-inkscape-font-specification:'Open Sans Bold';letter-spacing:0.01058333px;fill:#f9f9f9;stroke-width:0.24330822"
           d="m 60.640248,279.59497 q 0.266118,0 0.428324,0.12166 0.163472,0.12038 0.163472,0.32567 0,0.14193 -0.07857,0.25345 -0.07857,0.11025 -0.253446,0.19769 0.207826,0.11152 0.297799,0.23317 0.09124,0.12039 0.09124,0.26485 0,0.2281 -0.17868,0.3675 -0.178679,0.13813 -0.470142,0.13813 -0.304136,0 -0.477746,-0.12926 -0.173611,-0.12926 -0.173611,-0.36623 0,-0.15841 0.08364,-0.28133 0.0849,-0.12292 0.271187,-0.21669 -0.158404,-0.10011 -0.228102,-0.21417 -0.0697,-0.11405 -0.0697,-0.24964 0,-0.19895 0.16474,-0.32188 0.16474,-0.12292 0.429591,-0.12292 z m -0.288929,1.38382 q 0,0.10898 0.07603,0.16981 0.07603,0.0608 0.207826,0.0608 0.145731,0 0.217963,-0.0621 0.07223,-0.0634 0.07223,-0.16601 0,-0.0849 -0.07223,-0.1584 -0.07096,-0.0748 -0.231903,-0.15841 -0.26992,0.12419 -0.26992,0.31428 z m 0.286394,-1.09742 q -0.100111,0 -0.162205,0.0519 -0.06083,0.0507 -0.06083,0.13686 0,0.076 0.04815,0.13686 0.04942,0.0596 0.177413,0.12293 0.124188,-0.0583 0.17361,-0.11912 0.04942,-0.0608 0.04942,-0.14067 0,-0.0874 -0.06336,-0.13812 -0.06336,-0.0507 -0.162206,-0.0507 z"
           inkscape:connector-curvature="0" />
        <path
           id="path11347"
           style="font-style:normal;font-variant:normal;font-weight:bold;font-stretch:normal;line-height:1.79999995;font-family:'Open Sans';-inkscape-font-specification:'Open Sans Bold';letter-spacing:0.01058333px;fill:#f9f9f9;stroke-width:0.24330822"
           d="m 62.787381,281.47174 h -1.295109 v -0.27245 l 0.465074,-0.47015 q 0.206558,-0.21162 0.26992,-0.29273 0.06336,-0.0824 0.09124,-0.15206 0.02788,-0.0697 0.02788,-0.14447 0,-0.11151 -0.06209,-0.16601 -0.06083,-0.0545 -0.163473,-0.0545 -0.107714,0 -0.209093,0.0494 -0.101378,0.0494 -0.211627,0.14066 l -0.212895,-0.25218 q 0.136861,-0.11659 0.226834,-0.16474 0.08997,-0.0482 0.196421,-0.0735 0.106447,-0.0266 0.238239,-0.0266 0.173611,0 0.30667,0.0634 0.133059,0.0634 0.206559,0.17741 0.0735,0.11405 0.0735,0.26105 0,0.12799 -0.04562,0.24078 -0.04435,0.11151 -0.139396,0.22936 -0.09378,0.11786 -0.332014,0.33582 l -0.238239,0.2243 v 0.0177 h 0.807225 z"
           inkscape:connector-curvature="0" />
        <path
           id="path11349"
           style="font-style:normal;font-variant:normal;font-weight:bold;font-stretch:normal;line-height:1.79999995;font-family:'Open Sans';-inkscape-font-specification:'Open Sans Bold';letter-spacing:0.01058333px;fill:#f9f9f9;stroke-width:0.24330822"
           d="m 63.166729,281.47174 0.695709,-1.52068 h -0.913673 v -0.32948 h 1.329325 v 0.24585 l -0.700779,1.60431 z"
           inkscape:connector-curvature="0" />
        <path
           id="path11351"
           style="font-style:normal;font-variant:normal;font-weight:bold;font-stretch:normal;line-height:1.79999995;font-family:'Open Sans';-inkscape-font-specification:'Open Sans Bold';letter-spacing:0.01058333px;fill:#f9f9f9;stroke-width:0.24330822"
           d="m 65.696566,280.03343 q 0,0.17361 -0.10518,0.29527 -0.10518,0.12165 -0.295265,0.16727 v 0.008 q 0.2243,0.0279 0.339618,0.13686 0.115318,0.10771 0.115318,0.29146 0,0.26739 -0.193886,0.41692 -0.193887,0.14827 -0.55378,0.14827 -0.301601,0 -0.534771,-0.10012 v -0.33328 q 0.107714,0.0545 0.236972,0.0887 0.129257,0.0342 0.25598,0.0342 0.193887,0 0.286394,-0.0659 0.09251,-0.0659 0.09251,-0.21163 0,-0.13052 -0.106447,-0.18502 -0.106447,-0.0545 -0.339618,-0.0545 h -0.140662 v -0.30033 h 0.143197 q 0.215429,0 0.314273,-0.0558 0.100111,-0.057 0.100111,-0.19388 0,-0.21036 -0.263584,-0.21036 -0.09124,0 -0.186283,0.0304 -0.09378,0.0304 -0.209093,0.10518 l -0.181214,-0.26992 q 0.253446,-0.18248 0.604469,-0.18248 0.287661,0 0.453669,0.11658 0.167274,0.11659 0.167274,0.32441 z"
           inkscape:connector-curvature="0" />
        <path
           id="path11353"
           style="font-style:normal;font-variant:normal;font-weight:bold;font-stretch:normal;line-height:1.79999995;font-family:'Open Sans';-inkscape-font-specification:'Open Sans Bold';letter-spacing:0.01058333px;fill:#f9f9f9;stroke-width:0.24330822"
           d="m 65.937786,280.93444 v -0.31681 h 0.680503 v 0.31681 z"
           inkscape:connector-curvature="0" />
        <path
           id="path11355"
           style="font-style:normal;font-variant:normal;font-weight:bold;font-stretch:normal;line-height:1.79999995;font-family:'Open Sans';-inkscape-font-specification:'Open Sans Bold';letter-spacing:0.01058333px;fill:#f9f9f9;stroke-width:0.24330822"
           d="m 68.098858,280.4098 q 0,0.54745 -0.230636,0.81737 -0.230635,0.26992 -0.698243,0.26992 -0.16474,0 -0.249645,-0.0178 v -0.31427 q 0.106447,0.0266 0.223033,0.0266 0.19642,0 0.323143,-0.057 0.126723,-0.0583 0.193887,-0.18122 0.06716,-0.12419 0.0773,-0.34088 h -0.01521 q -0.0735,0.11912 -0.169809,0.16727 -0.09631,0.0482 -0.240774,0.0482 -0.242041,0 -0.381436,-0.1546 -0.139395,-0.15587 -0.139395,-0.43213 0,-0.2978 0.168541,-0.47014 0.169809,-0.17361 0.461272,-0.17361 0.205291,0 0.358626,0.0963 0.154602,0.0963 0.236972,0.28005 0.08237,0.18249 0.08237,0.43593 z m -0.670364,-0.49802 q -0.121655,0 -0.190085,0.0836 -0.06843,0.0836 -0.06843,0.24077 0,0.13433 0.06209,0.2129 0.06209,0.0786 0.188817,0.0786 0.11912,0 0.204024,-0.0773 0.0849,-0.0786 0.0849,-0.17994 0,-0.1508 -0.07984,-0.25472 -0.07857,-0.10391 -0.201489,-0.10391 z"
           inkscape:connector-curvature="0" />
        <path
           id="path11357"
           style="font-style:normal;font-variant:normal;font-weight:bold;font-stretch:normal;line-height:1.79999995;font-family:'Open Sans';-inkscape-font-specification:'Open Sans Bold';letter-spacing:0.01058333px;fill:#f9f9f9;stroke-width:0.24330822"
           d="m 69.597171,281.47174 h -1.295109 v -0.27245 l 0.465073,-0.47015 q 0.206559,-0.21162 0.26992,-0.29273 0.06336,-0.0824 0.09124,-0.15206 0.02788,-0.0697 0.02788,-0.14447 0,-0.11151 -0.06209,-0.16601 -0.06083,-0.0545 -0.163473,-0.0545 -0.107715,0 -0.209093,0.0494 -0.101379,0.0494 -0.211628,0.14066 l -0.212894,-0.25218 q 0.136861,-0.11659 0.226834,-0.16474 0.08997,-0.0482 0.196421,-0.0735 0.106447,-0.0266 0.238239,-0.0266 0.173611,0 0.30667,0.0634 0.133059,0.0634 0.206558,0.17741 0.0735,0.11405 0.0735,0.26105 0,0.12799 -0.04562,0.24078 -0.04435,0.11151 -0.139395,0.22936 -0.09377,0.11786 -0.332014,0.33582 l -0.23824,0.2243 v 0.0177 h 0.807226 z"
           inkscape:connector-curvature="0" />
        <path
           id="path11359"
           style="font-style:normal;font-variant:normal;font-weight:bold;font-stretch:normal;line-height:1.79999995;font-family:'Open Sans';-inkscape-font-specification:'Open Sans Bold';letter-spacing:0.01058333px;fill:#f9f9f9;stroke-width:0.24330822"
           d="m 69.780097,280.68479 q 0,-0.54998 0.231903,-0.81863 0.23317,-0.26865 0.696977,-0.26865 0.158403,0 0.248377,0.019 v 0.313 q -0.112784,-0.0253 -0.223033,-0.0253 -0.201489,0 -0.32948,0.0608 -0.126723,0.0608 -0.190084,0.17995 -0.06336,0.11912 -0.07477,0.33835 h 0.01647 q 0.125456,-0.21543 0.401712,-0.21543 0.248377,0 0.38904,0.15587 0.140662,0.15587 0.140662,0.43086 0,0.29653 -0.167274,0.47014 -0.167274,0.17235 -0.463806,0.17235 -0.205292,0 -0.358626,-0.0951 -0.152068,-0.095 -0.235705,-0.27752 -0.08237,-0.18248 -0.08237,-0.43973 z m 0.669097,0.49929 q 0.125456,0 0.192619,-0.0836 0.06716,-0.0849 0.06716,-0.24077 0,-0.1356 -0.06336,-0.2129 -0.06209,-0.0786 -0.188817,-0.0786 -0.11912,0 -0.204024,0.0773 -0.08364,0.0773 -0.08364,0.17994 0,0.1508 0.07857,0.25472 0.07984,0.10391 0.201489,0.10391 z"
           inkscape:connector-curvature="0" />
        <path
           id="path11361"
           style="font-style:normal;font-variant:normal;font-weight:bold;font-stretch:normal;line-height:1.79999995;font-family:'Open Sans';-inkscape-font-specification:'Open Sans Bold';letter-spacing:0.01058333px;fill:#f9f9f9;stroke-width:0.24330822"
           d="m 71.957645,280.28815 q 0.268653,0 0.427057,0.1508 0.159671,0.1508 0.159671,0.41312 0,0.31047 -0.191352,0.47774 -0.191352,0.16728 -0.547444,0.16728 -0.309204,0 -0.499289,-0.10012 v -0.33835 q 0.100112,0.0532 0.233171,0.0874 0.133059,0.033 0.252179,0.033 0.358626,0 0.358626,-0.294 0,-0.28005 -0.371299,-0.28005 -0.06716,0 -0.148266,0.0139 -0.0811,0.0127 -0.131792,0.0279 l -0.155869,-0.0836 0.0697,-0.94409 h 1.004914 v 0.33201 h -0.661495 l -0.03422,0.3637 0.04435,-0.009 q 0.0773,-0.0177 0.191352,-0.0177 z"
           inkscape:connector-curvature="0" />
        <path
           id="path11363"
           style="font-style:normal;font-variant:normal;font-weight:bold;font-stretch:normal;line-height:1.79999995;font-family:'Open Sans';-inkscape-font-specification:'Open Sans Bold';letter-spacing:0.01058333px;fill:#f9f9f9;stroke-width:0.24330822"
           d="m 50.36198,286.24409 q -0.661494,0 -0.661494,-0.72612 0,-0.36117 0.179946,-0.55125 0.179947,-0.19135 0.515763,-0.19135 0.245843,0 0.440996,0.0963 l -0.11405,0.29906 q -0.09124,-0.0368 -0.169809,-0.0596 -0.07857,-0.0241 -0.157137,-0.0241 -0.301601,0 -0.301601,0.42832 0,0.41565 0.301601,0.41565 0.111516,0 0.206559,-0.0291 0.09504,-0.0304 0.190084,-0.0938 v 0.33075 q -0.09378,0.0596 -0.190084,0.0824 -0.09504,0.0228 -0.240774,0.0228 z"
           inkscape:connector-curvature="0" />
        <path
           id="path11365"
           style="font-style:normal;font-variant:normal;font-weight:bold;font-stretch:normal;line-height:1.79999995;font-family:'Open Sans';-inkscape-font-specification:'Open Sans Bold';letter-spacing:0.01058333px;fill:#f9f9f9;stroke-width:0.24330822"
           d="m 51.438304,285.50783 q 0,0.21036 0.06843,0.31807 0.0697,0.10772 0.225567,0.10772 0.154602,0 0.221766,-0.10645 0.06843,-0.10771 0.06843,-0.31934 0,-0.21036 -0.06843,-0.31554 -0.06843,-0.10518 -0.2243,-0.10518 -0.154602,0 -0.223033,0.10518 -0.06843,0.10391 -0.06843,0.31554 z m 0.979569,0 q 0,0.34595 -0.182481,0.5411 -0.182481,0.19516 -0.50816,0.19516 -0.204024,0 -0.359893,-0.0887 -0.155869,-0.09 -0.239507,-0.25725 -0.08364,-0.16727 -0.08364,-0.3903 0,-0.34722 0.181214,-0.53984 0.181214,-0.19262 0.509427,-0.19262 0.204024,0 0.359893,0.0887 0.15587,0.0887 0.239507,0.25472 0.08364,0.16601 0.08364,0.38904 z"
           inkscape:connector-curvature="0" />
        <path
           id="path11367"
           style="font-style:normal;font-variant:normal;font-weight:bold;font-stretch:normal;line-height:1.79999995;font-family:'Open Sans';-inkscape-font-specification:'Open Sans Bold';letter-spacing:0.01058333px;fill:#f9f9f9;stroke-width:0.24330822"
           d="m 54.05558,286.21874 h -0.386505 v -0.8275 q 0,-0.15333 -0.05449,-0.22937 -0.05449,-0.0773 -0.173611,-0.0773 -0.162205,0 -0.234437,0.10898 -0.07223,0.10772 -0.07223,0.35863 v 0.66656 h -0.386506 v -1.41676 h 0.295265 l 0.05196,0.18121 h 0.02154 q 0.06463,-0.10264 0.177413,-0.1546 0.11405,-0.0532 0.258515,-0.0532 0.24711,0 0.3751,0.13432 0.12799,0.13306 0.12799,0.38524 z"
           inkscape:connector-curvature="0" />
        <path
           id="path11369"
           style="font-style:normal;font-variant:normal;font-weight:bold;font-stretch:normal;line-height:1.79999995;font-family:'Open Sans';-inkscape-font-specification:'Open Sans Bold';letter-spacing:0.01058333px;fill:#f9f9f9;stroke-width:0.24330822"
           d="m 55.063474,285.93615 q 0.101378,0 0.243308,-0.0444 v 0.28766 q -0.144464,0.0646 -0.354824,0.0646 -0.231903,0 -0.338351,-0.11659 -0.10518,-0.11785 -0.10518,-0.35229 v -0.68303 h -0.185016 v -0.16348 l 0.212895,-0.12925 0.111516,-0.29907 h 0.24711 v 0.3016 h 0.396643 v 0.2902 h -0.396643 v 0.68303 q 0,0.0824 0.04562,0.12166 0.04689,0.0393 0.122921,0.0393 z"
           inkscape:connector-curvature="0" />
        <path
           id="path11371"
           style="font-style:normal;font-variant:normal;font-weight:bold;font-stretch:normal;line-height:1.79999995;font-family:'Open Sans';-inkscape-font-specification:'Open Sans Bold';letter-spacing:0.01058333px;fill:#f9f9f9;stroke-width:0.24330822"
           d="m 56.502226,286.21874 -0.07477,-0.19262 h -0.01014 q -0.09758,0.12293 -0.201489,0.17108 -0.102646,0.0469 -0.268653,0.0469 -0.204024,0 -0.321877,-0.11659 -0.116585,-0.11658 -0.116585,-0.33201 0,-0.22557 0.157137,-0.33202 0.158404,-0.10771 0.476478,-0.11912 l 0.245843,-0.008 v -0.0621 q 0,-0.21543 -0.220498,-0.21543 -0.169809,0 -0.399178,0.10264 l -0.12799,-0.26105 q 0.244576,-0.12799 0.542375,-0.12799 0.285127,0 0.437194,0.12419 0.152068,0.12419 0.152068,0.37764 v 0.94408 z m -0.114051,-0.65642 -0.149533,0.005 q -0.168542,0.005 -0.250912,0.0608 -0.08237,0.0558 -0.08237,0.16981 0,0.16348 0.18755,0.16348 0.134327,0 0.214162,-0.0773 0.0811,-0.0773 0.0811,-0.2053 z"
           inkscape:connector-curvature="0" />
        <path
           id="path11373"
           style="font-style:normal;font-variant:normal;font-weight:bold;font-stretch:normal;line-height:1.79999995;font-family:'Open Sans';-inkscape-font-specification:'Open Sans Bold';letter-spacing:0.01058333px;fill:#f9f9f9;stroke-width:0.24330822"
           d="m 57.776238,285.93615 q 0.101378,0 0.243308,-0.0444 v 0.28766 q -0.144464,0.0646 -0.354824,0.0646 -0.231904,0 -0.338351,-0.11659 -0.10518,-0.11785 -0.10518,-0.35229 v -0.68303 h -0.185016 v -0.16348 l 0.212895,-0.12925 0.111516,-0.29907 h 0.24711 v 0.3016 h 0.396643 v 0.2902 h -0.396643 v 0.68303 q 0,0.0824 0.04562,0.12166 0.04689,0.0393 0.122922,0.0393 z"
           inkscape:connector-curvature="0" />
        <path
           id="path11375"
           style="font-style:normal;font-variant:normal;font-weight:bold;font-stretch:normal;line-height:1.79999995;font-family:'Open Sans';-inkscape-font-specification:'Open Sans Bold';letter-spacing:0.01058333px;fill:#f9f9f9;stroke-width:0.24330822"
           d="m 58.623193,285.50783 q 0,0.21036 0.06843,0.31807 0.0697,0.10772 0.225567,0.10772 0.154602,0 0.221765,-0.10645 0.06843,-0.10771 0.06843,-0.31934 0,-0.21036 -0.06843,-0.31554 -0.06843,-0.10518 -0.2243,-0.10518 -0.154602,0 -0.223032,0.10518 -0.06843,0.10391 -0.06843,0.31554 z m 0.979569,0 q 0,0.34595 -0.182481,0.5411 -0.182481,0.19516 -0.508159,0.19516 -0.204024,0 -0.359894,-0.0887 -0.155869,-0.09 -0.239506,-0.25725 -0.08364,-0.16727 -0.08364,-0.3903 0,-0.34722 0.181214,-0.53984 0.181214,-0.19262 0.509427,-0.19262 0.204024,0 0.359893,0.0887 0.15587,0.0887 0.239507,0.25472 0.08364,0.16601 0.08364,0.38904 z"
           inkscape:connector-curvature="0" />
        <path
           id="path11377"
           style="font-style:normal;font-variant:normal;font-weight:bold;font-stretch:normal;line-height:1.79999995;font-family:'Open Sans';-inkscape-font-specification:'Open Sans Bold';letter-spacing:0.01058333px;fill:#f9f9f9;stroke-width:0.24330822"
           d="m 61.928576,285.26579 q 0,0.18248 -0.05829,0.33455 -0.05829,0.1508 -0.16474,0.23697 -0.106447,0.0862 -0.24711,0.0862 -0.09378,0 -0.166007,-0.0444 -0.07223,-0.0456 -0.103913,-0.11912 h -0.02028 q -0.136861,0.16347 -0.348488,0.16347 -0.2243,0 -0.353557,-0.13433 -0.129258,-0.13559 -0.129258,-0.37003 0,-0.26738 0.169809,-0.43086 0.169809,-0.16347 0.443531,-0.16347 0.108982,0 0.239506,0.0215 0.131792,0.0203 0.216697,0.0494 l -0.02915,0.61967 q 0,0.17615 0.09631,0.17615 0.0811,0 0.129257,-0.11786 0.04816,-0.11912 0.04816,-0.31047 0,-0.20402 -0.0849,-0.35989 -0.0849,-0.15714 -0.239507,-0.23951 -0.153335,-0.0824 -0.351023,-0.0824 -0.25598,0 -0.444798,0.10518 -0.188817,0.10518 -0.290195,0.30414 -0.100111,0.19769 -0.100111,0.45747 0,0.34975 0.186282,0.5373 0.18755,0.18629 0.542375,0.18629 0.134326,0 0.295265,-0.0291 0.160938,-0.0304 0.316807,-0.0874 v 0.24331 q -0.271187,0.11532 -0.601934,0.11532 -0.481548,0 -0.751468,-0.25345 -0.268653,-0.25344 -0.268653,-0.70458 0,-0.313 0.136861,-0.56772 0.138128,-0.25598 0.391574,-0.40044 0.254714,-0.14573 0.585461,-0.14573 0.278791,0 0.498021,0.11405 0.219231,0.11405 0.338351,0.32441 0.11912,0.21036 0.11912,0.48535 z m -1.297644,0.1584 q 0,0.26739 0.217963,0.26739 0.114051,0 0.173611,-0.0798 0.05956,-0.0811 0.07223,-0.26232 l 0.01647,-0.28005 q -0.06463,-0.0139 -0.145732,-0.0139 -0.158403,0 -0.247109,0.0988 -0.08744,0.0988 -0.08744,0.26992 z"
           inkscape:connector-curvature="0" />
        <path
           id="path11379"
           style="font-style:normal;font-variant:normal;font-weight:bold;font-stretch:normal;line-height:1.79999995;font-family:'Open Sans';-inkscape-font-specification:'Open Sans Bold';letter-spacing:0.01058333px;fill:#f9f9f9;stroke-width:0.24330822"
           d="m 62.656411,286.21874 h -0.386505 v -1.97181 h 0.386505 z"
           inkscape:connector-curvature="0" />
        <path
           id="path11381"
           style="font-style:normal;font-variant:normal;font-weight:bold;font-stretch:normal;line-height:1.79999995;font-family:'Open Sans';-inkscape-font-specification:'Open Sans Bold';letter-spacing:0.01058333px;fill:#f9f9f9;stroke-width:0.24330822"
           d="M 63.854389,285.09218 H 63.51984 v 1.12656 h -0.386505 v -1.12656 H 62.92044 v -0.18629 l 0.212895,-0.10391 v -0.10391 q 0,-0.24204 0.119119,-0.35356 0.11912,-0.11152 0.381437,-0.11152 0.200222,0 0.356091,0.0596 l -0.09884,0.28386 q -0.116585,-0.0367 -0.215429,-0.0367 -0.08237,0 -0.119119,0.0494 -0.03675,0.0482 -0.03675,0.12418 v 0.0887 h 0.334549 z m 0.205291,-0.65643 q 0,-0.18882 0.21036,-0.18882 0.210361,0 0.210361,0.18882 0,0.09 -0.05322,0.14066 -0.05196,0.0494 -0.157137,0.0494 -0.21036,0 -0.21036,-0.19009 z m 0.402979,1.78299 h -0.386505 v -1.41676 h 0.386505 z"
           inkscape:connector-curvature="0" />
        <path
           id="path11383"
           style="font-style:normal;font-variant:normal;font-weight:bold;font-stretch:normal;line-height:1.79999995;font-family:'Open Sans';-inkscape-font-specification:'Open Sans Bold';letter-spacing:0.01058333px;fill:#f9f9f9;stroke-width:0.24330822"
           d="m 66.194587,286.21874 h -0.386505 v -0.8275 q 0,-0.15333 -0.05449,-0.22937 -0.05449,-0.0773 -0.17361,-0.0773 -0.162206,0 -0.234438,0.10898 -0.07223,0.10772 -0.07223,0.35863 v 0.66656 h -0.386505 v -1.41676 h 0.295264 l 0.05196,0.18121 h 0.02154 q 0.06463,-0.10264 0.177412,-0.1546 0.114051,-0.0532 0.258515,-0.0532 0.24711,0 0.3751,0.13432 0.12799,0.13306 0.12799,0.38524 z"
           inkscape:connector-curvature="0" />
        <path
           id="path11385"
           style="font-style:normal;font-variant:normal;font-weight:bold;font-stretch:normal;line-height:1.79999995;font-family:'Open Sans';-inkscape-font-specification:'Open Sans Bold';letter-spacing:0.01058333px;fill:#f9f9f9;stroke-width:0.24330822"
           d="m 67.913397,286.21874 h -0.386505 v -0.8275 q 0,-0.15333 -0.05449,-0.22937 -0.05449,-0.0773 -0.17361,-0.0773 -0.162206,0 -0.234438,0.10898 -0.07223,0.10772 -0.07223,0.35863 v 0.66656 h -0.386505 v -1.41676 h 0.295264 l 0.05196,0.18121 h 0.02154 q 0.06463,-0.10264 0.177412,-0.1546 0.114051,-0.0532 0.258515,-0.0532 0.24711,0 0.3751,0.13432 0.12799,0.13306 0.12799,0.38524 z"
           inkscape:connector-curvature="0" />
        <path
           id="path11387"
           style="font-style:normal;font-variant:normal;font-weight:bold;font-stretch:normal;line-height:1.79999995;font-family:'Open Sans';-inkscape-font-specification:'Open Sans Bold';letter-spacing:0.01058333px;fill:#f9f9f9;stroke-width:0.24330822"
           d="m 68.632362,285.50783 q 0,0.21036 0.06843,0.31807 0.0697,0.10772 0.225567,0.10772 0.154602,0 0.221765,-0.10645 0.06843,-0.10771 0.06843,-0.31934 0,-0.21036 -0.06843,-0.31554 -0.06843,-0.10518 -0.224299,-0.10518 -0.154602,0 -0.223033,0.10518 -0.06843,0.10391 -0.06843,0.31554 z m 0.979569,0 q 0,0.34595 -0.182481,0.5411 -0.182482,0.19516 -0.50816,0.19516 -0.204024,0 -0.359893,-0.0887 -0.15587,-0.09 -0.239507,-0.25725 -0.08364,-0.16727 -0.08364,-0.3903 0,-0.34722 0.181214,-0.53984 0.181214,-0.19262 0.509427,-0.19262 0.204024,0 0.359893,0.0887 0.155869,0.0887 0.239507,0.25472 0.08364,0.16601 0.08364,0.38904 z"
           inkscape:connector-curvature="0" />
        <path
           id="path11389"
           style="font-style:normal;font-variant:normal;font-weight:bold;font-stretch:normal;line-height:1.79999995;font-family:'Open Sans';-inkscape-font-specification:'Open Sans Bold';letter-spacing:0.01058333px;fill:#f9f9f9;stroke-width:0.24330822"
           d="m 70.27894,286.21874 -0.53984,-1.41676 h 0.404246 l 0.273722,0.80723 q 0.04562,0.15333 0.05702,0.29019 h 0.0076 q 0.0063,-0.12165 0.05703,-0.29019 l 0.272454,-0.80723 h 0.404247 l -0.53984,1.41676 z"
           inkscape:connector-curvature="0" />
        <path
           id="path11391"
           style="font-style:normal;font-variant:normal;font-weight:bold;font-stretch:normal;line-height:1.79999995;font-family:'Open Sans';-inkscape-font-specification:'Open Sans Bold';letter-spacing:0.01058333px;fill:#f9f9f9;stroke-width:0.24330822"
           d="m 72.327229,286.21874 -0.07477,-0.19262 h -0.01014 q -0.09758,0.12293 -0.20149,0.17108 -0.102645,0.0469 -0.268652,0.0469 -0.204024,0 -0.321877,-0.11659 -0.116585,-0.11658 -0.116585,-0.33201 0,-0.22557 0.157136,-0.33202 0.158404,-0.10771 0.476479,-0.11912 l 0.245843,-0.008 v -0.0621 q 0,-0.21543 -0.220498,-0.21543 -0.169809,0 -0.399178,0.10264 l -0.12799,-0.26105 q 0.244575,-0.12799 0.542374,-0.12799 0.285127,0 0.437195,0.12419 0.152068,0.12419 0.152068,0.37764 v 0.94408 z m -0.11405,-0.65642 -0.149533,0.005 q -0.168542,0.005 -0.250912,0.0608 -0.08237,0.0558 -0.08237,0.16981 0,0.16348 0.18755,0.16348 0.134327,0 0.214162,-0.0773 0.0811,-0.0773 0.0811,-0.2053 z"
           inkscape:connector-curvature="0" />
        <path
           id="path11393"
           style="font-style:normal;font-variant:normal;font-weight:bold;font-stretch:normal;line-height:1.79999995;font-family:'Open Sans';-inkscape-font-specification:'Open Sans Bold';letter-spacing:0.01058333px;fill:#f9f9f9;stroke-width:0.24330822"
           d="m 73.601243,285.93615 q 0.101378,0 0.243308,-0.0444 v 0.28766 q -0.144464,0.0646 -0.354824,0.0646 -0.231904,0 -0.338351,-0.11659 -0.10518,-0.11785 -0.10518,-0.35229 V 285.0921 H 72.86118 v -0.16348 l 0.212895,-0.12925 0.111516,-0.29907 h 0.24711 v 0.3016 h 0.396643 v 0.2902 h -0.396643 v 0.68303 q 0,0.0824 0.04562,0.12166 0.04689,0.0393 0.122921,0.0393 z"
           inkscape:connector-curvature="0" />
        <path
           id="path11395"
           style="font-style:normal;font-variant:normal;font-weight:bold;font-stretch:normal;line-height:1.79999995;font-family:'Open Sans';-inkscape-font-specification:'Open Sans Bold';letter-spacing:0.01058333px;fill:#f9f9f9;stroke-width:0.24330822"
           d="m 74.123787,284.43575 q 0,-0.18882 0.21036,-0.18882 0.21036,0 0.21036,0.18882 0,0.09 -0.05322,0.14066 -0.05196,0.0494 -0.157136,0.0494 -0.21036,0 -0.21036,-0.19009 z m 0.402979,1.78299 h -0.386505 v -1.41676 h 0.386505 z"
           inkscape:connector-curvature="0" />
        <path
           id="path11397"
           style="font-style:normal;font-variant:normal;font-weight:bold;font-stretch:normal;line-height:1.79999995;font-family:'Open Sans';-inkscape-font-specification:'Open Sans Bold';letter-spacing:0.01058333px;fill:#f9f9f9;stroke-width:0.24330822"
           d="m 75.249532,285.50783 q 0,0.21036 0.06843,0.31807 0.0697,0.10772 0.225567,0.10772 0.154603,0 0.221766,-0.10645 0.06843,-0.10771 0.06843,-0.31934 0,-0.21036 -0.06843,-0.31554 -0.06843,-0.10518 -0.2243,-0.10518 -0.154602,0 -0.223033,0.10518 -0.06843,0.10391 -0.06843,0.31554 z m 0.979569,0 q 0,0.34595 -0.182481,0.5411 -0.182481,0.19516 -0.508159,0.19516 -0.204025,0 -0.359894,-0.0887 -0.155869,-0.09 -0.239506,-0.25725 -0.08364,-0.16727 -0.08364,-0.3903 0,-0.34722 0.181214,-0.53984 0.181214,-0.19262 0.509427,-0.19262 0.204024,0 0.359893,0.0887 0.15587,0.0887 0.239507,0.25472 0.08364,0.16601 0.08364,0.38904 z"
           inkscape:connector-curvature="0" />
        <path
           id="path11399"
           style="font-style:normal;font-variant:normal;font-weight:bold;font-stretch:normal;line-height:1.79999995;font-family:'Open Sans';-inkscape-font-specification:'Open Sans Bold';letter-spacing:0.01058333px;fill:#f9f9f9;stroke-width:0.24330822"
           d="m 77.866808,286.21874 h -0.386505 v -0.8275 q 0,-0.15333 -0.05449,-0.22937 -0.05449,-0.0773 -0.17361,-0.0773 -0.162206,0 -0.234438,0.10898 -0.07223,0.10772 -0.07223,0.35863 v 0.66656 H 76.55903 v -1.41676 h 0.295264 l 0.05196,0.18121 h 0.02154 q 0.06463,-0.10264 0.177412,-0.1546 0.114051,-0.0532 0.258515,-0.0532 0.24711,0 0.3751,0.13432 0.12799,0.13306 0.12799,0.38524 z"
           inkscape:connector-curvature="0" />
        <path
           id="path11401"
           style="font-style:normal;font-variant:normal;font-weight:bold;font-stretch:normal;line-height:1.79999995;font-family:'Open Sans';-inkscape-font-specification:'Open Sans Bold';letter-spacing:0.01058333px;fill:#f9f9f9;stroke-width:0.24330822"
           d="m 79.266276,285.79802 q 0,0.21797 -0.152068,0.33202 -0.150801,0.11405 -0.452401,0.11405 -0.154602,0 -0.263584,-0.0215 -0.108982,-0.0203 -0.204024,-0.0608 v -0.31934 q 0.107714,0.0507 0.242041,0.0849 0.135593,0.0342 0.238239,0.0342 0.21036,0 0.21036,-0.12166 0,-0.0456 -0.02788,-0.0735 -0.02788,-0.0291 -0.09631,-0.0646 -0.06843,-0.0367 -0.182482,-0.0849 -0.163472,-0.0684 -0.240773,-0.12672 -0.07603,-0.0583 -0.111517,-0.13306 -0.03422,-0.076 -0.03422,-0.18629 0,-0.18881 0.145732,-0.29146 0.146998,-0.10391 0.415651,-0.10391 0.255981,0 0.498022,0.11151 l -0.116585,0.2788 q -0.106448,-0.0456 -0.198956,-0.0748 -0.09251,-0.0292 -0.188817,-0.0292 -0.171076,0 -0.171076,0.0925 0,0.052 0.05449,0.09 0.05576,0.038 0.242041,0.11279 0.166007,0.0672 0.243308,0.12545 0.0773,0.0583 0.114051,0.13433 0.03675,0.076 0.03675,0.18121 z"
           inkscape:connector-curvature="0" />
        <path
           id="path11403"
           style="font-style:normal;font-variant:normal;font-weight:bold;font-stretch:normal;line-height:1.79999995;font-family:'Open Sans';-inkscape-font-specification:'Open Sans Bold';letter-spacing:0.01058333px;fill:#f9f9f9;stroke-width:0.24330822"
           d="m 79.526505,286.03753 q 0,-0.10645 0.05702,-0.16094 0.05703,-0.0545 0.166007,-0.0545 0.10518,0 0.162206,0.0558 0.05829,0.0558 0.05829,0.15967 0,0.10011 -0.05829,0.1584 -0.05829,0.057 -0.162206,0.057 -0.106447,0 -0.16474,-0.0558 -0.05829,-0.057 -0.05829,-0.15967 z"
           inkscape:connector-curvature="0" />
        <path
           id="path11405"
           style="font-style:normal;font-variant:normal;font-weight:bold;font-stretch:normal;line-height:1.79999995;font-family:'Open Sans';-inkscape-font-specification:'Open Sans Bold';letter-spacing:0.01058333px;fill:#f9f9f9;stroke-width:0.24330822"
           d="m 80.906963,286.24409 q -0.661494,0 -0.661494,-0.72612 0,-0.36117 0.179946,-0.55125 0.179947,-0.19135 0.515763,-0.19135 0.245843,0 0.440996,0.0963 l -0.114051,0.29906 q -0.09124,-0.0368 -0.169808,-0.0596 -0.07857,-0.0241 -0.157137,-0.0241 -0.301601,0 -0.301601,0.42832 0,0.41565 0.301601,0.41565 0.111516,0 0.206559,-0.0291 0.09504,-0.0304 0.190084,-0.0938 v 0.33075 q -0.09378,0.0596 -0.190084,0.0824 -0.09504,0.0228 -0.240774,0.0228 z"
           inkscape:connector-curvature="0" />
        <path
           id="path11407"
           style="font-style:normal;font-variant:normal;font-weight:bold;font-stretch:normal;line-height:1.79999995;font-family:'Open Sans';-inkscape-font-specification:'Open Sans Bold';letter-spacing:0.01058333px;fill:#f9f9f9;stroke-width:0.24330822"
           d="m 81.983287,285.50783 q 0,0.21036 0.06843,0.31807 0.0697,0.10772 0.225567,0.10772 0.154602,0 0.221765,-0.10645 0.06843,-0.10771 0.06843,-0.31934 0,-0.21036 -0.06843,-0.31554 -0.06843,-0.10518 -0.2243,-0.10518 -0.154602,0 -0.223032,0.10518 -0.06843,0.10391 -0.06843,0.31554 z m 0.979569,0 q 0,0.34595 -0.182481,0.5411 -0.182481,0.19516 -0.508159,0.19516 -0.204024,0 -0.359894,-0.0887 -0.155869,-0.09 -0.239506,-0.25725 -0.08364,-0.16727 -0.08364,-0.3903 0,-0.34722 0.181213,-0.53984 0.181214,-0.19262 0.509427,-0.19262 0.204024,0 0.359893,0.0887 0.15587,0.0887 0.239507,0.25472 0.08364,0.16601 0.08364,0.38904 z"
           inkscape:connector-curvature="0" />
        <path
           id="path11409"
           style="font-style:normal;font-variant:normal;font-weight:bold;font-stretch:normal;line-height:1.79999995;font-family:'Open Sans';-inkscape-font-specification:'Open Sans Bold';letter-spacing:0.01058333px;fill:#f9f9f9;stroke-width:0.24330822"
           d="m 84.561281,286.21874 h -0.386505 v -0.8275 q 0,-0.15333 -0.05196,-0.22937 -0.05069,-0.0773 -0.160939,-0.0773 -0.148266,0 -0.215429,0.10898 -0.06716,0.10899 -0.06716,0.35863 v 0.66656 h -0.386505 v -1.41676 h 0.295264 l 0.05196,0.18121 h 0.02154 q 0.05703,-0.0976 0.16474,-0.15206 0.107714,-0.0558 0.24711,-0.0558 0.318074,0 0.430858,0.20782 h 0.03422 q 0.05703,-0.0988 0.167275,-0.15333 0.111516,-0.0545 0.250911,-0.0545 0.240774,0 0.363695,0.12419 0.124189,0.12292 0.124189,0.39537 v 0.92381 h -0.387773 v -0.8275 q 0,-0.15333 -0.05196,-0.22937 -0.05069,-0.0773 -0.160938,-0.0773 -0.14193,0 -0.212895,0.10138 -0.0697,0.10138 -0.0697,0.32188 z"
           inkscape:connector-curvature="0" />
        <path
           id="path11411"
           style="font-style:normal;font-variant:normal;font-weight:bold;font-stretch:normal;line-height:1.79999995;font-family:'Open Sans';-inkscape-font-specification:'Open Sans Bold';letter-spacing:0.01058333px;fill:#f9f9f9;stroke-width:0.24330822"
           d="m 85.798542,286.03753 q 0,-0.10645 0.05703,-0.16094 0.05702,-0.0545 0.166007,-0.0545 0.10518,0 0.162205,0.0558 0.05829,0.0558 0.05829,0.15967 0,0.10011 -0.05829,0.1584 -0.05829,0.057 -0.162205,0.057 -0.106448,0 -0.16474,-0.0558 -0.05829,-0.057 -0.05829,-0.15967 z"
           inkscape:connector-curvature="0" />
        <path
           id="path11413"
           style="font-style:normal;font-variant:normal;font-weight:bold;font-stretch:normal;line-height:1.79999995;font-family:'Open Sans';-inkscape-font-specification:'Open Sans Bold';letter-spacing:0.01058333px;fill:#f9f9f9;stroke-width:0.24330822"
           d="m 87.391895,284.77537 q 0.250912,0 0.392841,0.19642 0.14193,0.19515 0.14193,0.53604 0,0.35102 -0.146998,0.54364 -0.145732,0.19262 -0.397911,0.19262 -0.249644,0 -0.391574,-0.18122 h -0.02661 l -0.06463,0.15587 h -0.295264 v -1.97181 h 0.386505 v 0.45874 q 0,0.0874 -0.01521,0.28006 h 0.01521 q 0.135594,-0.21036 0.401712,-0.21036 z m -0.124189,0.3092 q -0.143197,0 -0.209093,0.0887 -0.0659,0.0874 -0.06843,0.29019 v 0.0418 q 0,0.2281 0.06716,0.32695 0.06843,0.0988 0.215429,0.0988 0.11912,0 0.188818,-0.10898 0.07097,-0.11025 0.07097,-0.31934 0,-0.20909 -0.07097,-0.31301 -0.07096,-0.10518 -0.193887,-0.10518 z"
           inkscape:connector-curvature="0" />
        <path
           id="path11415"
           style="font-style:normal;font-variant:normal;font-weight:bold;font-stretch:normal;line-height:1.79999995;font-family:'Open Sans';-inkscape-font-specification:'Open Sans Bold';letter-spacing:0.01058333px;fill:#f9f9f9;stroke-width:0.24330822"
           d="m 89.047345,284.77537 q 0.07857,0 0.130525,0.0114 l -0.02915,0.36243 q -0.04689,-0.0127 -0.114051,-0.0127 -0.185016,0 -0.288928,0.095 -0.102646,0.095 -0.102646,0.26612 v 0.72105 H 88.25659 v -1.41676 h 0.29273 l 0.05702,0.23824 h 0.01901 q 0.0659,-0.11912 0.177412,-0.19135 0.112783,-0.0735 0.244575,-0.0735 z"
           inkscape:connector-curvature="0" />
        <path
           id="path11417"
           style="font-style:normal;font-variant:normal;font-weight:bold;font-stretch:normal;line-height:1.79999995;font-family:'Open Sans';-inkscape-font-specification:'Open Sans Bold';letter-spacing:0.01058333px;fill:#f9f9f9;stroke-width:0.24330822"
           d="m 50.173163,290.96575 h -0.386506 v -1.97181 h 0.386506 z"
           inkscape:connector-curvature="0" />
        <path
           id="path11419"
           style="font-style:normal;font-variant:normal;font-weight:bold;font-stretch:normal;line-height:1.79999995;font-family:'Open Sans';-inkscape-font-specification:'Open Sans Bold';letter-spacing:0.01058333px;fill:#f9f9f9;stroke-width:0.24330822"
           d="m 51.371141,289.83918 h -0.334549 v 1.12657 h -0.386505 v -1.12657 h -0.212895 v -0.18628 l 0.212895,-0.10392 v -0.10391 q 0,-0.24204 0.119119,-0.35356 0.11912,-0.11151 0.381437,-0.11151 0.200222,0 0.356091,0.0596 l -0.09884,0.28386 q -0.116585,-0.0367 -0.215429,-0.0367 -0.08237,0 -0.119119,0.0494 -0.03675,0.0481 -0.03675,0.12419 v 0.0887 h 0.334549 z m 0.205291,-0.65643 q 0,-0.18881 0.21036,-0.18881 0.210361,0 0.210361,0.18881 0,0.09 -0.05322,0.14067 -0.05196,0.0494 -0.157137,0.0494 -0.21036,0 -0.21036,-0.19009 z m 0.402979,1.783 h -0.386505 v -1.41677 h 0.386505 z"
           inkscape:connector-curvature="0" />
        <path
           id="path11421"
           style="font-style:normal;font-variant:normal;font-weight:bold;font-stretch:normal;line-height:1.79999995;font-family:'Open Sans';-inkscape-font-specification:'Open Sans Bold';letter-spacing:0.01058333px;fill:#f9f9f9;stroke-width:0.24330822"
           d="m 53.711339,290.96575 h -0.386505 v -0.8275 q 0,-0.15334 -0.05449,-0.22937 -0.05449,-0.0773 -0.173611,-0.0773 -0.162205,0 -0.234437,0.10898 -0.07223,0.10771 -0.07223,0.35862 v 0.66657 H 52.40356 v -1.41677 h 0.295265 l 0.05196,0.18122 h 0.02154 q 0.06463,-0.10265 0.177413,-0.1546 0.11405,-0.0532 0.258515,-0.0532 0.247109,0 0.3751,0.13433 0.12799,0.13306 0.12799,0.38524 z"
           inkscape:connector-curvature="0" />
        <path
           id="path11423"
           style="font-style:normal;font-variant:normal;font-weight:bold;font-stretch:normal;line-height:1.79999995;font-family:'Open Sans';-inkscape-font-specification:'Open Sans Bold';letter-spacing:0.01058333px;fill:#f9f9f9;stroke-width:0.24330822"
           d="m 55.430149,290.96575 h -0.386505 v -0.8275 q 0,-0.15334 -0.05449,-0.22937 -0.05449,-0.0773 -0.173611,-0.0773 -0.162205,0 -0.234437,0.10898 -0.07223,0.10771 -0.07223,0.35862 v 0.66657 H 54.12237 v -1.41677 h 0.295265 l 0.05196,0.18122 h 0.02154 q 0.06463,-0.10265 0.177413,-0.1546 0.11405,-0.0532 0.258515,-0.0532 0.24711,0 0.3751,0.13433 0.12799,0.13306 0.12799,0.38524 z"
           inkscape:connector-curvature="0" />
        <path
           id="path11425"
           style="font-style:normal;font-variant:normal;font-weight:bold;font-stretch:normal;line-height:1.79999995;font-family:'Open Sans';-inkscape-font-specification:'Open Sans Bold';letter-spacing:0.01058333px;fill:#f9f9f9;stroke-width:0.24330822"
           d="m 56.149114,290.25483 q 0,0.21036 0.06843,0.31808 0.0697,0.10771 0.225567,0.10771 0.154602,0 0.221766,-0.10645 0.06843,-0.10771 0.06843,-0.31934 0,-0.21036 -0.06843,-0.31554 -0.06843,-0.10518 -0.2243,-0.10518 -0.154602,0 -0.223033,0.10518 -0.06843,0.10391 -0.06843,0.31554 z m 0.979569,0 q 0,0.34595 -0.182481,0.54111 -0.182481,0.19515 -0.50816,0.19515 -0.204024,0 -0.359893,-0.0887 -0.155869,-0.09 -0.239506,-0.25725 -0.08364,-0.16728 -0.08364,-0.39031 0,-0.34722 0.181214,-0.53984 0.181214,-0.19262 0.509427,-0.19262 0.204024,0 0.359893,0.0887 0.15587,0.0887 0.239507,0.25471 0.08364,0.16601 0.08364,0.38904 z"
           inkscape:connector-curvature="0" />
        <path
           id="path11427"
           style="font-style:normal;font-variant:normal;font-weight:bold;font-stretch:normal;line-height:1.79999995;font-family:'Open Sans';-inkscape-font-specification:'Open Sans Bold';letter-spacing:0.01058333px;fill:#f9f9f9;stroke-width:0.24330822"
           d="m 57.795692,290.96575 -0.53984,-1.41677 h 0.404246 l 0.273722,0.80723 q 0.04562,0.15333 0.05703,0.29019 h 0.0076 q 0.0063,-0.12165 0.05702,-0.29019 l 0.272455,-0.80723 h 0.404246 l -0.53984,1.41677 z"
           inkscape:connector-curvature="0" />
        <path
           id="path11429"
           style="font-style:normal;font-variant:normal;font-weight:bold;font-stretch:normal;line-height:1.79999995;font-family:'Open Sans';-inkscape-font-specification:'Open Sans Bold';letter-spacing:0.01058333px;fill:#f9f9f9;stroke-width:0.24330822"
           d="m 59.843982,290.96575 -0.07477,-0.19262 h -0.01014 q -0.09758,0.12292 -0.201489,0.17107 -0.102646,0.0469 -0.268653,0.0469 -0.204024,0 -0.321877,-0.11658 -0.116585,-0.11659 -0.116585,-0.33202 0,-0.22557 0.157137,-0.33201 0.158403,-0.10772 0.476478,-0.11912 l 0.245843,-0.008 v -0.0621 q 0,-0.21543 -0.220498,-0.21543 -0.169809,0 -0.399178,0.10265 l -0.12799,-0.26105 q 0.244576,-0.12799 0.542375,-0.12799 0.285127,0 0.437194,0.12419 0.152068,0.12418 0.152068,0.37763 v 0.94409 z m -0.114051,-0.65643 -0.149533,0.005 q -0.168542,0.005 -0.250912,0.0608 -0.08237,0.0558 -0.08237,0.16981 0,0.16347 0.18755,0.16347 0.134327,0 0.214162,-0.0773 0.0811,-0.0773 0.0811,-0.20529 z"
           inkscape:connector-curvature="0" />
        <path
           id="path11431"
           style="font-style:normal;font-variant:normal;font-weight:bold;font-stretch:normal;line-height:1.79999995;font-family:'Open Sans';-inkscape-font-specification:'Open Sans Bold';letter-spacing:0.01058333px;fill:#f9f9f9;stroke-width:0.24330822"
           d="m 61.117993,290.68315 q 0.101379,0 0.243308,-0.0444 v 0.28766 q -0.144464,0.0646 -0.354824,0.0646 -0.231903,0 -0.338351,-0.11658 -0.10518,-0.11786 -0.10518,-0.35229 v -0.68304 h -0.185015 v -0.16347 l 0.212894,-0.12926 0.111517,-0.29907 h 0.24711 v 0.3016 h 0.396643 v 0.2902 h -0.396643 v 0.68304 q 0,0.0824 0.04562,0.12165 0.04689,0.0393 0.122921,0.0393 z"
           inkscape:connector-curvature="0" />
        <path
           id="path11433"
           style="font-style:normal;font-variant:normal;font-weight:bold;font-stretch:normal;line-height:1.79999995;font-family:'Open Sans';-inkscape-font-specification:'Open Sans Bold';letter-spacing:0.01058333px;fill:#f9f9f9;stroke-width:0.24330822"
           d="m 61.640538,289.18275 q 0,-0.18881 0.21036,-0.18881 0.21036,0 0.21036,0.18881 0,0.09 -0.05322,0.14067 -0.05196,0.0494 -0.157137,0.0494 -0.21036,0 -0.21036,-0.19009 z m 0.402979,1.783 h -0.386505 v -1.41677 h 0.386505 z"
           inkscape:connector-curvature="0" />
        <path
           id="path11435"
           style="font-style:normal;font-variant:normal;font-weight:bold;font-stretch:normal;line-height:1.79999995;font-family:'Open Sans';-inkscape-font-specification:'Open Sans Bold';letter-spacing:0.01058333px;fill:#f9f9f9;stroke-width:0.24330822"
           d="m 62.766284,290.25483 q 0,0.21036 0.06843,0.31808 0.0697,0.10771 0.225567,0.10771 0.154602,0 0.221765,-0.10645 0.06843,-0.10771 0.06843,-0.31934 0,-0.21036 -0.06843,-0.31554 -0.06843,-0.10518 -0.2243,-0.10518 -0.154602,0 -0.223032,0.10518 -0.06843,0.10391 -0.06843,0.31554 z m 0.979569,0 q 0,0.34595 -0.182481,0.54111 -0.182481,0.19515 -0.508159,0.19515 -0.204024,0 -0.359894,-0.0887 -0.155869,-0.09 -0.239506,-0.25725 -0.08364,-0.16728 -0.08364,-0.39031 0,-0.34722 0.181214,-0.53984 0.181214,-0.19262 0.509426,-0.19262 0.204024,0 0.359894,0.0887 0.155869,0.0887 0.239506,0.25471 0.08364,0.16601 0.08364,0.38904 z"
           inkscape:connector-curvature="0" />
        <path
           id="path11437"
           style="font-style:normal;font-variant:normal;font-weight:bold;font-stretch:normal;line-height:1.79999995;font-family:'Open Sans';-inkscape-font-specification:'Open Sans Bold';letter-spacing:0.01058333px;fill:#f9f9f9;stroke-width:0.24330822"
           d="m 65.38356,290.96575 h -0.386506 v -0.8275 q 0,-0.15334 -0.05449,-0.22937 -0.05449,-0.0773 -0.173611,-0.0773 -0.162205,0 -0.234438,0.10898 -0.07223,0.10771 -0.07223,0.35862 v 0.66657 H 64.07578 v -1.41677 h 0.295265 l 0.05196,0.18122 h 0.02154 q 0.06463,-0.10265 0.177412,-0.1546 0.114051,-0.0532 0.258515,-0.0532 0.24711,0 0.3751,0.13433 0.127991,0.13306 0.127991,0.38524 z"
           inkscape:connector-curvature="0" />
        <path
           id="path11439"
           style="font-style:normal;font-variant:normal;font-weight:bold;font-stretch:normal;line-height:1.79999995;font-family:'Open Sans';-inkscape-font-specification:'Open Sans Bold';letter-spacing:0.01058333px;fill:#f9f9f9;stroke-width:0.24330822"
           d="m 66.783028,290.54503 q 0,0.21796 -0.152068,0.33201 -0.1508,0.11405 -0.452401,0.11405 -0.154602,0 -0.263584,-0.0215 -0.108982,-0.0203 -0.204024,-0.0608 v -0.31934 q 0.107714,0.0507 0.242041,0.0849 0.135594,0.0342 0.238239,0.0342 0.21036,0 0.21036,-0.12165 0,-0.0456 -0.02788,-0.0735 -0.02788,-0.0292 -0.09631,-0.0646 -0.06843,-0.0367 -0.182481,-0.0849 -0.163473,-0.0684 -0.240774,-0.12672 -0.07603,-0.0583 -0.111516,-0.13306 -0.03422,-0.076 -0.03422,-0.18628 0,-0.18882 0.145732,-0.29147 0.146999,-0.10391 0.415651,-0.10391 0.255981,0 0.498022,0.11152 l -0.116585,0.27879 q -0.106448,-0.0456 -0.198955,-0.0748 -0.09251,-0.0291 -0.188818,-0.0291 -0.171076,0 -0.171076,0.0925 0,0.052 0.05449,0.09 0.05576,0.038 0.242041,0.11278 0.166007,0.0672 0.243308,0.12546 0.0773,0.0583 0.114051,0.13432 0.03675,0.076 0.03675,0.18122 z"
           inkscape:connector-curvature="0" />
        <path
           id="path11441"
           style="font-style:normal;font-variant:normal;font-weight:bold;font-stretch:normal;line-height:1.79999995;font-family:'Open Sans';-inkscape-font-specification:'Open Sans Bold';letter-spacing:0.01058333px;fill:#f9f9f9;stroke-width:0.24330822"
           d="m 67.043255,290.78453 q 0,-0.10644 0.05702,-0.16094 0.05703,-0.0545 0.166008,-0.0545 0.10518,0 0.162205,0.0558 0.05829,0.0558 0.05829,0.15967 0,0.10011 -0.05829,0.15841 -0.05829,0.057 -0.162205,0.057 -0.106448,0 -0.16474,-0.0558 -0.05829,-0.057 -0.05829,-0.15967 z"
           inkscape:connector-curvature="0" />
        <path
           id="path11443"
           style="font-style:normal;font-variant:normal;font-weight:bold;font-stretch:normal;line-height:1.79999995;font-family:'Open Sans';-inkscape-font-specification:'Open Sans Bold';letter-spacing:0.01058333px;fill:#f9f9f9;stroke-width:0.24330822"
           d="m 68.423715,290.99109 q -0.661494,0 -0.661494,-0.72612 0,-0.36116 0.179947,-0.55125 0.179946,-0.19135 0.515762,-0.19135 0.245843,0 0.440996,0.0963 l -0.11405,0.29907 q -0.09124,-0.0368 -0.169809,-0.0596 -0.07857,-0.0241 -0.157137,-0.0241 -0.301601,0 -0.301601,0.42832 0,0.41566 0.301601,0.41566 0.111517,0 0.206559,-0.0292 0.09504,-0.0304 0.190084,-0.0938 v 0.33075 q -0.09378,0.0596 -0.190084,0.0824 -0.09504,0.0228 -0.240774,0.0228 z"
           inkscape:connector-curvature="0" />
        <path
           id="path11445"
           style="font-style:normal;font-variant:normal;font-weight:bold;font-stretch:normal;line-height:1.79999995;font-family:'Open Sans';-inkscape-font-specification:'Open Sans Bold';letter-spacing:0.01058333px;fill:#f9f9f9;stroke-width:0.24330822"
           d="m 69.500039,290.25483 q 0,0.21036 0.06843,0.31808 0.0697,0.10771 0.225567,0.10771 0.154602,0 0.221765,-0.10645 0.06843,-0.10771 0.06843,-0.31934 0,-0.21036 -0.06843,-0.31554 -0.06843,-0.10518 -0.2243,-0.10518 -0.154602,0 -0.223032,0.10518 -0.06843,0.10391 -0.06843,0.31554 z m 0.979569,0 q 0,0.34595 -0.182481,0.54111 -0.182481,0.19515 -0.508159,0.19515 -0.204024,0 -0.359894,-0.0887 -0.155869,-0.09 -0.239506,-0.25725 -0.08364,-0.16728 -0.08364,-0.39031 0,-0.34722 0.181214,-0.53984 0.181214,-0.19262 0.509426,-0.19262 0.204024,0 0.359894,0.0887 0.155869,0.0887 0.239506,0.25471 0.08364,0.16601 0.08364,0.38904 z"
           inkscape:connector-curvature="0" />
        <path
           id="path11447"
           style="font-style:normal;font-variant:normal;font-weight:bold;font-stretch:normal;line-height:1.79999995;font-family:'Open Sans';-inkscape-font-specification:'Open Sans Bold';letter-spacing:0.01058333px;fill:#f9f9f9;stroke-width:0.24330822"
           d="m 72.078032,290.96575 h -0.386506 v -0.8275 q 0,-0.15334 -0.05196,-0.22937 -0.05069,-0.0773 -0.160938,-0.0773 -0.148266,0 -0.215429,0.10898 -0.06716,0.10898 -0.06716,0.35862 v 0.66657 h -0.386505 v -1.41677 h 0.295265 l 0.05196,0.18122 h 0.02154 q 0.05702,-0.0976 0.16474,-0.15207 0.107715,-0.0558 0.24711,-0.0558 0.318075,0 0.430858,0.20783 h 0.03422 q 0.05702,-0.0989 0.167274,-0.15334 0.111516,-0.0545 0.250912,-0.0545 0.240773,0 0.363695,0.12419 0.124188,0.12292 0.124188,0.39538 v 0.92381 h -0.387772 v -0.8275 q 0,-0.15334 -0.05196,-0.22937 -0.05069,-0.0773 -0.160938,-0.0773 -0.14193,0 -0.212895,0.10137 -0.0697,0.10138 -0.0697,0.32188 z"
           inkscape:connector-curvature="0" />
        <path
           id="path11449"
           style="font-style:normal;font-variant:normal;font-weight:bold;font-stretch:normal;line-height:1.79999995;font-family:'Open Sans';-inkscape-font-specification:'Open Sans Bold';letter-spacing:0.01058333px;fill:#f9f9f9;stroke-width:0.24330822"
           d="m 73.315294,290.78453 q 0,-0.10644 0.05703,-0.16094 0.05702,-0.0545 0.166007,-0.0545 0.10518,0 0.162205,0.0558 0.05829,0.0558 0.05829,0.15967 0,0.10011 -0.05829,0.15841 -0.05829,0.057 -0.162205,0.057 -0.106447,0 -0.16474,-0.0558 -0.05829,-0.057 -0.05829,-0.15967 z"
           inkscape:connector-curvature="0" />
        <path
           id="path11451"
           style="font-style:normal;font-variant:normal;font-weight:bold;font-stretch:normal;line-height:1.79999995;font-family:'Open Sans';-inkscape-font-specification:'Open Sans Bold';letter-spacing:0.01058333px;fill:#f9f9f9;stroke-width:0.24330822"
           d="m 74.908647,289.52237 q 0.250912,0 0.392842,0.19642 0.141929,0.19516 0.141929,0.53604 0,0.35102 -0.146998,0.54364 -0.145732,0.19262 -0.397911,0.19262 -0.249644,0 -0.391574,-0.18121 h -0.02661 l -0.06463,0.15587 H 74.12043 v -1.97181 h 0.386505 v 0.45873 q 0,0.0874 -0.01521,0.28006 h 0.01521 q 0.135594,-0.21036 0.401712,-0.21036 z m -0.124188,0.30921 q -0.143197,0 -0.209093,0.0887 -0.0659,0.0874 -0.06843,0.2902 v 0.0418 q 0,0.2281 0.06716,0.32694 0.06843,0.0988 0.21543,0.0988 0.119119,0 0.188817,-0.10899 0.07097,-0.11025 0.07097,-0.31934 0,-0.20909 -0.07097,-0.313 -0.07097,-0.10518 -0.193886,-0.10518 z"
           inkscape:connector-curvature="0" />
        <path
           id="path11453"
           style="font-style:normal;font-variant:normal;font-weight:bold;font-stretch:normal;line-height:1.79999995;font-family:'Open Sans';-inkscape-font-specification:'Open Sans Bold';letter-spacing:0.01058333px;fill:#f9f9f9;stroke-width:0.24330822"
           d="m 76.564096,289.52237 q 0.07857,0 0.130524,0.0114 l -0.02915,0.36242 q -0.04689,-0.0127 -0.114051,-0.0127 -0.185015,0 -0.288928,0.095 -0.102646,0.0951 -0.102646,0.26612 v 0.72106 H 75.77334 v -1.41677 h 0.29273 l 0.05703,0.23824 h 0.01901 q 0.0659,-0.11912 0.177412,-0.19135 0.112784,-0.0735 0.244576,-0.0735 z"
           inkscape:connector-curvature="0" />
      </g>
      <g
         transform="translate(1.7212037)"
         id="g10884">
        <use
           id="use10780"
           transform="matrix(0.22722035,0,0,0.22722035,36.435507,283.67798)"
           xlink:href="#envelope"
           x="0"
           y="0"
           width="100%"
           height="100%"
           style="fill:#f9f9f9" />
        <use
           id="use10802"
           transform="matrix(0.24561988,0,0,0.24561988,35.300689,278.62948)"
           xlink:href="#phone-square"
           x="0"
           y="0"
           width="100%"
           height="100%"
           style="fill:#f9f9f9" />
        <use
           id="use10843"
           transform="matrix(0.19502124,0,0,0.19502124,37.804626,288.19798)"
           xlink:href="#desktop"
           x="0"
           y="0"
           width="100%"
           height="100%"
           style="fill:#f9f9f9" />
      </g>
      <rect
         y="278.98526"
         x="47.645939"
         height="12.334328"
         width="0.32458758"
         id="rect10886"
         style="opacity:1;fill:#37c8ab;fill-opacity:1;stroke:none;stroke-width:0.5;stroke-linecap:square;stroke-miterlimit:4;stroke-dasharray:none;stroke-opacity:1;paint-order:markers fill stroke" />
      <g
         inkscape:export-ydpi="85"
         inkscape:export-xdpi="85"
         transform="matrix(0.18993331,0,0,0.18993331,5.2636708,250.42029)"
         inkscape:label="Camada 3"
         id="layer3"
         style="fill:#1a1a1a;fill-opacity:1">
        <g
           inkscape:export-ydpi="54.987595"
           inkscape:export-xdpi="54.987595"
           id="g4611"
           style="fill:#1a1a1a;fill-opacity:1">
          <g
             id="text4595"
             style="font-style:normal;font-variant:normal;font-weight:normal;font-stretch:normal;font-size:22.75124931px;line-height:1.25;font-family:Comfortaa;-inkscape-font-specification:Comfortaa;letter-spacing:0px;word-spacing:0px;fill:#1a1a1a;fill-opacity:1;stroke:none;stroke-width:2.13292956"
             aria-label="Web Innovations">
            <g
               transform="matrix(0.88684775,0,0,0.88684775,-5.2541664,-27.252391)"
               id="g1013"
               style="fill:#1a1a1a;fill-opacity:1">
              <path
                 style="color:#000000;font-style:normal;font-variant:normal;font-weight:normal;font-stretch:normal;font-size:medium;line-height:1.25;font-family:Comfortaa;-inkscape-font-specification:Comfortaa;font-variant-ligatures:normal;font-variant-position:normal;font-variant-caps:normal;font-variant-numeric:normal;font-variant-alternates:normal;font-feature-settings:normal;text-indent:0;text-align:start;text-decoration:none;text-decoration-line:none;text-decoration-style:solid;text-decoration-color:#000000;letter-spacing:0px;word-spacing:0px;text-transform:none;writing-mode:lr-tb;direction:ltr;text-orientation:mixed;dominant-baseline:auto;baseline-shift:baseline;text-anchor:start;white-space:normal;shape-padding:0;clip-rule:nonzero;display:inline;overflow:visible;visibility:visible;opacity:0.97000002;isolation:auto;mix-blend-mode:normal;color-interpolation:sRGB;color-interpolation-filters:linearRGB;solid-color:#000000;solid-opacity:1;vector-effect:none;fill:#1a1a1a;fill-opacity:1;fill-rule:nonzero;stroke:none;stroke-width:5.49100018;stroke-linecap:butt;stroke-linejoin:miter;stroke-miterlimit:4;stroke-dasharray:none;stroke-dashoffset:0;stroke-opacity:1;color-rendering:auto;image-rendering:auto;shape-rendering:auto;text-rendering:auto;enable-background:accumulate"
                 d="m 123.89219,145.39273 c 0,0 -5.03926,-0.0148 -21.01488,-0.0361 -9.333618,-0.11963 -15.345943,-2.31837 -19.78125,-6.10367 -4.435307,-3.7853 -7.380912,-9.05817 -9.277344,-15.00977 -3.792862,-11.9032 -2.984896,-25.625285 -2.83789,-31.603525 0.438596,-17.83627 0.21875,-37.593745 0.21875,-37.593745 l -12.289063,0.134765 c 0,0 0.213807,19.64503 -0.216797,37.15624 -0.123193,5.00986 -1.338892,20.720465 3.414063,35.636735 2.376477,7.45814 6.347143,14.94076 13.009765,20.62696 6.662623,5.68619 15.931554,8.89745 27.601566,9.04702 h 0.0352 0.0352 c 20.3114,0.0272 21.07948,0.0692 21.07948,0.0692"
                 id="path973"
                 inkscape:connector-curvature="0"
                 sodipodi:nodetypes="ccsssccssscccc" />
              <path
                 style="color:#000000;font-style:normal;font-variant:normal;font-weight:normal;font-stretch:normal;font-size:medium;line-height:1.25;font-family:Comfortaa;-inkscape-font-specification:Comfortaa;font-variant-ligatures:normal;font-variant-position:normal;font-variant-caps:normal;font-variant-numeric:normal;font-variant-alternates:normal;font-feature-settings:normal;text-indent:0;text-align:start;text-decoration:none;text-decoration-line:none;text-decoration-style:solid;text-decoration-color:#000000;letter-spacing:0px;word-spacing:0px;text-transform:none;writing-mode:lr-tb;direction:ltr;text-orientation:mixed;dominant-baseline:auto;baseline-shift:baseline;text-anchor:start;white-space:normal;shape-padding:0;clip-rule:nonzero;display:inline;overflow:visible;visibility:visible;opacity:1;isolation:auto;mix-blend-mode:normal;color-interpolation:sRGB;color-interpolation-filters:linearRGB;solid-color:#000000;solid-opacity:1;vector-effect:none;fill:#f9f9f9;fill-opacity:1;fill-rule:nonzero;stroke:#37c8ab;stroke-width:3.11680126;stroke-linecap:round;stroke-linejoin:miter;stroke-miterlimit:4;stroke-dasharray:none;stroke-dashoffset:0;stroke-opacity:1;color-rendering:auto;image-rendering:auto;shape-rendering:auto;text-rendering:auto;enable-background:accumulate"
                 d="m 98.670291,201.48436 0.14628,-51.30841 c 0.004,-22.34305 8.926759,-32.66889 17.820309,-38.51562 13.27714,-8.94393 31.71806,-6.28321 31.71806,-6.28321 l 0.0301,-12.648532 c -19.35446,-0.38474 -27.74313,1.935922 -38.50007,8.660252 -11.693709,7.6876 -23.084293,23.10737 -23.084293,48.96014 v 78.40686"
                 id="path4526"
                 inkscape:connector-curvature="0"
                 sodipodi:nodetypes="cccccccc" />
              <path
                 sodipodi:nodetypes="cscc"
                 inkscape:connector-curvature="0"
                 id="path11285"
                 d="m 148.27337,98.952304 c 0,0 -21.16733,-1.521588 -32.72558,6.076956 -11.69371,7.6876 -23.488785,19.46696 -23.084295,48.96014 v 61.10701"
                 style="color:#000000;font-style:normal;font-variant:normal;font-weight:normal;font-stretch:normal;font-size:medium;line-height:1.25;font-family:Comfortaa;-inkscape-font-specification:Comfortaa;font-variant-ligatures:normal;font-variant-position:normal;font-variant-caps:normal;font-variant-numeric:normal;font-variant-alternates:normal;font-feature-settings:normal;text-indent:0;text-align:start;text-decoration:none;text-decoration-line:none;text-decoration-style:solid;text-decoration-color:#000000;letter-spacing:0px;word-spacing:0px;text-transform:none;writing-mode:lr-tb;direction:ltr;text-orientation:mixed;dominant-baseline:auto;baseline-shift:baseline;text-anchor:start;white-space:normal;shape-padding:0;clip-rule:nonzero;display:inline;overflow:visible;visibility:visible;opacity:1;isolation:auto;mix-blend-mode:normal;color-interpolation:sRGB;color-interpolation-filters:linearRGB;solid-color:#000000;solid-opacity:1;vector-effect:none;fill:none;fill-opacity:1;fill-rule:nonzero;stroke:#37c8ab;stroke-width:3.11680126;stroke-linecap:round;stroke-linejoin:miter;stroke-miterlimit:4;stroke-dasharray:none;stroke-dashoffset:0;stroke-opacity:1;color-rendering:auto;image-rendering:auto;shape-rendering:auto;text-rendering:auto;enable-background:accumulate" />
            </g>
          </g>
        </g>
      </g>
    </g>
  </g>
  <g
     inkscape:groupmode="layer"
     id="layer2"
     inkscape:label="sangria"
     sodipodi:insensitive="true"
     style="display:none">
    <rect
       style="opacity:1;fill:none;fill-opacity:1;stroke:#ff0000;stroke-width:0.52966386;stroke-linecap:square;stroke-miterlimit:4;stroke-dasharray:none;stroke-opacity:1;paint-order:markers fill stroke"
       id="rect821"
       width="88.370338"
       height="50.270336"
       x="3.4398308"
       y="3.439832" />
  </g>
</svg>
