<?xml version="1.0" encoding="UTF-8" standalone="no"?>
<!-- Created with Inkscape (http://www.inkscape.org/) -->

<svg
   xmlns:dc="http://purl.org/dc/elements/1.1/"
   xmlns:cc="http://creativecommons.org/ns#"
   xmlns:rdf="http://www.w3.org/1999/02/22-rdf-syntax-ns#"
   xmlns:svg="http://www.w3.org/2000/svg"
   xmlns="http://www.w3.org/2000/svg"
   xmlns:sodipodi="http://sodipodi.sourceforge.net/DTD/sodipodi-0.dtd"
   xmlns:inkscape="http://www.inkscape.org/namespaces/inkscape"
   width="12.635614"
   height="12.635614"
   viewBox="0 0 3.3431729 3.343173"
   version="1.1"
   id="svg53"
   inkscape:version="0.92.3 (2405546, 2018-03-11)"
   sodipodi:docname="logo-twitter.svg">
  <defs
     id="defs47" />
  <sodipodi:namedview
     id="base"
     pagecolor="#ffffff"
     bordercolor="#666666"
     borderopacity="1.0"
     inkscape:pageopacity="0.0"
     inkscape:pageshadow="2"
     inkscape:zoom="7.9195959"
     inkscape:cx="-7.8590698"
     inkscape:cy="7.0751362"
     inkscape:document-units="px"
     inkscape:current-layer="layer1"
     showgrid="false"
     units="px"
     fit-margin-top="0"
     fit-margin-left="0"
     fit-margin-right="0"
     fit-margin-bottom="0"
     inkscape:window-width="1366"
     inkscape:window-height="709"
     inkscape:window-x="0"
     inkscape:window-y="32"
     inkscape:window-maximized="1" />
  <metadata
     id="metadata50">
    <rdf:RDF>
      <cc:Work
         rdf:about="">
        <dc:format>image/svg+xml</dc:format>
        <dc:type
           rdf:resource="http://purl.org/dc/dcmitype/StillImage" />
        <dc:title></dc:title>
      </cc:Work>
    </rdf:RDF>
  </metadata>
  <g
     inkscape:label="Layer 1"
     inkscape:groupmode="layer"
     id="layer1"
     transform="translate(-103.32841,-146.82842)">
    <g
       transform="matrix(0.00746244,0,0,0.00746244,103.32841,146.58962)"
       style="fill:#ececec;fill-opacity:1;stroke:none"
       id="use34117">
      <title
         id="title22613">Twitter Square</title>
      <path
         d="M 400,32 H 48 C 21.5,32 0,53.5 0,80 v 352 c 0,26.5 21.5,48 48,48 h 352 c 26.5,0 48,-21.5 48,-48 V 80 C 448,53.5 426.5,32 400,32 Z m -48.9,158.8 c 0.2,2.8 0.2,5.7 0.2,8.5 0,86.7 -66,186.6 -186.6,186.6 -37.2,0 -71.7,-10.8 -100.7,-29.4 5.3,0.6 10.4,0.8 15.8,0.8 30.7,0 58.9,-10.4 81.4,-28 -28.8,-0.6 -53,-19.5 -61.3,-45.5 10.1,1.5 19.2,1.5 29.6,-1.2 C 99.5,276.5 77,250.1 77,218.2 v -0.8 c 8.7,4.9 18.9,7.9 29.6,8.3 A 65.447,65.447 0 0 1 77.4,171.1 c 0,-12.2 3.2,-23.4 8.9,-33.1 32.3,39.8 80.8,65.8 135.2,68.6 -9.3,-44.5 24,-80.6 64,-80.6 18.9,0 35.9,7.9 47.9,20.7 14.8,-2.8 29,-8.3 41.6,-15.8 -4.9,15.2 -15.2,28 -28.8,36.1 13.2,-1.4 26,-5.1 37.8,-10.2 -8.9,13.1 -20.1,24.7 -32.9,34 z"
         id="path22615"
         inkscape:connector-curvature="0" />
    </g>
  </g>
</svg>
