<?xml version="1.0" encoding="UTF-8" standalone="no"?>
<!-- Created with Inkscape (http://www.inkscape.org/) -->

<svg
   xmlns:dc="http://purl.org/dc/elements/1.1/"
   xmlns:cc="http://creativecommons.org/ns#"
   xmlns:rdf="http://www.w3.org/1999/02/22-rdf-syntax-ns#"
   xmlns:svg="http://www.w3.org/2000/svg"
   xmlns="http://www.w3.org/2000/svg"
   xmlns:sodipodi="http://sodipodi.sourceforge.net/DTD/sodipodi-0.dtd"
   xmlns:inkscape="http://www.inkscape.org/namespaces/inkscape"
   width="41.412804mm"
   height="17.027063mm"
   viewBox="0 0 41.412804 17.027063"
   version="1.1"
   id="svg22393"
   inkscape:version="0.92.3 (2405546, 2018-03-11)"
   sodipodi:docname="logo-branco-footer.svg">
  <defs
     id="defs22387" />
  <sodipodi:namedview
     id="base"
     pagecolor="#ffffff"
     bordercolor="#666666"
     borderopacity="1.0"
     inkscape:pageopacity="0.0"
     inkscape:pageshadow="2"
     inkscape:zoom="2.8"
     inkscape:cx="121.48495"
     inkscape:cy="23.832682"
     inkscape:document-units="mm"
     inkscape:current-layer="layer1"
     showgrid="false"
     fit-margin-top="0"
     fit-margin-left="0"
     fit-margin-right="0"
     fit-margin-bottom="0"
     inkscape:window-width="1366"
     inkscape:window-height="709"
     inkscape:window-x="0"
     inkscape:window-y="32"
     inkscape:window-maximized="1" />
  <metadata
     id="metadata22390">
    <rdf:RDF>
      <cc:Work
         rdf:about="">
        <dc:format>image/svg+xml</dc:format>
        <dc:type
           rdf:resource="http://purl.org/dc/dcmitype/StillImage" />
        <dc:title></dc:title>
      </cc:Work>
    </rdf:RDF>
  </metadata>
  <g
     inkscape:label="Layer 1"
     inkscape:groupmode="layer"
     id="layer1"
     transform="translate(-84.293598,-139.98646)">
    <path
       sodipodi:nodetypes="ccsssccssscccc"
       inkscape:connector-curvature="0"
       id="path2243"
       d="m 90.648918,148.76241 c 0,0 -0.489495,-10e-4 -2.041307,-0.004 -0.906633,-0.0116 -1.490647,-0.2252 -1.921477,-0.59289 -0.430829,-0.36769 -0.716954,-0.87988 -0.901166,-1.45799 -0.368424,-1.15623 -0.289942,-2.48915 -0.275662,-3.06985 0.0426,-1.73255 0.02125,-3.65172 0.02125,-3.65172 l -1.193714,0.0131 c 0,0 0.02077,1.90824 -0.02106,3.60921 -0.01197,0.48664 -0.130055,2.01271 0.331629,3.46162 0.230842,0.72446 0.616538,1.45129 1.26372,2.00363 0.647183,0.55233 1.547532,0.86426 2.681113,0.87879 h 0.0034 0.0034 c 1.972973,0.003 2.047581,0.007 2.047581,0.007"
       style="color:#000000;font-style:normal;font-variant:normal;font-weight:normal;font-stretch:normal;font-size:medium;line-height:1.25;font-family:Comfortaa;-inkscape-font-specification:Comfortaa;font-variant-ligatures:normal;font-variant-position:normal;font-variant-caps:normal;font-variant-numeric:normal;font-variant-alternates:normal;font-feature-settings:normal;text-indent:0;text-align:start;text-decoration:none;text-decoration-line:none;text-decoration-style:solid;text-decoration-color:#000000;letter-spacing:0px;word-spacing:0px;text-transform:none;writing-mode:lr-tb;direction:ltr;text-orientation:mixed;dominant-baseline:auto;baseline-shift:baseline;text-anchor:start;white-space:normal;shape-padding:0;clip-rule:nonzero;display:inline;overflow:visible;visibility:visible;opacity:0.97000002;isolation:auto;mix-blend-mode:normal;color-interpolation:sRGB;color-interpolation-filters:linearRGB;solid-color:#000000;solid-opacity:1;vector-effect:none;fill:#ececec;fill-opacity:1;fill-rule:nonzero;stroke:none;stroke-width:0.5333752;stroke-linecap:butt;stroke-linejoin:miter;stroke-miterlimit:4;stroke-dasharray:none;stroke-dashoffset:0;stroke-opacity:1;color-rendering:auto;image-rendering:auto;shape-rendering:auto;text-rendering:auto;enable-background:accumulate" />
    <path
       sodipodi:nodetypes="cccccccc"
       inkscape:connector-curvature="0"
       id="path2245"
       d="m 88.198957,154.21094 0.01421,-4.98391 c 3.89e-4,-2.17032 0.867112,-3.17333 1.730998,-3.74126 1.289692,-0.86878 3.080974,-0.61033 3.080974,-0.61033 l 0.0029,-1.22863 c -1.88002,-0.0374 -2.694864,0.18805 -3.739753,0.84122 -1.135883,0.74675 -2.242322,2.24457 -2.242322,4.75581 v 7.61615"
       style="color:#000000;font-style:normal;font-variant:normal;font-weight:normal;font-stretch:normal;font-size:medium;line-height:1.25;font-family:Comfortaa;-inkscape-font-specification:Comfortaa;font-variant-ligatures:normal;font-variant-position:normal;font-variant-caps:normal;font-variant-numeric:normal;font-variant-alternates:normal;font-feature-settings:normal;text-indent:0;text-align:start;text-decoration:none;text-decoration-line:none;text-decoration-style:solid;text-decoration-color:#000000;letter-spacing:0px;word-spacing:0px;text-transform:none;writing-mode:lr-tb;direction:ltr;text-orientation:mixed;dominant-baseline:auto;baseline-shift:baseline;text-anchor:start;white-space:normal;shape-padding:0;clip-rule:nonzero;display:inline;overflow:visible;visibility:visible;opacity:1;isolation:auto;mix-blend-mode:normal;color-interpolation:sRGB;color-interpolation-filters:linearRGB;solid-color:#000000;solid-opacity:1;vector-effect:none;fill:#e8e8e9;fill-opacity:1;fill-rule:nonzero;stroke:#37c8ab;stroke-width:0.30275443;stroke-linecap:round;stroke-linejoin:miter;stroke-miterlimit:4;stroke-dasharray:none;stroke-dashoffset:0;stroke-opacity:1;color-rendering:auto;image-rendering:auto;shape-rendering:auto;text-rendering:auto;enable-background:accumulate" />
    <path
       style="color:#000000;font-style:normal;font-variant:normal;font-weight:normal;font-stretch:normal;font-size:medium;line-height:1.25;font-family:Comfortaa;-inkscape-font-specification:Comfortaa;font-variant-ligatures:normal;font-variant-position:normal;font-variant-caps:normal;font-variant-numeric:normal;font-variant-alternates:normal;font-feature-settings:normal;text-indent:0;text-align:start;text-decoration:none;text-decoration-line:none;text-decoration-style:solid;text-decoration-color:#000000;letter-spacing:0px;word-spacing:0px;text-transform:none;writing-mode:lr-tb;direction:ltr;text-orientation:mixed;dominant-baseline:auto;baseline-shift:baseline;text-anchor:start;white-space:normal;shape-padding:0;clip-rule:nonzero;display:inline;overflow:visible;visibility:visible;opacity:1;isolation:auto;mix-blend-mode:normal;color-interpolation:sRGB;color-interpolation-filters:linearRGB;solid-color:#000000;solid-opacity:1;vector-effect:none;fill:none;fill-opacity:1;fill-rule:nonzero;stroke:#37c8ab;stroke-width:0.30275443;stroke-linecap:round;stroke-linejoin:miter;stroke-miterlimit:4;stroke-dasharray:none;stroke-dashoffset:0;stroke-opacity:1;color-rendering:auto;image-rendering:auto;shape-rendering:auto;text-rendering:auto;enable-background:accumulate"
       d="m 93.017215,144.25136 c 0,0 -2.056116,-0.1478 -3.178841,0.59029 -1.135883,0.74674 -2.281613,1.89095 -2.242322,4.7558 v 5.93571"
       id="path2247"
       inkscape:connector-curvature="0"
       sodipodi:nodetypes="cscc" />
    <path
       inkscape:connector-curvature="0"
       d="m 101.04427,147.83179 h -1.586865 l -0.475717,-2.1645 q -0.034,-0.13576 -0.108733,-0.5403 -0.07137,-0.40435 -0.105338,-0.67619 -0.02715,0.22092 -0.08837,0.55049 -0.06115,0.32619 -0.122339,0.60142 -0.05776,0.27522 -0.492709,2.22908 h -1.586852 l -1.230072,-4.96785 h 1.294632 l 0.540281,2.49073 q 0.183494,0.8257 0.251436,1.31503 0.04418,-0.34659 0.156311,-0.94126 0.115521,-0.59463 0.214071,-0.98541 l 0.438342,-1.87909 h 1.243661 l 0.424747,1.87909 q 0.108733,0.45193 0.220864,1.04317 0.11212,0.59127 0.14952,0.8835 0.0442,-0.3772 0.24125,-1.30825 l 0.55048,-2.49751 h 1.29463 z"
       style="font-style:normal;font-variant:normal;font-weight:800;font-stretch:normal;font-size:medium;line-height:1.25;font-family:'Open Sans';-inkscape-font-specification:'Open Sans Ultra-Bold';letter-spacing:0.65752852px;word-spacing:0.58538067px;fill:#ececec;fill-opacity:1;stroke:none;stroke-width:0.65241331"
       id="path2257" />
    <path
       inkscape:connector-curvature="0"
       d="m 106.60833,147.83179 h -2.94945 v -4.96785 h 2.94945 v 1.07717 h -1.60725 v 0.78153 h 1.48832 v 1.07717 h -1.48832 v 0.93783 h 1.60725 z"
       style="font-style:normal;font-variant:normal;font-weight:800;font-stretch:normal;font-size:medium;line-height:1.25;font-family:'Open Sans';-inkscape-font-specification:'Open Sans Ultra-Bold';letter-spacing:0.65752852px;word-spacing:0.58538067px;fill:#ececec;fill-opacity:1;stroke:none;stroke-width:0.65241331"
       id="path2259" />
    <path
       inkscape:connector-curvature="0"
       d="m 108.22733,142.86394 h 1.73298 q 1.0126,0 1.5019,0.30238 0.49271,0.29898 0.49271,0.93444 0,0.41796 -0.21407,0.71358 -0.21407,0.29559 -0.56406,0.38056 v 0.0339 q 0.46212,0.12219 0.6694,0.40775 0.20728,0.2854 0.20728,0.74079 0,0.67618 -0.50969,1.06696 -0.5063,0.38735 -1.38299,0.38735 h -1.93345 z m 1.34221,1.90627 h 0.40436 q 0.28883,0 0.44513,-0.11879 0.15971,-0.11879 0.15971,-0.35341 0,-0.41796 -0.63203,-0.41796 h -0.37717 z m 0,0.98202 v 1.04317 h 0.47232 q 0.62863,0 0.62863,-0.53008 0,-0.24808 -0.16989,-0.38057 -0.16649,-0.13267 -0.48592,-0.13267 z"
       style="font-style:normal;font-variant:normal;font-weight:800;font-stretch:normal;font-size:medium;line-height:1.25;font-family:'Open Sans';-inkscape-font-specification:'Open Sans Ultra-Bold';letter-spacing:0.65752852px;word-spacing:0.58538067px;fill:#ececec;fill-opacity:1;stroke:none;stroke-width:0.65241331"
       id="path2261" />
    <path
       inkscape:connector-curvature="0"
       d="m 95.606958,153.26066 q -0.05736,0 -0.10039,-0.0395 -0.03944,-0.043 -0.03944,-0.10039 v -2.52047 q 0,-0.061 0.03944,-0.1004 0.04302,-0.0394 0.10039,-0.0394 0.06095,0 0.100389,0.0394 0.03944,0.0395 0.03944,0.1004 v 2.52047 q 0,0.0574 -0.03944,0.10039 -0.03944,0.0395 -0.100389,0.0395 z"
       style="font-style:normal;font-variant:normal;font-weight:normal;font-stretch:normal;font-size:medium;line-height:1.25;font-family:Comfortaa;-inkscape-font-specification:Comfortaa;letter-spacing:0.54768753px;word-spacing:0px;fill:#ececec;fill-opacity:1;stroke:none;stroke-width:0.33612329"
       id="path2265" />
    <path
       inkscape:connector-curvature="0"
       d="m 97.096142,153.26066 q -0.06095,0 -0.100389,-0.0395 -0.03944,-0.0394 -0.03944,-0.10039 v -2.52047 q 0,-0.061 0.03944,-0.1004 0.03944,-0.0394 0.100389,-0.0394 0.06454,0 0.107559,0.0502 l 1.713781,2.25158 v -2.16194 q 0,-0.061 0.03944,-0.1004 0.04302,-0.0394 0.10039,-0.0394 0.06095,0 0.100388,0.0394 0.03944,0.0395 0.03944,0.1004 v 2.52047 q 0,0.0574 -0.03944,0.10039 -0.03944,0.0395 -0.100388,0.0395 -0.07171,0 -0.103975,-0.0466 l -1.717365,-2.25158 v 2.15837 q 0,0.0574 -0.03944,0.10038 -0.03944,0.0395 -0.100388,0.0395 z"
       style="font-style:normal;font-variant:normal;font-weight:normal;font-stretch:normal;font-size:medium;line-height:1.25;font-family:Comfortaa;-inkscape-font-specification:Comfortaa;letter-spacing:0.54768753px;word-spacing:0px;fill:#ececec;fill-opacity:1;stroke:none;stroke-width:0.33612329"
       id="path2267" />
    <path
       inkscape:connector-curvature="0"
       d="m 99.721142,153.26066 q -0.06095,0 -0.100389,-0.0395 -0.03944,-0.0394 -0.03944,-0.10039 v -2.52047 q 0,-0.061 0.03944,-0.1004 0.03944,-0.0394 0.100389,-0.0394 0.06454,0 0.10756,0.0502 l 1.713778,2.25158 v -2.16194 q 0,-0.061 0.0394,-0.1004 0.043,-0.0394 0.10039,-0.0394 0.0609,0 0.10039,0.0394 0.0394,0.0395 0.0394,0.1004 v 2.52047 q 0,0.0574 -0.0394,0.10039 -0.0394,0.0395 -0.10039,0.0395 -0.0717,0 -0.10398,-0.0466 l -1.717364,-2.25158 v 2.15837 q 0,0.0574 -0.03944,0.10038 -0.03944,0.0395 -0.100389,0.0395 z"
       style="font-style:normal;font-variant:normal;font-weight:normal;font-stretch:normal;font-size:medium;line-height:1.25;font-family:Comfortaa;-inkscape-font-specification:Comfortaa;letter-spacing:0.54768753px;word-spacing:0px;fill:#ececec;fill-opacity:1;stroke:none;stroke-width:0.33612329"
       id="path2269" />
    <path
       inkscape:connector-curvature="0"
       d="m 104.32552,153.29652 q -0.40873,0 -0.73499,-0.18644 -0.32627,-0.18644 -0.5127,-0.51271 -0.18285,-0.32984 -0.18285,-0.73856 0,-0.40874 0.18285,-0.735 0.18643,-0.32626 0.5127,-0.5127 0.32626,-0.18643 0.73499,-0.18643 0.40514,0 0.7314,0.18643 0.32985,0.18644 0.5127,0.5127 0.18644,0.32626 0.18644,0.735 0,0.40872 -0.18644,0.73856 -0.18285,0.32627 -0.5127,0.51271 -0.32626,0.18644 -0.7314,0.18644 z m 0,-0.26532 q 0.32626,0 0.58799,-0.15417 0.26531,-0.15416 0.41589,-0.41948 0.15059,-0.2689 0.15059,-0.59874 0,-0.32628 -0.15059,-0.59159 -0.15058,-0.26889 -0.41589,-0.42306 -0.26173,-0.15417 -0.58799,-0.15417 -0.32985,0 -0.59517,0.15417 -0.26172,0.15417 -0.41231,0.42306 -0.15058,0.26531 -0.15058,0.59159 0,0.32984 0.15058,0.59874 0.15059,0.26532 0.41231,0.41948 0.26532,0.15417 0.59517,0.15417 z"
       style="font-style:normal;font-variant:normal;font-weight:normal;font-stretch:normal;font-size:medium;line-height:1.25;font-family:Comfortaa;-inkscape-font-specification:Comfortaa;letter-spacing:0.54768753px;word-spacing:0px;fill:#ececec;fill-opacity:1;stroke:none;stroke-width:0.33612329"
       id="path2271" />
    <path
       inkscape:connector-curvature="0"
       d="m 108.74816,150.46053 q 0.0574,0 0.0896,0.0359 0.0358,0.0359 0.0358,0.0896 0,0.0359 -0.0179,0.0789 l -1.06842,2.50612 q -0.0394,0.0896 -0.12549,0.0896 -0.0466,0 -0.0789,-0.0179 -0.0287,-0.0215 -0.0502,-0.0717 l -1.06484,-2.49179 q -0.0215,-0.0537 -0.0215,-0.0932 0,-0.0574 0.0358,-0.0896 0.0394,-0.0359 0.10039,-0.0359 0.0932,0 0.12907,0.0896 l 0.95011,2.27308 0.94652,-2.26591 q 0.0215,-0.0538 0.0538,-0.0753 0.0323,-0.0215 0.086,-0.0215 z"
       style="font-style:normal;font-variant:normal;font-weight:normal;font-stretch:normal;font-size:medium;line-height:1.25;font-family:Comfortaa;-inkscape-font-specification:Comfortaa;letter-spacing:0.54768753px;word-spacing:0px;fill:#ececec;fill-opacity:1;stroke:none;stroke-width:0.33612329"
       id="path2273" />
    <path
       inkscape:connector-curvature="0"
       d="m 111.62587,153.06347 q 0.0143,0.0251 0.0143,0.0574 0,0.0574 -0.043,0.10038 -0.0394,0.0395 -0.0968,0.0395 -0.0932,0 -0.13266,-0.086 l -0.24021,-0.58082 h -1.38752 l -0.24021,0.58082 q -0.0287,0.086 -0.12908,0.086 -0.0609,0 -0.10038,-0.0395 -0.0358,-0.043 -0.0358,-0.10038 0,-0.0359 0.0108,-0.061 l 1.05408,-2.50254 q 0.0394,-0.0968 0.13624,-0.0968 0.0968,0 0.13266,0.0968 z m -1.78549,-0.7099 h 1.19033 l -0.59517,-1.43771 z"
       style="font-style:normal;font-variant:normal;font-weight:normal;font-stretch:normal;font-size:medium;line-height:1.25;font-family:Comfortaa;-inkscape-font-specification:Comfortaa;letter-spacing:0.54768753px;word-spacing:0px;fill:#ececec;fill-opacity:1;stroke:none;stroke-width:0.33612329"
       id="path2275" />
    <path
       inkscape:connector-curvature="0"
       d="m 114.14454,150.46053 q 0.0574,0 0.0932,0.0359 0.0359,0.0359 0.0359,0.0932 0,0.0538 -0.0359,0.0896 -0.0358,0.0359 -0.0932,0.0359 h -0.8533 v 2.40575 q 0,0.0574 -0.0394,0.10039 -0.0394,0.0395 -0.10039,0.0395 -0.0574,0 -0.10039,-0.0395 -0.0394,-0.043 -0.0394,-0.10039 v -2.40575 h -0.84972 q -0.0574,0 -0.0932,-0.0359 -0.0359,-0.0359 -0.0359,-0.0896 0,-0.0574 0.0359,-0.0932 0.0358,-0.0359 0.0932,-0.0359 z"
       style="font-style:normal;font-variant:normal;font-weight:normal;font-stretch:normal;font-size:medium;line-height:1.25;font-family:Comfortaa;-inkscape-font-specification:Comfortaa;letter-spacing:0.54768753px;word-spacing:0px;fill:#ececec;fill-opacity:1;stroke:none;stroke-width:0.33612329"
       id="path2277" />
    <path
       inkscape:connector-curvature="0"
       d="m 115.31805,153.26066 q -0.0574,0 -0.10039,-0.0395 -0.0394,-0.043 -0.0394,-0.10039 v -2.52047 q 0,-0.061 0.0394,-0.1004 0.043,-0.0394 0.10039,-0.0394 0.061,0 0.10039,0.0394 0.0394,0.0395 0.0394,0.1004 v 2.52047 q 0,0.0574 -0.0394,0.10039 -0.0394,0.0395 -0.10039,0.0395 z"
       style="font-style:normal;font-variant:normal;font-weight:normal;font-stretch:normal;font-size:medium;line-height:1.25;font-family:Comfortaa;-inkscape-font-specification:Comfortaa;letter-spacing:0.54768753px;word-spacing:0px;fill:#ececec;fill-opacity:1;stroke:none;stroke-width:0.33612329"
       id="path2279" />
    <path
       inkscape:connector-curvature="0"
       d="m 117.96171,153.29652 q -0.40873,0 -0.73499,-0.18644 -0.32626,-0.18644 -0.5127,-0.51271 -0.18285,-0.32984 -0.18285,-0.73856 0,-0.40874 0.18285,-0.735 0.18644,-0.32626 0.5127,-0.5127 0.32626,-0.18643 0.73499,-0.18643 0.40514,0 0.7314,0.18643 0.32985,0.18644 0.5127,0.5127 0.18644,0.32626 0.18644,0.735 0,0.40872 -0.18644,0.73856 -0.18285,0.32627 -0.5127,0.51271 -0.32626,0.18644 -0.7314,0.18644 z m 0,-0.26532 q 0.32626,0 0.58799,-0.15417 0.26531,-0.15416 0.4159,-0.41948 0.15058,-0.2689 0.15058,-0.59874 0,-0.32628 -0.15058,-0.59159 -0.15059,-0.26889 -0.4159,-0.42306 -0.26173,-0.15417 -0.58799,-0.15417 -0.32985,0 -0.59516,0.15417 -0.26173,0.15417 -0.41231,0.42306 -0.15059,0.26531 -0.15059,0.59159 0,0.32984 0.15059,0.59874 0.15058,0.26532 0.41231,0.41948 0.26531,0.15417 0.59516,0.15417 z"
       style="font-style:normal;font-variant:normal;font-weight:normal;font-stretch:normal;font-size:medium;line-height:1.25;font-family:Comfortaa;-inkscape-font-specification:Comfortaa;letter-spacing:0.54768753px;word-spacing:0px;fill:#ececec;fill-opacity:1;stroke:none;stroke-width:0.33612329"
       id="path2281" />
    <path
       inkscape:connector-curvature="0"
       d="m 120.60727,153.26066 q -0.061,0 -0.10039,-0.0395 -0.0394,-0.0394 -0.0394,-0.10039 v -2.52047 q 0,-0.061 0.0394,-0.1004 0.0394,-0.0394 0.10039,-0.0394 0.0645,0 0.10756,0.0502 l 1.71378,2.25158 v -2.16194 q 0,-0.061 0.0394,-0.1004 0.043,-0.0394 0.10039,-0.0394 0.0609,0 0.10039,0.0394 0.0394,0.0395 0.0394,0.1004 v 2.52047 q 0,0.0574 -0.0394,0.10039 -0.0394,0.0395 -0.10039,0.0395 -0.0717,0 -0.10397,-0.0466 l -1.71737,-2.25158 v 2.15837 q 0,0.0574 -0.0394,0.10038 -0.0394,0.0395 -0.10039,0.0395 z"
       style="font-style:normal;font-variant:normal;font-weight:normal;font-stretch:normal;font-size:medium;line-height:1.25;font-family:Comfortaa;-inkscape-font-specification:Comfortaa;letter-spacing:0.54768753px;word-spacing:0px;fill:#ececec;fill-opacity:1;stroke:none;stroke-width:0.33612329"
       id="path2283" />
    <path
       inkscape:connector-curvature="0"
       d="m 124.77782,153.29652 q -0.34061,0 -0.60592,-0.14342 -0.26173,-0.147 -0.37646,-0.39438 -0.0143,-0.0251 -0.0143,-0.0574 0,-0.0502 0.0359,-0.0825 0.0394,-0.0359 0.10398,-0.0359 0.043,0 0.0789,0.0251 0.0394,0.0215 0.0574,0.0645 0.0825,0.16134 0.27249,0.26172 0.1936,0.0968 0.44816,0.0968 0.294,0 0.47326,-0.13983 0.17927,-0.14341 0.17927,-0.39797 0,-0.22588 -0.16851,-0.38005 -0.16493,-0.15416 -0.49836,-0.19719 -0.4159,-0.0502 -0.65611,-0.25814 -0.23664,-0.21154 -0.23664,-0.51629 0,-0.21511 0.11474,-0.37645 0.11831,-0.16492 0.32267,-0.25098 0.20795,-0.0896 0.46968,-0.0896 0.28324,0 0.49836,0.12548 0.21512,0.12548 0.33702,0.32626 0.0251,0.0395 0.0251,0.086 0,0.0681 -0.0645,0.10756 -0.0287,0.0144 -0.0645,0.0144 -0.0394,0 -0.0753,-0.0179 -0.0323,-0.0215 -0.0538,-0.0574 -0.20078,-0.31551 -0.60592,-0.31909 -0.29041,0 -0.45892,0.12189 -0.16851,0.1219 -0.16851,0.34778 0,0.41948 0.67762,0.50911 0.44458,0.0645 0.66329,0.27249 0.2187,0.20795 0.2187,0.54855 0,0.25098 -0.1219,0.43383 -0.1219,0.18284 -0.33343,0.27965 -0.21154,0.0932 -0.47326,0.0932 z"
       style="font-style:normal;font-variant:normal;font-weight:normal;font-stretch:normal;font-size:medium;line-height:1.25;font-family:Comfortaa;-inkscape-font-specification:Comfortaa;letter-spacing:0.54768753px;word-spacing:0px;fill:#ececec;fill-opacity:1;stroke:none;stroke-width:0.33612329"
       id="path2285" />
  </g>
</svg>
