<?xml version="1.0" encoding="UTF-8" standalone="no"?>
<svg
   xmlns:dc="http://purl.org/dc/elements/1.1/"
   xmlns:cc="http://creativecommons.org/ns#"
   xmlns:rdf="http://www.w3.org/1999/02/22-rdf-syntax-ns#"
   xmlns:svg="http://www.w3.org/2000/svg"
   xmlns="http://www.w3.org/2000/svg"
   xmlns:sodipodi="http://sodipodi.sourceforge.net/DTD/sodipodi-0.dtd"
   xmlns:inkscape="http://www.inkscape.org/namespaces/inkscape"
   id="svg22923"
   version="1.1"
   viewBox="0 0 50.198978 20.629335"
   height="77.969139"
   width="189.72842"
   sodipodi:docname="logo-escuro.svg"
   inkscape:version="0.92.3 (2405546, 2018-03-11)">
  <sodipodi:namedview
     pagecolor="#ffffff"
     bordercolor="#666666"
     borderopacity="1"
     objecttolerance="10"
     gridtolerance="10"
     guidetolerance="10"
     inkscape:pageopacity="0"
     inkscape:pageshadow="2"
     inkscape:window-width="1366"
     inkscape:window-height="709"
     id="namedview24"
     showgrid="false"
     inkscape:zoom="8.4120237"
     inkscape:cx="10.493457"
     inkscape:cy="59.104907"
     inkscape:window-x="0"
     inkscape:window-y="32"
     inkscape:window-maximized="1"
     inkscape:current-layer="g46"
     showborder="false"
     inkscape:pagecheckerboard="true" />
  <defs
     id="defs22917" />
  <metadata
     id="metadata22920">
    <rdf:RDF>
      <cc:Work
         rdf:about="">
        <dc:format>image/svg+xml</dc:format>
        <dc:type
           rdf:resource="http://purl.org/dc/dcmitype/StillImage" />
        <dc:title></dc:title>
      </cc:Work>
    </rdf:RDF>
  </metadata>
  <g
     transform="translate(-79.90051,-138.18533)"
     id="layer1">
    <g
       id="g23156">
      <g
         id="g42"
         style="display:inline">
        <path
           d="m 87.600419,148.81791 c 0,0 -0.59306,-0.002 -2.47318,-0.004 -1.09844,-0.0141 -1.80601,-0.27284 -2.32799,-0.71832 -0.52198,-0.44548 -0.86864,-1.06603 -1.09182,-1.76645 -0.44637,-1.40085 -0.35128,-3.01576 -0.33398,-3.71932 0.0516,-2.09909 0.0257,-4.42429 0.0257,-4.42429 l -1.44626,0.0159 c 0,0 0.0252,2.31196 -0.0255,4.3728 -0.0145,0.5896 -0.15757,2.43853 0.40179,4.19398 0.27968,0.87772 0.74697,1.75833 1.53107,2.42752 0.78411,0.66919 1.87494,1.04711 3.24835,1.06471 h 0.004 0.004 c 2.39038,0.003 2.48078,0.008 2.48078,0.008"
           id="path973"
           inkscape:connector-curvature="0" />
        <g
           id="g46">
          <path
             style="font-style:normal;font-variant:normal;font-weight:normal;font-stretch:normal;font-size:medium;line-height:1.25;font-family:Comfortaa;-inkscape-font-specification:Comfortaa;font-variant-ligatures:normal;font-variant-position:normal;font-variant-caps:normal;font-variant-numeric:normal;font-variant-alternates:normal;font-feature-settings:normal;text-indent:0;text-align:start;text-decoration:none;text-decoration-line:none;text-decoration-style:solid;letter-spacing:0px;word-spacing:0px;text-transform:none;writing-mode:lr-tb;direction:ltr;text-orientation:mixed;dominant-baseline:auto;baseline-shift:baseline;text-anchor:start;white-space:normal;shape-padding:0;clip-rule:nonzero;display:inline;overflow:visible;visibility:visible;opacity:1;isolation:auto;mix-blend-mode:normal;color-interpolation:sRGB;color-interpolation-filters:linearRGB;solid-opacity:1;vector-effect:none;fill:#ffffff;fill-opacity:0.98892984;fill-rule:nonzero;stroke:#3ac6ad;stroke-width:0.36671251;stroke-linecap:round;stroke-linejoin:miter;stroke-miterlimit:4;stroke-dasharray:none;stroke-dashoffset:0;stroke-opacity:1;color-rendering:auto;image-rendering:auto;shape-rendering:auto;text-rendering:auto;enable-background:accumulate"
             id="path4526"
             d="m 84.632129,155.41916 0.0172,-6.03833 c 4.7e-4,-2.62948 1.05056,-3.84469 2.09721,-4.53278 1.56255,-1.05258 3.7328,-0.73945 3.7328,-0.73945 l 0.004,-1.48856 c -2.27776,-0.0453 -3.265,0.22783 -4.53095,1.01919 -1.37619,0.90473 -2.71671,2.71944 -2.71671,5.76197 v 9.22745"
             inkscape:connector-curvature="0" />
          <path
             style="font-style:normal;font-variant:normal;font-weight:normal;font-stretch:normal;font-size:medium;line-height:1.25;font-family:Comfortaa;-inkscape-font-specification:Comfortaa;font-variant-ligatures:normal;font-variant-position:normal;font-variant-caps:normal;font-variant-numeric:normal;font-variant-alternates:normal;font-feature-settings:normal;text-indent:0;text-align:start;text-decoration:none;text-decoration-line:none;text-decoration-style:solid;letter-spacing:0px;word-spacing:0px;text-transform:none;writing-mode:lr-tb;direction:ltr;text-orientation:mixed;dominant-baseline:auto;baseline-shift:baseline;text-anchor:start;white-space:normal;shape-padding:0;clip-rule:nonzero;display:inline;overflow:visible;visibility:visible;opacity:1;isolation:auto;mix-blend-mode:normal;color-interpolation:sRGB;color-interpolation-filters:linearRGB;solid-opacity:1;vector-effect:none;fill:#ffffff;fill-opacity:0;fill-rule:nonzero;stroke:#37c8ab;stroke-width:0.36671251;stroke-linecap:round;stroke-linejoin:miter;stroke-miterlimit:4;stroke-dasharray:none;stroke-dashoffset:0;stroke-opacity:1;color-rendering:auto;image-rendering:auto;shape-rendering:auto;text-rendering:auto;enable-background:accumulate"
             d="m 90.469759,143.35249 c 0,0 -2.49111,-0.17907 -3.85137,0.71517 -1.37619,0.90473 -2.76432,2.29101 -2.71672,5.76197 v 7.19149"
             id="path11285"
             inkscape:connector-curvature="0" />
        </g>
        <path
           id="path11294"
           style="font-style:normal;font-variant:normal;font-weight:800;font-stretch:normal;font-size:medium;line-height:1.25;font-family:'Open Sans';-inkscape-font-specification:'Open Sans Ultra-Bold';letter-spacing:0.65752852px;word-spacing:0.58538067px;fill:#1a1a1a;fill-opacity:1;stroke:none;stroke-width:0.79044068"
           d="m 100.19505,147.69044 h -1.922586 l -0.576361,-2.62243 q -0.0412,-0.16449 -0.131737,-0.65461 -0.08647,-0.4899 -0.127624,-0.81924 -0.0329,0.26766 -0.107064,0.66694 -0.07409,0.39521 -0.148222,0.72867 -0.06998,0.33345 -0.596948,2.70067 h -1.922574 l -1.490311,-6.01887 h 1.56853 l 0.654585,3.01768 q 0.222315,1.00039 0.304631,1.59324 0.05353,-0.41992 0.189381,-1.14039 0.13996,-0.72044 0.25936,-1.19389 l 0.53108,-2.27664 h 1.506775 l 0.514609,2.27664 q 0.131736,0.54754 0.267585,1.26387 0.135848,0.71636 0.181156,1.07041 0.05353,-0.457 0.292295,-1.58502 l 0.66694,-3.0259 h 1.56853 z"
           inkscape:connector-curvature="0" />
        <path
           id="path11296"
           style="font-style:normal;font-variant:normal;font-weight:800;font-stretch:normal;font-size:medium;line-height:1.25;font-family:'Open Sans';-inkscape-font-specification:'Open Sans Ultra-Bold';letter-spacing:0.65752852px;word-spacing:0.58538067px;fill:#1a1a1a;fill-opacity:1;stroke:none;stroke-width:0.79044068"
           d="m 106.93627,147.69044 h -3.57345 v -6.01887 h 3.57345 v 1.30507 h -1.94728 v 0.94686 h 1.80319 v 1.30507 h -1.80319 v 1.13624 h 1.94728 z"
           inkscape:connector-curvature="0" />
        <path
           id="path11298"
           style="font-style:normal;font-variant:normal;font-weight:800;font-stretch:normal;font-size:medium;line-height:1.25;font-family:'Open Sans';-inkscape-font-specification:'Open Sans Ultra-Bold';letter-spacing:0.65752852px;word-spacing:0.58538067px;fill:#1a1a1a;fill-opacity:1;stroke:none;stroke-width:0.79044068"
           d="m 108.8978,141.67157 h 2.0996 q 1.22683,0 1.81966,0.36635 0.59695,0.36224 0.59695,1.13213 0,0.50639 -0.25936,0.86455 -0.25936,0.35813 -0.6834,0.46108 v 0.0411 q 0.5599,0.14804 0.81103,0.49401 0.25113,0.34579 0.25113,0.89752 0,0.81924 -0.61753,1.29269 -0.61341,0.4693 -1.67557,0.4693 h -2.3425 z m 1.62616,2.30957 h 0.48991 q 0.34994,0 0.53931,-0.14392 0.1935,-0.14392 0.1935,-0.42818 0,-0.50638 -0.76574,-0.50638 h -0.45698 z m 0,1.18978 v 1.26387 h 0.57225 q 0.76162,0 0.76162,-0.64223 0,-0.30056 -0.20583,-0.46108 -0.20171,-0.16075 -0.58871,-0.16075 z"
           inkscape:connector-curvature="0" />
        <path
           id="path11301"
           style="font-style:normal;font-variant:normal;font-weight:normal;font-stretch:normal;font-size:medium;line-height:1.25;font-family:Comfortaa;-inkscape-font-specification:Comfortaa;letter-spacing:0.54768753px;word-spacing:0px;fill:#1a1a1a;fill-opacity:1;stroke:none;stroke-width:0.40723497"
           d="m 93.607397,154.26784 q -0.0695,0 -0.121628,-0.0478 -0.04778,-0.0521 -0.04778,-0.12162 v -3.05372 q 0,-0.0739 0.04778,-0.12163 0.05213,-0.0477 0.121628,-0.0477 0.07384,0 0.121628,0.0477 0.04778,0.0478 0.04778,0.12163 v 3.05372 q 0,0.0695 -0.04778,0.12162 -0.04778,0.0478 -0.121628,0.0478 z"
           inkscape:connector-curvature="0" />
        <path
           id="path11303"
           style="font-style:normal;font-variant:normal;font-weight:normal;font-stretch:normal;font-size:medium;line-height:1.25;font-family:Comfortaa;-inkscape-font-specification:Comfortaa;letter-spacing:0.54768753px;word-spacing:0px;fill:#1a1a1a;fill-opacity:1;stroke:none;stroke-width:0.40723497"
           d="m 95.41164,154.26784 q -0.07384,0 -0.121628,-0.0478 -0.04778,-0.0477 -0.04778,-0.12162 v -3.05372 q 0,-0.0739 0.04778,-0.12163 0.04778,-0.0477 0.121628,-0.0477 0.07819,0 0.130315,0.0609 l 2.076355,2.72793 v -2.61933 q 0,-0.0739 0.04778,-0.12164 0.05213,-0.0477 0.121628,-0.0477 0.07384,0 0.121627,0.0477 0.04778,0.0478 0.04778,0.12164 v 3.05372 q 0,0.0695 -0.04778,0.12162 -0.04778,0.0478 -0.121627,0.0478 -0.08688,0 -0.125971,-0.0565 l -2.080699,-2.72793 v 2.615 q 0,0.0695 -0.04778,0.12162 -0.04778,0.0478 -0.121627,0.0478 z"
           inkscape:connector-curvature="0" />
        <path
           id="path11305"
           style="font-style:normal;font-variant:normal;font-weight:normal;font-stretch:normal;font-size:medium;line-height:1.25;font-family:Comfortaa;-inkscape-font-specification:Comfortaa;letter-spacing:0.54768753px;word-spacing:0px;fill:#1a1a1a;fill-opacity:1;stroke:none;stroke-width:0.40723497"
           d="m 98.616676,154.26784 q -0.07384,0 -0.121627,-0.0478 -0.04778,-0.0477 -0.04778,-0.12162 v -3.05372 q 0,-0.0739 0.04778,-0.12163 0.04778,-0.0477 0.121627,-0.0477 0.07819,0 0.130316,0.0609 l 2.076358,2.72793 v -2.61933 q 0,-0.0739 0.0478,-0.12164 0.0521,-0.0477 0.12162,-0.0477 0.0738,0 0.12163,0.0477 0.0478,0.0478 0.0478,0.12164 v 3.05372 q 0,0.0695 -0.0478,0.12162 -0.0478,0.0478 -0.12163,0.0478 -0.0869,0 -0.12597,-0.0565 l -2.080697,-2.72793 v 2.615 q 0,0.0695 -0.04778,0.12162 -0.04778,0.0478 -0.121628,0.0478 z"
           inkscape:connector-curvature="0" />
        <path
           id="path11307"
           style="font-style:normal;font-variant:normal;font-weight:normal;font-stretch:normal;font-size:medium;line-height:1.25;font-family:Comfortaa;-inkscape-font-specification:Comfortaa;letter-spacing:0.54768753px;word-spacing:0px;fill:#1a1a1a;fill-opacity:1;stroke:none;stroke-width:0.40723497"
           d="m 104.19517,154.31129 q -0.4952,0 -0.89049,-0.22588 -0.39529,-0.22588 -0.62116,-0.62118 -0.22154,-0.39963 -0.22154,-0.89482 0,-0.4952 0.22154,-0.89049 0.22587,-0.39529 0.62116,-0.62117 0.39529,-0.22587 0.89049,-0.22587 0.49086,0 0.88614,0.22587 0.39964,0.22588 0.62117,0.62117 0.22588,0.39529 0.22588,0.89049 0,0.49519 -0.22588,0.89482 -0.22153,0.3953 -0.62117,0.62118 -0.39528,0.22588 -0.88614,0.22588 z m 0,-0.32144 q 0.39529,0 0.71239,-0.18679 0.32145,-0.18678 0.50389,-0.50823 0.18244,-0.32579 0.18244,-0.72542 0,-0.3953 -0.18244,-0.71674 -0.18244,-0.32578 -0.50389,-0.51256 -0.3171,-0.18679 -0.71239,-0.18679 -0.39963,0 -0.72108,0.18679 -0.3171,0.18678 -0.49954,0.51256 -0.18244,0.32144 -0.18244,0.71674 0,0.39963 0.18244,0.72542 0.18244,0.32145 0.49954,0.50823 0.32145,0.18679 0.72108,0.18679 z"
           inkscape:connector-curvature="0" />
        <path
           id="path11309"
           style="font-style:normal;font-variant:normal;font-weight:normal;font-stretch:normal;font-size:medium;line-height:1.25;font-family:Comfortaa;-inkscape-font-specification:Comfortaa;letter-spacing:0.54768753px;word-spacing:0px;fill:#1a1a1a;fill-opacity:1;stroke:none;stroke-width:0.40723497"
           d="m 109.55349,150.87531 q 0.0695,0 0.1086,0.0435 0.0434,0.0435 0.0434,0.10858 0,0.0435 -0.0217,0.0956 l -1.29446,3.03634 q -0.0478,0.10858 -0.15203,0.10858 -0.0565,0 -0.0956,-0.0217 -0.0348,-0.026 -0.0608,-0.0869 l -1.29012,-3.01897 q -0.0261,-0.0651 -0.0261,-0.11294 0,-0.0695 0.0434,-0.10858 0.0478,-0.0435 0.12163,-0.0435 0.11294,0 0.15637,0.10859 l 1.15112,2.75399 1.14678,-2.7453 q 0.0261,-0.0651 0.0652,-0.0912 0.0391,-0.0261 0.10425,-0.0261 z"
           inkscape:connector-curvature="0" />
        <path
           id="path11311"
           style="font-style:normal;font-variant:normal;font-weight:normal;font-stretch:normal;font-size:medium;line-height:1.25;font-family:Comfortaa;-inkscape-font-specification:Comfortaa;letter-spacing:0.54768753px;word-spacing:0px;fill:#1a1a1a;fill-opacity:1;stroke:none;stroke-width:0.40723497"
           d="m 113.04002,154.02893 q 0.0174,0.0304 0.0174,0.0695 0,0.0695 -0.0521,0.12162 -0.0478,0.0478 -0.11728,0.0478 -0.11294,0 -0.16072,-0.10421 l -0.29104,-0.7037 h -1.68106 l -0.29104,0.7037 q -0.0347,0.10421 -0.15638,0.10421 -0.0738,0 -0.12163,-0.0478 -0.0434,-0.0521 -0.0434,-0.12162 0,-0.0435 0.013,-0.0739 l 1.27708,-3.03199 q 0.0478,-0.11729 0.16507,-0.11729 0.11728,0 0.16072,0.11729 z m -2.16323,-0.86008 h 1.44215 l -0.72108,-1.74188 z"
           inkscape:connector-curvature="0" />
        <path
           id="path11313"
           style="font-style:normal;font-variant:normal;font-weight:normal;font-stretch:normal;font-size:medium;line-height:1.25;font-family:Comfortaa;-inkscape-font-specification:Comfortaa;letter-spacing:0.54768753px;word-spacing:0px;fill:#1a1a1a;fill-opacity:1;stroke:none;stroke-width:0.40723497"
           d="m 116.09156,150.87531 q 0.0695,0 0.11294,0.0435 0.0434,0.0435 0.0434,0.11294 0,0.0651 -0.0434,0.10858 -0.0434,0.0435 -0.11294,0.0435 h -1.03384 v 2.91472 q 0,0.0695 -0.0478,0.12163 -0.0478,0.0478 -0.12163,0.0478 -0.0695,0 -0.12162,-0.0478 -0.0478,-0.0521 -0.0478,-0.12163 v -2.91472 h -1.02949 q -0.0695,0 -0.11294,-0.0435 -0.0434,-0.0435 -0.0434,-0.10858 0,-0.0695 0.0434,-0.11294 0.0434,-0.0435 0.11294,-0.0435 z"
           inkscape:connector-curvature="0" />
        <path
           id="path11315"
           style="font-style:normal;font-variant:normal;font-weight:normal;font-stretch:normal;font-size:medium;line-height:1.25;font-family:Comfortaa;-inkscape-font-specification:Comfortaa;letter-spacing:0.54768753px;word-spacing:0px;fill:#1a1a1a;fill-opacity:1;stroke:none;stroke-width:0.40723497"
           d="m 117.51334,154.26784 q -0.0695,0 -0.12163,-0.0478 -0.0478,-0.0521 -0.0478,-0.12162 v -3.05372 q 0,-0.0739 0.0478,-0.12163 0.0521,-0.0477 0.12163,-0.0477 0.0738,0 0.12162,0.0477 0.0478,0.0478 0.0478,0.12163 v 3.05372 q 0,0.0695 -0.0478,0.12162 -0.0478,0.0478 -0.12162,0.0478 z"
           inkscape:connector-curvature="0" />
        <path
           id="path11317"
           style="font-style:normal;font-variant:normal;font-weight:normal;font-stretch:normal;font-size:medium;line-height:1.25;font-family:Comfortaa;-inkscape-font-specification:Comfortaa;letter-spacing:0.54768753px;word-spacing:0px;fill:#1a1a1a;fill-opacity:1;stroke:none;stroke-width:0.40723497"
           d="m 120.71629,154.31129 q -0.49519,0 -0.89048,-0.22588 -0.39529,-0.22588 -0.62117,-0.62118 -0.22154,-0.39963 -0.22154,-0.89482 0,-0.4952 0.22154,-0.89049 0.22588,-0.39529 0.62117,-0.62117 0.39529,-0.22587 0.89048,-0.22587 0.49086,0 0.88615,0.22587 0.39963,0.22588 0.62117,0.62117 0.22588,0.39529 0.22588,0.89049 0,0.49519 -0.22588,0.89482 -0.22154,0.3953 -0.62117,0.62118 -0.39529,0.22588 -0.88615,0.22588 z m 0,-0.32144 q 0.39529,0 0.71239,-0.18679 0.32145,-0.18678 0.50389,-0.50823 0.18244,-0.32579 0.18244,-0.72542 0,-0.3953 -0.18244,-0.71674 -0.18244,-0.32578 -0.50389,-0.51256 -0.3171,-0.18679 -0.71239,-0.18679 -0.39963,0 -0.72107,0.18679 -0.3171,0.18678 -0.49954,0.51256 -0.18245,0.32144 -0.18245,0.71674 0,0.39963 0.18245,0.72542 0.18244,0.32145 0.49954,0.50823 0.32144,0.18679 0.72107,0.18679 z"
           inkscape:connector-curvature="0" />
        <path
           id="path11319"
           style="font-style:normal;font-variant:normal;font-weight:normal;font-stretch:normal;font-size:medium;line-height:1.25;font-family:Comfortaa;-inkscape-font-specification:Comfortaa;letter-spacing:0.54768753px;word-spacing:0px;fill:#1a1a1a;fill-opacity:1;stroke:none;stroke-width:0.40723497"
           d="m 123.92156,154.26784 q -0.0738,0 -0.12163,-0.0478 -0.0478,-0.0477 -0.0478,-0.12162 v -3.05372 q 0,-0.0739 0.0478,-0.12163 0.0478,-0.0477 0.12163,-0.0477 0.0782,0 0.13032,0.0609 l 2.07635,2.72793 v -2.61933 q 0,-0.0739 0.0478,-0.12164 0.0521,-0.0477 0.12163,-0.0477 0.0738,0 0.12163,0.0477 0.0478,0.0478 0.0478,0.12164 v 3.05372 q 0,0.0695 -0.0478,0.12162 -0.0478,0.0478 -0.12163,0.0478 -0.0869,0 -0.12597,-0.0565 l -2.0807,-2.72793 v 2.615 q 0,0.0695 -0.0478,0.12162 -0.0478,0.0478 -0.12163,0.0478 z"
           inkscape:connector-curvature="0" />
        <path
           id="path11321"
           style="font-style:normal;font-variant:normal;font-weight:normal;font-stretch:normal;font-size:medium;line-height:1.25;font-family:Comfortaa;-inkscape-font-specification:Comfortaa;letter-spacing:0.54768753px;word-spacing:0px;fill:#1a1a1a;fill-opacity:1;stroke:none;stroke-width:0.40723497"
           d="m 128.97445,154.31129 q -0.41267,0 -0.73411,-0.17376 -0.3171,-0.17809 -0.4561,-0.47782 -0.0174,-0.0304 -0.0174,-0.0695 0,-0.0609 0.0434,-0.0999 0.0478,-0.0435 0.12597,-0.0435 0.0521,0 0.0956,0.0304 0.0478,0.026 0.0695,0.0781 0.0999,0.19548 0.33013,0.3171 0.23457,0.11729 0.54298,0.11729 0.3562,0 0.57339,-0.16941 0.21719,-0.17375 0.21719,-0.48217 0,-0.27366 -0.20416,-0.46045 -0.19982,-0.18678 -0.6038,-0.23891 -0.50388,-0.0609 -0.79492,-0.31275 -0.28669,-0.25629 -0.28669,-0.62552 0,-0.26063 0.139,-0.4561 0.14335,-0.19981 0.39095,-0.30407 0.25194,-0.10859 0.56904,-0.10859 0.34316,0 0.60379,0.15203 0.26063,0.15203 0.40832,0.39529 0.0304,0.0478 0.0304,0.10421 0,0.0825 -0.0782,0.13031 -0.0348,0.0174 -0.0782,0.0174 -0.0478,0 -0.0912,-0.0217 -0.0391,-0.026 -0.0652,-0.0695 -0.24326,-0.38226 -0.73411,-0.38659 -0.35185,0 -0.55601,0.14768 -0.20416,0.14769 -0.20416,0.42135 0,0.50823 0.82098,0.61683 0.53864,0.0782 0.80362,0.33013 0.26497,0.25195 0.26497,0.66461 0,0.30407 -0.14769,0.52561 -0.14769,0.22153 -0.40398,0.33881 -0.25629,0.11295 -0.57338,0.11295 z"
           inkscape:connector-curvature="0" />
      </g>
    </g>
  </g>
</svg>
