<svg version="1" xmlns="http://www.w3.org/2000/svg" width="346.667" height="346.667" viewBox="0 0 260.000000 260.000000"><path d="M70.8 8l-3.7.5-.4 35.5c-.5 43 .2 51.6 4.9 66 5.6 16.7 14.2 27.5 27.7 34.5 2 1.1 3.8 2.2 3.8 2.5.1.3.2 23.9.3 52.5.1 51.2.1 52 2.1 52 1.6 0 2.1-.9 2.6-4.6.7-4.6 4-12.2 6.5-14.7.8-.7 1.4-2.3 1.4-3.5 0-3.4 5.1-14.7 6.7-14.7.7 0 1.4-.3 1.4-.8.1-.4.2-14.3.4-31 .1-16.6.4-30.5.8-30.8.3-.3 7.5-.5 16.1-.5 8.6.1 15.6-.2 15.7-.6.1-.5.2-4.3.4-8.6.2-7.2.1-7.7-1.9-7.8-1.2 0-8.6-.1-16.5-.1l-14.3-.1.6-5.8c1.5-12.8 7.8-26.1 15.9-33.6 11.2-10.4 24.5-14.7 43.8-14.5l8.7.1.1-11.1.2-11.1-13.3.6c-19 .9-25.6 2.4-37.9 8.8-13.1 6.8-23.3 17.5-30.3 31.7-3.5 6.9-7.6 20.5-7.6 24.8 0 8.7-12.1-4.3-16.9-18.1-4.1-11.8-4.8-20.9-4.3-60.4.2-25.9 0-37.1-.7-37.2-3.7-.4-9.1-.3-12.3.1z"/></svg>