<?xml version="1.0" encoding="UTF-8" standalone="no"?>
<!-- Created with Inkscape (http://www.inkscape.org/) -->

<svg
   xmlns:dc="http://purl.org/dc/elements/1.1/"
   xmlns:cc="http://creativecommons.org/ns#"
   xmlns:rdf="http://www.w3.org/1999/02/22-rdf-syntax-ns#"
   xmlns:svg="http://www.w3.org/2000/svg"
   xmlns="http://www.w3.org/2000/svg"
   xmlns:sodipodi="http://sodipodi.sourceforge.net/DTD/sodipodi-0.dtd"
   xmlns:inkscape="http://www.inkscape.org/namespaces/inkscape"
   width="3.8784428mm"
   height="4.1767845mm"
   viewBox="0 0 3.8784426 4.1767845"
   version="1.1"
   id="svg5251"
   inkscape:version="0.92.3 (2405546, 2018-03-11)"
   sodipodi:docname="git.svg">
  <defs
     id="defs5245" />
  <sodipodi:namedview
     id="base"
     pagecolor="#ffffff"
     bordercolor="#666666"
     borderopacity="1.0"
     inkscape:pageopacity="0.0"
     inkscape:pageshadow="2"
     inkscape:zoom="27.745626"
     inkscape:cx="7.3293084"
     inkscape:cy="7.893165"
     inkscape:document-units="mm"
     inkscape:current-layer="layer1"
     showgrid="false"
     fit-margin-top="0"
     fit-margin-left="0"
     fit-margin-right="0"
     fit-margin-bottom="0"
     inkscape:window-width="1366"
     inkscape:window-height="709"
     inkscape:window-x="0"
     inkscape:window-y="32"
     inkscape:window-maximized="1" />
  <metadata
     id="metadata5248">
    <rdf:RDF>
      <cc:Work
         rdf:about="">
        <dc:format>image/svg+xml</dc:format>
        <dc:type
           rdf:resource="http://purl.org/dc/dcmitype/StillImage" />
        <dc:title></dc:title>
      </cc:Work>
    </rdf:RDF>
  </metadata>
  <g
     inkscape:label="Layer 1"
     inkscape:groupmode="layer"
     id="layer1"
     transform="translate(-103.0608,-146.41162)">
    <g
       id="use25456"
       style="fill:#808080;stroke:none;stroke-width:7.50863171"
       transform="matrix(0.00932318,0,0,0.00932318,102.91163,146.11328)">
      <title
         id="title5649">Git</title>
      <path
         inkscape:connector-curvature="0"
         id="path5651"
         d="m 18.8,221.7 c 0,25.3 16.2,60 41.5,68.5 v 1 c -18.8,8.3 -24,50.6 1,65.8 v 1 C 34,367 16,384.3 16,414.2 c 0,51.5 48.8,65.8 91.5,65.8 52,0 90.7,-18.7 90.7,-76 0,-70.5 -101,-44.5 -101,-82.8 0,-13.5 7.2,-18.7 19.7,-21.3 41.5,-7.7 67.5,-40 67.5,-82.2 0,-7.3 -1.5,-14.2 -4,-21 6.7,-1.5 13.2,-3.3 19.7,-5.5 v -50.5 c -17.2,6.8 -35.7,11.8 -54.5,11.8 -53.8,-31 -126.8,1.3 -126.8,69.2 z m 87.7,163.8 c 17,0 41.2,3 41.2,25 0,21.8 -19.5,26.3 -37.7,26.3 -17.3,0 -43.3,-2.7 -43.3,-25.2 0.1,-22.3 22.1,-26.1 39.8,-26.1 z M 103.3,256 C 81.3,256 72,243 72,222.2 c 0,-49.3 61,-48.8 61,-0.5 0,20.3 -8,34.3 -29.7,34.3 z M 432,305.5 v 49 c -13.3,7.3 -30.5,9.8 -45.5,9.8 -53.5,0 -59.8,-42.2 -59.8,-85.7 v -87.7 h 0.5 v -1 c -7,0 -7.3,-1.6 -24,1 v -47.5 h 24 c 0,-22.3 0.3,-31 -1.5,-41.2 h 56.7 c -2,13.8 -1.5,27.5 -1.5,41.2 h 51 v 47.5 c 0,0 -19.3,-1 -51,-1 V 281 c 0,14.8 3.3,32.8 21.8,32.8 9.8,0 21.3,-2.8 29.3,-8.3 z M 286,68.7 c 0,18.7 -14.5,36.2 -33.8,36.2 -19.8,0 -34.5,-17.2 -34.5,-36.2 C 217.7,49.4 232.2,32 252.2,32 272,32 286,50 286,68.7 Z m -6.2,74.5 c -1.8,14.6 -1.6,199.8 0,217.8 h -55.5 c 1.6,-18.1 1.8,-203 0,-217.8 z" />
    </g>
  </g>
</svg>
