<?xml version="1.0" encoding="UTF-8" standalone="no"?>
<!-- Created with Inkscape (http://www.inkscape.org/) -->

<svg
   xmlns:dc="http://purl.org/dc/elements/1.1/"
   xmlns:cc="http://creativecommons.org/ns#"
   xmlns:rdf="http://www.w3.org/1999/02/22-rdf-syntax-ns#"
   xmlns:svg="http://www.w3.org/2000/svg"
   xmlns="http://www.w3.org/2000/svg"
   xmlns:sodipodi="http://sodipodi.sourceforge.net/DTD/sodipodi-0.dtd"
   xmlns:inkscape="http://www.inkscape.org/namespaces/inkscape"
   width="2.1568754mm"
   height="4.7731638mm"
   viewBox="0 0 2.1568753 4.7731638"
   version="1.1"
   id="svg5251"
   inkscape:version="0.92.3 (2405546, 2018-03-11)"
   sodipodi:docname="gulp.svg">
  <defs
     id="defs5245" />
  <sodipodi:namedview
     id="base"
     pagecolor="#ffffff"
     bordercolor="#666666"
     borderopacity="1.0"
     inkscape:pageopacity="0.0"
     inkscape:pageshadow="2"
     inkscape:zoom="27.745626"
     inkscape:cx="4.07597"
     inkscape:cy="9.0201724"
     inkscape:document-units="mm"
     inkscape:current-layer="layer1"
     showgrid="false"
     fit-margin-top="0"
     fit-margin-left="0"
     fit-margin-right="0"
     fit-margin-bottom="0"
     inkscape:window-width="1366"
     inkscape:window-height="709"
     inkscape:window-x="0"
     inkscape:window-y="32"
     inkscape:window-maximized="1" />
  <metadata
     id="metadata5248">
    <rdf:RDF>
      <cc:Work
         rdf:about="">
        <dc:format>image/svg+xml</dc:format>
        <dc:type
           rdf:resource="http://purl.org/dc/dcmitype/StillImage" />
        <dc:title></dc:title>
      </cc:Work>
    </rdf:RDF>
  </metadata>
  <g
     inkscape:label="Layer 1"
     inkscape:groupmode="layer"
     id="layer1"
     transform="translate(-103.92158,-146.11343)">
    <g
       id="use25556"
       style="fill:#808080;stroke:none;stroke-width:7.50863171"
       transform="matrix(0.00932318,0,0,0.00932318,103.8069,146.11313)">
      <title
         id="title5606">Gulp</title>
      <path
         inkscape:connector-curvature="0"
         id="path5608"
         d="m 209.8,391.1 -14.1,24.6 -4.6,80.2 c 0,8.9 -28.3,16.1 -63.1,16.1 -34.8,0 -63.1,-7.2 -63.1,-16.1 L 59.1,416.5 44.2,391.1 c 41.2,17.3 126,16.7 165.6,0 z M 13.8,137.8 27.4,263.3 c 5.9,-20 20.8,-47 40,-55.2 6.3,-2.7 12.7,-2.7 18.7,0.9 5.2,3 9.6,9.3 10.1,11.8 1.2,6.5 -2,9.1 -4.5,9.1 -3,0 -5.3,-4.6 -6.8,-7.3 -4.1,-7.3 -10.3,-7.6 -16.9,-2.8 -6.9,5 -12.9,13.4 -17.1,20.7 -5.1,8.8 -9.4,18.5 -12,28.2 -1.5,5.6 -2.9,14.6 -0.6,19.9 1,2.2 2.5,3.6 4.9,3.6 5,0 12.3,-6.6 15.8,-10.1 4.5,-4.5 10.3,-11.5 12.5,-16 l 5.2,-15.5 c 2.6,-6.8 9.9,-5.6 9.9,0 0,10.2 -3.7,13.6 -10,34.7 -5.8,19.5 -7.6,25.8 -7.6,25.8 -0.7,2.8 -3.4,7.5 -6.3,7.5 -1.2,0 -2.1,-0.4 -2.6,-1.2 -1,-1.4 -0.9,-5.3 -0.8,-6.3 0.2,-3.2 6.3,-22.2 7.3,-25.2 -2,2.2 -4.1,4.4 -6.4,6.6 -5.4,5.1 -14.1,11.8 -21.5,11.8 -3.4,0 -5.6,-0.9 -7.7,-2.4 l 7.6,79.6 c 2,5 39.2,17.1 88.2,17.1 49.1,0 86.3,-12.2 88.2,-17.1 l 10.9,-94.6 c -5.7,5.2 -12.3,11.6 -19.6,14.8 -5.4,2.3 -17.4,3.8 -17.4,-5.7 0,-5.2 9.1,-14.8 14.4,-21.5 1.4,-1.7 4.7,-5.9 4.7,-8.1 0,-2.9 -6,-2.2 -11.7,2.5 -3.2,2.7 -6.2,6.3 -8.7,9.7 -4.3,6 -6.6,11.2 -8.5,15.5 -6.2,14.2 -4.1,8.6 -9.1,22 -5,13.3 -4.2,11.8 -5.2,14 -0.9,1.9 -2.2,3.5 -4,4.5 -1.9,1 -4.5,0.9 -6.1,-0.3 -0.9,-0.6 -1.3,-1.9 -1.3,-3.7 0,-0.9 0.1,-1.8 0.3,-2.7 1.5,-6.1 7.8,-18.1 15,-34.3 1.6,-3.7 1,-2.6 0.8,-2.3 -6.2,6 -10.9,8.9 -14.4,10.5 -5.8,2.6 -13,2.6 -14.5,-4.1 -0.1,-0.4 -0.1,-0.8 -0.2,-1.2 -11.8,9.2 -24.3,11.7 -20,-8.1 -4.6,8.2 -12.6,14.9 -22.4,14.9 -4.1,0 -7.1,-1.4 -8.6,-5.1 -2.3,-5.5 1.3,-14.9 4.6,-23.8 1.7,-4.5 4,-9.9 7.1,-16.2 1.6,-3.4 4.2,-5.4 7.6,-4.5 0.6,0.2 1.1,0.4 1.6,0.7 2.6,1.8 1.6,4.5 0.3,7.2 -3.8,7.5 -7.1,13 -9.3,20.8 -0.9,3.3 -2,9 1.5,9 2.4,0 4.7,-0.8 6.9,-2.4 4.6,-3.4 8.3,-8.5 11.1,-13.5 2,-3.6 4.4,-8.3 5.6,-12.3 0.5,-1.7 1.1,-3.3 1.8,-4.8 1.1,-2.5 2.6,-5.1 5.2,-5.1 1.3,0 2.4,0.5 3.2,1.5 1.7,2.2 1.3,4.5 0.4,6.9 -2,5.6 -4.7,10.6 -6.9,16.7 -1.3,3.5 -2.7,8 -2.7,11.7 0,3.4 3.7,2.6 6.8,1.2 2.4,-1.1 4.8,-2.8 6.8,-4.5 1.2,-4.9 0.9,-3.8 26.4,-68.2 1.3,-3.3 3.7,-4.7 6.1,-4.7 1.2,0 2.2,0.4 3.2,1.1 1.7,1.3 1.7,4.1 1,6.2 -0.7,1.9 -0.6,1.3 -4.5,10.5 -5.2,12.1 -8.6,20.8 -13.2,31.9 -1.9,4.6 -7.7,18.9 -8.7,22.3 -0.6,2.2 -1.3,5.8 1,5.8 5.4,0 19.3,-13.1 23.1,-17 0.2,-0.3 0.5,-0.4 0.9,-0.6 0.6,-1.9 1.2,-3.7 1.7,-5.5 1.4,-3.8 2.7,-8.2 5.3,-11.3 0.8,-1 1.7,-1.6 2.7,-1.6 2.8,0 4.2,1.2 4.2,4 0,1.1 -0.7,5.1 -1.1,6.2 1.4,-1.5 2.9,-3 4.5,-4.5 15,-13.9 25.7,-6.8 25.7,0.2 0,7.4 -8.9,17.7 -13.8,23.4 -1.6,1.9 -4.9,5.4 -5,6.4 0,1.3 0.9,1.8 2.2,1.8 2,0 6.4,-3.5 8,-4.7 5,-3.9 11.8,-9.9 16.6,-14.1 l 14.8,-136.8 c -30.5,17.1 -197.6,17.2 -228.3,0.2 z m 229.7,-8.5 c 0,21 -231.2,21 -231.2,0 0,-8.8 51.8,-15.9 115.6,-15.9 9,0 17.8,0.1 26.3,0.4 L 166.8,65.1 228.1,0.6 c 1.4,-1.4 5.8,-0.2 9.9,3.5 4.1,3.7 6.6,7.9 5.3,9.3 l -0.1,0.1 -57.3,60.5 -10,40.7 c 39.9,2.6 67.6,8.1 67.6,14.6 z m -69.4,4.6 c 0,-0.8 -0.9,-1.5 -2.5,-2.1 l -0.2,0.8 c 0,1.3 -5,2.4 -11.1,2.4 -6.1,0 -11.1,-1.1 -11.1,-2.4 0,-0.1 0,-0.2 0.1,-0.3 l 0.2,-0.7 c -1.8,0.6 -3,1.4 -3,2.3 0,2.1 6.2,3.7 13.7,3.7 7.7,0.1 13.9,-1.6 13.9,-3.7 z" />
    </g>
  </g>
</svg>
