<?xml version="1.0" encoding="UTF-8" standalone="no"?>
<!-- Created with Inkscape (http://www.inkscape.org/) -->

<svg
   xmlns:dc="http://purl.org/dc/elements/1.1/"
   xmlns:cc="http://creativecommons.org/ns#"
   xmlns:rdf="http://www.w3.org/1999/02/22-rdf-syntax-ns#"
   xmlns:svg="http://www.w3.org/2000/svg"
   xmlns="http://www.w3.org/2000/svg"
   xmlns:sodipodi="http://sodipodi.sourceforge.net/DTD/sodipodi-0.dtd"
   xmlns:inkscape="http://www.inkscape.org/namespaces/inkscape"
   width="12.635614"
   height="12.635614"
   viewBox="0 0 3.3431729 3.343173"
   version="1.1"
   id="svg53"
   inkscape:version="0.92.3 (2405546, 2018-03-11)"
   sodipodi:docname="logo-facebook.svg">
  <defs
     id="defs47" />
  <sodipodi:namedview
     id="base"
     pagecolor="#ffffff"
     bordercolor="#666666"
     borderopacity="1.0"
     inkscape:pageopacity="0.0"
     inkscape:pageshadow="2"
     inkscape:zoom="7.9195959"
     inkscape:cx="-7.8590698"
     inkscape:cy="7.0751362"
     inkscape:document-units="px"
     inkscape:current-layer="layer1"
     showgrid="false"
     units="px"
     fit-margin-top="0"
     fit-margin-left="0"
     fit-margin-right="0"
     fit-margin-bottom="0"
     inkscape:window-width="1366"
     inkscape:window-height="709"
     inkscape:window-x="0"
     inkscape:window-y="32"
     inkscape:window-maximized="1" />
  <metadata
     id="metadata50">
    <rdf:RDF>
      <cc:Work
         rdf:about="">
        <dc:format>image/svg+xml</dc:format>
        <dc:type
           rdf:resource="http://purl.org/dc/dcmitype/StillImage" />
        <dc:title></dc:title>
      </cc:Work>
    </rdf:RDF>
  </metadata>
  <g
     inkscape:label="Layer 1"
     inkscape:groupmode="layer"
     id="layer1"
     transform="translate(-103.32841,-146.82842)">
    <g
       transform="matrix(0.00746244,0,0,0.00746244,103.32841,146.58962)"
       style="fill:#ececec;fill-opacity:1;stroke:none"
       id="use34029">
      <title
         id="title22607">Facebook Square</title>
      <path
         d="m 448,80 v 352 c 0,26.5 -21.5,48 -48,48 H 314.7 V 302.8 h 60.6 L 384,235.2 H 314.7 V 192 c 0,-19.6 5.4,-32.9 33.5,-32.9 H 384 V 98.7 C 377.8,97.9 356.6,96 331.8,96 c -51.6,0 -87,31.5 -87,89.4 v 49.9 H 184 v 67.6 h 60.9 V 480 H 48 C 21.5,480 0,458.5 0,432 V 80 C 0,53.5 21.5,32 48,32 h 352 c 26.5,0 48,21.5 48,48 z"
         id="path22609"
         inkscape:connector-curvature="0" />
    </g>
  </g>
</svg>
