<?xml version="1.0" encoding="UTF-8" standalone="no"?>
<!-- Created with Inkscape (http://www.inkscape.org/) -->

<svg
   xmlns:dc="http://purl.org/dc/elements/1.1/"
   xmlns:cc="http://creativecommons.org/ns#"
   xmlns:rdf="http://www.w3.org/1999/02/22-rdf-syntax-ns#"
   xmlns:svg="http://www.w3.org/2000/svg"
   xmlns="http://www.w3.org/2000/svg"
   xmlns:sodipodi="http://sodipodi.sourceforge.net/DTD/sodipodi-0.dtd"
   xmlns:inkscape="http://www.inkscape.org/namespaces/inkscape"
   width="12.635614"
   height="12.635614"
   viewBox="0 0 3.3431729 3.343173"
   version="1.1"
   id="svg53"
   inkscape:version="0.92.3 (2405546, 2018-03-11)"
   sodipodi:docname="logo-whatsapp.svg">
  <defs
     id="defs47" />
  <sodipodi:namedview
     id="base"
     pagecolor="#ffffff"
     bordercolor="#666666"
     borderopacity="1.0"
     inkscape:pageopacity="0.0"
     inkscape:pageshadow="2"
     inkscape:zoom="7.9195959"
     inkscape:cx="-7.8590698"
     inkscape:cy="7.0751362"
     inkscape:document-units="px"
     inkscape:current-layer="layer1"
     showgrid="false"
     units="px"
     fit-margin-top="0"
     fit-margin-left="0"
     fit-margin-right="0"
     fit-margin-bottom="0"
     inkscape:window-width="1366"
     inkscape:window-height="709"
     inkscape:window-x="0"
     inkscape:window-y="32"
     inkscape:window-maximized="1" />
  <metadata
     id="metadata50">
    <rdf:RDF>
      <cc:Work
         rdf:about="">
        <dc:format>image/svg+xml</dc:format>
        <dc:type
           rdf:resource="http://purl.org/dc/dcmitype/StillImage" />
        <dc:title></dc:title>
      </cc:Work>
    </rdf:RDF>
  </metadata>
  <g
     inkscape:label="Layer 1"
     inkscape:groupmode="layer"
     id="layer1"
     transform="translate(-103.32841,-146.82842)">
    <g
       transform="matrix(0.00746244,0,0,0.00746244,103.32841,146.58962)"
       style="fill:#ececec;fill-opacity:1;stroke:none"
       id="use34092">
      <title
         id="title22679">What's App Square</title>
      <path
         d="m 224,122.8 c -72.7,0 -131.8,59.1 -131.9,131.8 0,24.9 7,49.2 20.2,70.1 l 3.1,5 -13.3,48.6 49.9,-13.1 4.8,2.9 c 20.2,12 43.4,18.4 67.1,18.4 h 0.1 c 72.6,0 133.3,-59.1 133.3,-131.8 0,-35.2 -15.2,-68.3 -40.1,-93.2 -25,-25 -58,-38.7 -93.2,-38.7 z m 77.5,188.4 c -3.3,9.3 -19.1,17.7 -26.7,18.8 -12.6,1.9 -22.4,0.9 -47.5,-9.9 -39.7,-17.2 -65.7,-57.2 -67.7,-59.8 -2,-2.6 -16.2,-21.5 -16.2,-41 0,-19.5 10.2,-29.1 13.9,-33.1 3.6,-4 7.9,-5 10.6,-5 2.6,0 5.3,0 7.6,0.1 2.4,0.1 5.7,-0.9 8.9,6.8 3.3,7.9 11.2,27.4 12.2,29.4 1,2 1.7,4.3 0.3,6.9 -7.6,15.2 -15.7,14.6 -11.6,21.6 15.3,26.3 30.6,35.4 53.9,47.1 4,2 6.3,1.7 8.6,-1 2.3,-2.6 9.9,-11.6 12.5,-15.5 2.6,-4 5.3,-3.3 8.9,-2 3.6,1.3 23.1,10.9 27.1,12.9 4,2 6.6,3 7.6,4.6 0.9,1.9 0.9,9.9 -2.4,19.1 z M 400,32 H 48 C 21.5,32 0,53.5 0,80 v 352 c 0,26.5 21.5,48 48,48 h 352 c 26.5,0 48,-21.5 48,-48 V 80 C 448,53.5 426.5,32 400,32 Z M 223.9,413.2 c -26.6,0 -52.7,-6.7 -75.8,-19.3 L 64,416 86.5,333.8 C 72.6,309.8 65.3,282.5 65.3,254.5 65.4,167.1 136.5,96 223.9,96 c 42.4,0 82.2,16.5 112.2,46.5 29.9,30 47.9,69.8 47.9,112.2 0,87.4 -72.7,158.5 -160.1,158.5 z"
         id="path22681"
         inkscape:connector-curvature="0" />
    </g>
  </g>
</svg>
