<?xml version="1.0" encoding="UTF-8" standalone="no"?>
<!-- Created with Inkscape (http://www.inkscape.org/) -->

<svg
   xmlns:dc="http://purl.org/dc/elements/1.1/"
   xmlns:cc="http://creativecommons.org/ns#"
   xmlns:rdf="http://www.w3.org/1999/02/22-rdf-syntax-ns#"
   xmlns:svg="http://www.w3.org/2000/svg"
   xmlns="http://www.w3.org/2000/svg"
   xmlns:sodipodi="http://sodipodi.sourceforge.net/DTD/sodipodi-0.dtd"
   xmlns:inkscape="http://www.inkscape.org/namespaces/inkscape"
   width="5.966835mm"
   height="3.6545513mm"
   viewBox="0 0 5.9668349 3.6545512"
   version="1.1"
   id="svg5251"
   inkscape:version="0.92.3 (2405546, 2018-03-11)"
   sodipodi:docname="node.svg">
  <defs
     id="defs5245" />
  <sodipodi:namedview
     id="base"
     pagecolor="#ffffff"
     bordercolor="#666666"
     borderopacity="1.0"
     inkscape:pageopacity="0.0"
     inkscape:pageshadow="2"
     inkscape:zoom="27.745626"
     inkscape:cx="11.275897"
     inkscape:cy="6.9062733"
     inkscape:document-units="mm"
     inkscape:current-layer="layer1"
     showgrid="false"
     fit-margin-top="0"
     fit-margin-left="0"
     fit-margin-right="0"
     fit-margin-bottom="0"
     inkscape:window-width="1366"
     inkscape:window-height="709"
     inkscape:window-x="0"
     inkscape:window-y="32"
     inkscape:window-maximized="1" />
  <metadata
     id="metadata5248">
    <rdf:RDF>
      <cc:Work
         rdf:about="">
        <dc:format>image/svg+xml</dc:format>
        <dc:type
           rdf:resource="http://purl.org/dc/dcmitype/StillImage" />
        <dc:title></dc:title>
      </cc:Work>
    </rdf:RDF>
  </metadata>
  <g
     inkscape:label="Layer 1"
     inkscape:groupmode="layer"
     id="layer1"
     transform="translate(-102.01659,-146.67274)">
    <g
       id="use25481"
       style="fill:#808080;stroke:none;stroke-width:7.50863171"
       transform="matrix(0.00932318,0,0,0.00932318,102.01659,146.11321)">
      <title
         id="title5520">Node.js</title>
      <path
         inkscape:connector-curvature="0"
         id="path5522"
         d="m 316.3,452 c -2.1,0 -4.2,-0.6 -6.1,-1.6 L 291,439 c -2.9,-1.6 -1.5,-2.2 -0.5,-2.5 3.8,-1.3 4.6,-1.6 8.7,-4 0.4,-0.2 1,-0.1 1.4,0.1 l 14.8,8.8 c 0.5,0.3 1.3,0.3 1.8,0 L 375,408 c 0.5,-0.3 0.9,-0.9 0.9,-1.6 v -66.7 c 0,-0.7 -0.3,-1.3 -0.9,-1.6 l -57.8,-33.3 c -0.5,-0.3 -1.2,-0.3 -1.8,0 l -57.8,33.3 c -0.6,0.3 -0.9,1 -0.9,1.6 v 66.7 c 0,0.6 0.4,1.2 0.9,1.5 l 15.8,9.1 c 8.6,4.3 13.9,-0.8 13.9,-5.8 v -65.9 c 0,-0.9 0.7,-1.7 1.7,-1.7 h 7.3 c 0.9,0 1.7,0.7 1.7,1.7 v 65.9 c 0,11.5 -6.2,18 -17.1,18 -3.3,0 -6,0 -13.3,-3.6 l -15.2,-8.7 c -3.7,-2.2 -6.1,-6.2 -6.1,-10.5 v -66.7 c 0,-4.3 2.3,-8.4 6.1,-10.5 l 57.8,-33.4 c 3.7,-2.1 8.5,-2.1 12.1,0 l 57.8,33.4 c 3.7,2.2 6.1,6.2 6.1,10.5 v 66.7 c 0,4.3 -2.3,8.4 -6.1,10.5 l -57.8,33.4 c -1.7,1.1 -3.8,1.7 -6,1.7 z M 363,386.2 c 0,-12.5 -8.4,-15.8 -26.2,-18.2 -18,-2.4 -19.8,-3.6 -19.8,-7.8 0,-3.5 1.5,-8.1 14.8,-8.1 11.9,0 16.3,2.6 18.1,10.6 0.2,0.8 0.8,1.3 1.6,1.3 h 7.5 c 0.5,0 0.9,-0.2 1.2,-0.5 0.3,-0.4 0.5,-0.8 0.4,-1.3 -1.2,-13.8 -10.3,-20.2 -28.8,-20.2 -16.5,0 -26.3,7 -26.3,18.6 0,12.7 9.8,16.1 25.6,17.7 18.9,1.9 20.4,4.6 20.4,8.3 0,6.5 -5.2,9.2 -17.4,9.2 -15.3,0 -18.7,-3.8 -19.8,-11.4 -0.1,-0.8 -0.8,-1.4 -1.7,-1.4 h -7.5 c -0.9,0 -1.7,0.7 -1.7,1.7 0,9.7 5.3,21.3 30.6,21.3 18.5,0 29,-7.2 29,-19.8 z m 54.5,-50.1 c 0,6.1 -5,11.1 -11.1,11.1 -6.1,0 -11.1,-5 -11.1,-11.1 0,-6.3 5.2,-11.1 11.1,-11.1 6,-0.1 11.1,4.8 11.1,11.1 z m -1.8,0 c 0,-5.2 -4.2,-9.3 -9.4,-9.3 -5.1,0 -9.3,4.1 -9.3,9.3 0,5.2 4.2,9.4 9.3,9.4 5.2,-0.1 9.4,-4.3 9.4,-9.4 z m -4.5,6.2 h -2.6 c -0.1,-0.6 -0.5,-3.8 -0.5,-3.9 -0.2,-0.7 -0.4,-1.1 -1.3,-1.1 h -2.2 v 5 h -2.4 v -12.5 h 4.3 c 1.5,0 4.4,0 4.4,3.3 0,2.3 -1.5,2.8 -2.4,3.1 1.7,0.1 1.8,1.2 2.1,2.8 0.1,1 0.3,2.7 0.6,3.3 z m -2.8,-8.8 c 0,-1.7 -1.2,-1.7 -1.8,-1.7 h -2 v 3.5 h 1.9 c 1.6,0 1.9,-1.1 1.9,-1.8 z M 137.3,191 c 0,-2.7 -1.4,-5.1 -3.7,-6.4 L 72.3,149.3 c -1,-0.6 -2.2,-0.9 -3.4,-1 h -0.6 c -1.2,0 -2.3,0.4 -3.4,1 L 3.7,184.6 C 1.4,185.9 0,188.4 0,191 l 0.1,95 c 0,1.3 0.7,2.5 1.8,3.2 1.1,0.7 2.5,0.7 3.7,0 L 42,268.3 c 2.3,-1.4 3.7,-3.8 3.7,-6.4 v -44.4 c 0,-2.6 1.4,-5.1 3.7,-6.4 l 15.5,-8.9 c 1.2,-0.7 2.4,-1 3.7,-1 1.3,0 2.6,0.3 3.7,1 l 15.5,8.9 c 2.3,1.3 3.7,3.8 3.7,6.4 v 44.4 c 0,2.6 1.4,5.1 3.7,6.4 l 36.4,20.9 c 1.1,0.7 2.6,0.7 3.7,0 1.1,-0.6 1.8,-1.9 1.8,-3.2 z M 472.5,87.3 v 176.4 c 0,2.6 -1.4,5.1 -3.7,6.4 l -61.3,35.4 c -2.3,1.3 -5.1,1.3 -7.4,0 l -61.3,-35.4 c -2.3,-1.3 -3.7,-3.8 -3.7,-6.4 v -70.8 c 0,-2.6 1.4,-5.1 3.7,-6.4 l 61.3,-35.4 c 2.3,-1.3 5.1,-1.3 7.4,0 l 15.3,8.8 c 1.7,1 3.9,-0.3 3.9,-2.2 v -94 c 0,-2.8 3,-4.6 5.5,-3.2 l 36.5,20.4 c 2.3,1.2 3.8,3.7 3.8,6.4 z m -46,128.9 c 0,-0.7 -0.4,-1.3 -0.9,-1.6 l -21,-12.2 c -0.6,-0.3 -1.3,-0.3 -1.9,0 l -21,12.2 c -0.6,0.3 -0.9,0.9 -0.9,1.6 v 24.3 c 0,0.7 0.4,1.3 0.9,1.6 l 21,12.1 c 0.6,0.3 1.3,0.3 1.8,0 l 21,-12.1 c 0.6,-0.3 0.9,-0.9 0.9,-1.6 v -24.3 z m 209.8,-0.7 c 2.3,-1.3 3.7,-3.8 3.7,-6.4 V 192 c 0,-2.6 -1.4,-5.1 -3.7,-6.4 l -60.9,-35.4 c -2.3,-1.3 -5.1,-1.3 -7.4,0 l -61.3,35.4 c -2.3,1.3 -3.7,3.8 -3.7,6.4 v 70.8 c 0,2.7 1.4,5.1 3.7,6.4 l 60.9,34.7 c 2.2,1.3 5,1.3 7.3,0 l 36.8,-20.5 c 2.5,-1.4 2.5,-5 0,-6.4 L 550,241.6 c -1.2,-0.7 -1.9,-1.9 -1.9,-3.2 v -22.2 c 0,-1.3 0.7,-2.5 1.9,-3.2 l 19.2,-11.1 c 1.1,-0.7 2.6,-0.7 3.7,0 l 19.2,11.1 c 1.1,0.7 1.9,1.9 1.9,3.2 v 17.4 c 0,2.8 3.1,4.6 5.6,3.2 z M 559,219 c -0.4,0.3 -0.7,0.7 -0.7,1.2 v 13.6 c 0,0.5 0.3,1 0.7,1.2 l 11.8,6.8 c 0.4,0.3 1,0.3 1.4,0 L 584,235 c 0.4,-0.3 0.7,-0.7 0.7,-1.2 v -13.6 c 0,-0.5 -0.3,-1 -0.7,-1.2 l -11.8,-6.8 c -0.4,-0.3 -1,-0.3 -1.4,0 z m -254.2,43.5 v -70.4 c 0,-2.6 -1.6,-5.1 -3.9,-6.4 l -61.1,-35.2 c -2.1,-1.2 -5,-1.4 -7.4,0 l -61.1,35.2 c -2.3,1.3 -3.9,3.7 -3.9,6.4 v 70.4 c 0,2.8 1.9,5.2 4,6.4 l 61.2,35.2 c 2.4,1.4 5.2,1.3 7.4,0 l 61,-35.2 c 1.8,-1 3.1,-2.7 3.6,-4.7 0.1,-0.5 0.2,-1.1 0.2,-1.7 z m -74.3,-124.9 -0.8,0.5 h 1.1 z m 76.2,130.2 -0.4,-0.7 v 0.9 z" />
    </g>
  </g>
</svg>
