<?xml version="1.0" encoding="UTF-8" standalone="no"?>
<!-- Created with Inkscape (http://www.inkscape.org/) -->

<svg
   xmlns:dc="http://purl.org/dc/elements/1.1/"
   xmlns:cc="http://creativecommons.org/ns#"
   xmlns:rdf="http://www.w3.org/1999/02/22-rdf-syntax-ns#"
   xmlns:svg="http://www.w3.org/2000/svg"
   xmlns="http://www.w3.org/2000/svg"
   xmlns:sodipodi="http://sodipodi.sourceforge.net/DTD/sodipodi-0.dtd"
   xmlns:inkscape="http://www.inkscape.org/namespaces/inkscape"
   width="0.54162461"
   height="0.54162461"
   viewBox="0 0 0.14330484 0.14330484"
   version="1.1"
   id="svg22817"
   inkscape:version="0.92.3 (2405546, 2018-03-11)"
   sodipodi:docname="phone-icon.svg">
  <defs
     id="defs22811" />
  <sodipodi:namedview
     id="base"
     pagecolor="#ffffff"
     bordercolor="#666666"
     borderopacity="1.0"
     inkscape:pageopacity="0.0"
     inkscape:pageshadow="2"
     inkscape:zoom="163.84"
     inkscape:cx="-0.010803072"
     inkscape:cy="0.48034446"
     inkscape:document-units="px"
     inkscape:current-layer="layer1"
     showgrid="false"
     fit-margin-top="0"
     fit-margin-left="0"
     fit-margin-right="0"
     fit-margin-bottom="0"
     units="px"
     inkscape:window-width="1366"
     inkscape:window-height="709"
     inkscape:window-x="0"
     inkscape:window-y="32"
     inkscape:window-maximized="1" />
  <metadata
     id="metadata22814">
    <rdf:RDF>
      <cc:Work
         rdf:about="">
        <dc:format>image/svg+xml</dc:format>
        <dc:type
           rdf:resource="http://purl.org/dc/dcmitype/StillImage" />
        <dc:title></dc:title>
      </cc:Work>
    </rdf:RDF>
  </metadata>
  <g
     inkscape:label="Layer 1"
     inkscape:groupmode="layer"
     id="layer1"
     transform="translate(-104.92834,-148.42834)">
    <g
       id="use34804"
       style="fill:#ececec;fill-opacity:1;stroke:none"
       transform="matrix(0.00796138,0,0,0.00796138,104.90446,148.40446)">
      <path
         inkscape:connector-curvature="0"
         id="path22827"
         d="m 6.62,10.79 a 15.15,15.15 0 0 0 6.59,6.59 l 2.2,-2.2 c 0.27,-0.27 0.67,-0.36 1.02,-0.24 1.12,0.37 2.33,0.57 3.57,0.57 0.55,0 1,0.45 1,1 V 20 c 0,0.55 -0.45,1 -1,1 C 10.61,21 3,13.39 3,4 3,3.45 3.45,3 4,3 h 3.5 c 0.55,0 1,0.45 1,1 0,1.25 0.2,2.45 0.57,3.57 0.11,0.35 0.03,0.74 -0.25,1.02 z" />
    </g>
  </g>
</svg>
