<?xml version="1.0" encoding="UTF-8" standalone="no"?>
<!-- Created with Inkscape (http://www.inkscape.org/) -->

<svg
   xmlns:dc="http://purl.org/dc/elements/1.1/"
   xmlns:cc="http://creativecommons.org/ns#"
   xmlns:rdf="http://www.w3.org/1999/02/22-rdf-syntax-ns#"
   xmlns:svg="http://www.w3.org/2000/svg"
   xmlns="http://www.w3.org/2000/svg"
   xmlns:sodipodi="http://sodipodi.sourceforge.net/DTD/sodipodi-0.dtd"
   xmlns:inkscape="http://www.inkscape.org/namespaces/inkscape"
   width="4.773468mm"
   height="4.1770077mm"
   viewBox="0 0 4.773468 4.1770076"
   version="1.1"
   id="svg5251"
   inkscape:version="0.92.3 (2405546, 2018-03-11)"
   sodipodi:docname="reactjs.svg">
  <defs
     id="defs5245" />
  <sodipodi:namedview
     id="base"
     pagecolor="#ffffff"
     bordercolor="#666666"
     borderopacity="1.0"
     inkscape:pageopacity="0.0"
     inkscape:pageshadow="2"
     inkscape:zoom="27.745626"
     inkscape:cx="9.020728"
     inkscape:cy="7.8935934"
     inkscape:document-units="mm"
     inkscape:current-layer="layer1"
     showgrid="false"
     fit-margin-top="0"
     fit-margin-left="0"
     fit-margin-right="0"
     fit-margin-bottom="0"
     inkscape:window-width="1366"
     inkscape:window-height="709"
     inkscape:window-x="0"
     inkscape:window-y="32"
     inkscape:window-maximized="1" />
  <metadata
     id="metadata5248">
    <rdf:RDF>
      <cc:Work
         rdf:about="">
        <dc:format>image/svg+xml</dc:format>
        <dc:type
           rdf:resource="http://purl.org/dc/dcmitype/StillImage" />
        <dc:title></dc:title>
      </cc:Work>
    </rdf:RDF>
  </metadata>
  <g
     inkscape:label="Layer 1"
     inkscape:groupmode="layer"
     id="layer1"
     transform="translate(-102.61327,-146.41151)">
    <g
       id="use25606"
       style="fill:#808080;stroke:none;stroke-width:7.50863171"
       transform="matrix(0.00932318,0,0,0.00932318,102.61327,146.11305)">
      <title
         id="title5434">React</title>
      <path
         inkscape:connector-curvature="0"
         id="path5436"
         d="m 418.2,177.2 c -5.4,-1.8 -10.8,-3.5 -16.2,-5.1 0.9,-3.7 1.7,-7.4 2.5,-11.1 12.3,-59.6 4.2,-107.5 -23.1,-123.3 -26.3,-15.1 -69.2,0.6 -112.6,38.4 -4.3,3.7 -8.5,7.6 -12.5,11.5 C 253.6,85 250.8,82.4 248,79.9 202.5,39.5 156.9,22.5 129.6,38.4 c -26.2,15.2 -34,60.3 -23,116.7 1.1,5.6 2.3,11.1 3.7,16.7 -6.4,1.8 -12.7,3.8 -18.6,5.9 C 38.3,196.2 0,225.4 0,255.6 c 0,31.2 40.8,62.5 96.3,81.5 4.5,1.5 9,3 13.6,4.3 -1.5,6 -2.8,11.9 -4,18 -10.5,55.5 -2.3,99.5 23.9,114.6 27,15.6 72.4,-0.4 116.6,-39.1 3.5,-3.1 7,-6.3 10.5,-9.7 4.4,4.3 9,8.4 13.6,12.4 42.8,36.8 85.1,51.7 111.2,36.6 27,-15.6 35.8,-62.9 24.4,-120.5 -0.9,-4.4 -1.9,-8.9 -3,-13.5 3.2,-0.9 6.3,-1.9 9.4,-2.9 57.7,-19.1 99.5,-50 99.5,-81.7 0,-30.3 -39.4,-59.7 -93.8,-78.4 z M 282.9,92.3 c 37.2,-32.4 71.9,-45.1 87.7,-36 16.9,9.7 23.4,48.9 12.8,100.4 -0.7,3.4 -1.4,6.7 -2.3,10 -22.2,-5 -44.7,-8.6 -67.3,-10.6 -13,-18.6 -27.2,-36.4 -42.6,-53.1 3.9,-3.7 7.7,-7.2 11.7,-10.7 z m -130,189.1 c 4.6,8.8 9.3,17.5 14.3,26.1 5.1,8.7 10.3,17.4 15.8,25.9 -15.6,-1.7 -31.1,-4.2 -46.4,-7.5 4.4,-14.4 9.9,-29.3 16.3,-44.5 z m 0,-50.6 c -6.3,-14.9 -11.6,-29.5 -16,-43.6 14.4,-3.2 29.7,-5.8 45.6,-7.8 -5.3,8.3 -10.5,16.8 -15.4,25.4 -4.9,8.5 -9.7,17.2 -14.2,26 z m 11.4,25.3 c 6.6,-13.8 13.8,-27.3 21.4,-40.6 7.6,-13.3 15.8,-26.2 24.4,-38.9 15,-1.1 30.3,-1.7 45.9,-1.7 15.6,0 31,0.6 45.9,1.7 8.5,12.6 16.6,25.5 24.3,38.7 7.7,13.2 14.9,26.7 21.7,40.4 -6.7,13.8 -13.9,27.4 -21.6,40.8 -7.6,13.3 -15.7,26.2 -24.2,39 -14.9,1.1 -30.4,1.6 -46.1,1.6 -15.7,0 -30.9,-0.5 -45.6,-1.4 -8.7,-12.7 -16.9,-25.7 -24.6,-39 -7.7,-13.3 -14.8,-26.8 -21.5,-40.6 z m 180.6,51.2 c 5.1,-8.8 9.9,-17.7 14.6,-26.7 6.4,14.5 12,29.2 16.9,44.3 -15.5,3.5 -31.2,6.2 -47,8 5.4,-8.4 10.5,-17 15.5,-25.6 z m 14.4,-76.5 c -4.7,-8.8 -9.5,-17.6 -14.5,-26.2 -4.9,-8.5 -10,-16.9 -15.3,-25.2 16.1,2 31.5,4.7 45.9,8 -4.6,14.8 -10,29.2 -16.1,43.4 z M 256.2,118.3 c 10.5,11.4 20.4,23.4 29.6,35.8 -19.8,-0.9 -39.7,-0.9 -59.5,0 9.8,-12.9 19.9,-24.9 29.9,-35.8 z M 140.2,57 c 16.8,-9.8 54.1,4.2 93.4,39 2.5,2.2 5,4.6 7.6,7 -15.5,16.7 -29.8,34.5 -42.9,53.1 -22.6,2 -45,5.5 -67.2,10.4 -1.3,-5.1 -2.4,-10.3 -3.5,-15.5 -9.4,-48.4 -3.2,-84.9 12.6,-94 z m -24.5,263.6 c -4.2,-1.2 -8.3,-2.5 -12.4,-3.9 -21.3,-6.7 -45.5,-17.3 -63,-31.2 -10.1,-7 -16.9,-17.8 -18.8,-29.9 0,-18.3 31.6,-41.7 77.2,-57.6 5.7,-2 11.5,-3.8 17.3,-5.5 6.8,21.7 15,43 24.5,63.6 -9.6,20.9 -17.9,42.5 -24.8,64.5 z m 116.6,98 c -16.5,15.1 -35.6,27.1 -56.4,35.3 -11.1,5.3 -23.9,5.8 -35.3,1.3 -15.9,-9.2 -22.5,-44.5 -13.5,-92 1.1,-5.6 2.3,-11.2 3.7,-16.7 22.4,4.8 45,8.1 67.9,9.8 13.2,18.7 27.7,36.6 43.2,53.4 -3.2,3.1 -6.4,6.1 -9.6,8.9 z m 24.5,-24.3 c -10.2,-11 -20.4,-23.2 -30.3,-36.3 9.6,0.4 19.5,0.6 29.5,0.6 10.3,0 20.4,-0.2 30.4,-0.7 -9.2,12.7 -19.1,24.8 -29.6,36.4 z m 130.7,30 c -0.9,12.2 -6.9,23.6 -16.5,31.3 -15.9,9.2 -49.8,-2.8 -86.4,-34.2 -4.2,-3.6 -8.4,-7.5 -12.7,-11.5 15.3,-16.9 29.4,-34.8 42.2,-53.6 22.9,-1.9 45.7,-5.4 68.2,-10.5 1,4.1 1.9,8.2 2.7,12.2 4.9,21.6 5.7,44.1 2.5,66.3 z m 18.2,-107.5 c -2.8,0.9 -5.6,1.8 -8.5,2.6 -7,-21.8 -15.6,-43.1 -25.5,-63.8 9.6,-20.4 17.7,-41.4 24.5,-62.9 5.2,1.5 10.2,3.1 15,4.7 46.6,16 79.3,39.8 79.3,58 0,19.6 -34.9,44.9 -84.8,61.4 z M 256,210.2 c 25.3,0 45.8,20.5 45.8,45.8 0,25.3 -20.5,45.8 -45.8,45.8 -25.3,0 -45.8,-20.5 -45.8,-45.8 0,-25.3 20.5,-45.8 45.8,-45.8" />
    </g>
  </g>
</svg>
