<?xml version="1.0" encoding="UTF-8" standalone="no"?>
<!-- Created with Inkscape (http://www.inkscape.org/) -->

<svg
   xmlns:dc="http://purl.org/dc/elements/1.1/"
   xmlns:cc="http://creativecommons.org/ns#"
   xmlns:rdf="http://www.w3.org/1999/02/22-rdf-syntax-ns#"
   xmlns:svg="http://www.w3.org/2000/svg"
   xmlns="http://www.w3.org/2000/svg"
   xmlns:sodipodi="http://sodipodi.sourceforge.net/DTD/sodipodi-0.dtd"
   xmlns:inkscape="http://www.inkscape.org/namespaces/inkscape"
   width="4.6242971mm"
   height="4.6242971mm"
   viewBox="0 0 4.624297 4.6242971"
   version="1.1"
   id="svg5251"
   inkscape:version="0.92.3 (2405546, 2018-03-11)"
   sodipodi:docname="wordpress.svg">
  <defs
     id="defs5245" />
  <sodipodi:namedview
     id="base"
     pagecolor="#ffffff"
     bordercolor="#666666"
     borderopacity="1.0"
     inkscape:pageopacity="0.0"
     inkscape:pageshadow="2"
     inkscape:zoom="27.745626"
     inkscape:cx="8.7388303"
     inkscape:cy="8.7388584"
     inkscape:document-units="mm"
     inkscape:current-layer="layer1"
     showgrid="false"
     fit-margin-top="0"
     fit-margin-left="0"
     fit-margin-right="0"
     fit-margin-bottom="0"
     inkscape:window-width="1366"
     inkscape:window-height="709"
     inkscape:window-x="0"
     inkscape:window-y="32"
     inkscape:window-maximized="1" />
  <metadata
     id="metadata5248">
    <rdf:RDF>
      <cc:Work
         rdf:about="">
        <dc:format>image/svg+xml</dc:format>
        <dc:type
           rdf:resource="http://purl.org/dc/dcmitype/StillImage" />
        <dc:title></dc:title>
      </cc:Work>
    </rdf:RDF>
  </metadata>
  <g
     inkscape:label="Layer 1"
     inkscape:groupmode="layer"
     id="layer1"
     transform="translate(-102.68786,-146.18787)">
    <g
       id="use25506"
       style="fill:#808080;stroke:none;stroke-width:7.50863171"
       transform="matrix(0.00932318,0,0,0.00932318,102.61327,146.11328)">
      <title
         id="title5563">WordPress Logo</title>
      <path
         inkscape:connector-curvature="0"
         id="path5565"
         d="m 61.7,169.4 101.5,278 C 92.2,413 43.3,340.2 43.3,256 c 0,-30.9 6.6,-60.1 18.4,-86.6 z m 337.9,75.9 c 0,-26.3 -9.4,-44.5 -17.5,-58.7 -10.8,-17.5 -20.9,-32.4 -20.9,-49.9 0,-19.6 14.8,-37.8 35.7,-37.8 0.9,0 1.8,0.1 2.8,0.2 C 361.8,64.4 311.4,43.2 256,43.2 c -74.3,0 -139.7,38.1 -177.8,95.9 5,0.2 9.7,0.3 13.7,0.3 22.2,0 56.7,-2.7 56.7,-2.7 11.5,-0.7 12.8,16.2 1.4,17.5 0,0 -11.5,1.3 -24.3,2 L 203.2,386.6 249.8,247 216.7,156.2 c -11.5,-0.7 -22.3,-2 -22.3,-2 -11.5,-0.7 -10.1,-18.2 1.3,-17.5 0,0 35.1,2.7 56,2.7 22.2,0 56.7,-2.7 56.7,-2.7 11.5,-0.7 12.8,16.2 1.4,17.5 0,0 -11.5,1.3 -24.3,2 l 76.9,228.7 21.2,-70.9 c 9,-29.4 16,-50.5 16,-68.7 z m -139.9,29.3 -63.8,185.5 c 19.1,5.6 39.2,8.7 60.1,8.7 24.8,0 48.5,-4.3 70.6,-12.1 -0.6,-0.9 -1.1,-1.9 -1.5,-2.9 z m 183,-120.7 c 0.9,6.8 1.4,14 1.4,21.9 0,21.6 -4,45.8 -16.2,76.2 l -65,187.9 C 426.2,403 468.7,334.5 468.7,256 c 0,-37 -9.4,-71.8 -26,-102.1 z M 504,256 C 504,392.8 392.7,504 256,504 119.2,504 8,392.7 8,256 8,119.2 119.2,8 256,8 392.7,8 504,119.2 504,256 Z m -11.4,0 C 492.6,125.5 386.4,19.4 256,19.4 125.5,19.4 19.4,125.5 19.4,256 19.4,386.5 125.6,492.6 256,492.6 386.5,492.6 492.6,386.5 492.6,256 Z" />
    </g>
  </g>
</svg>
